<?xml version="1.0" encoding="UTF-8"?>
<svg id="Layer_2" data-name="Layer 2" xmlns="http://www.w3.org/2000/svg" xmlns:xlink="http://www.w3.org/1999/xlink" viewBox="0 0 846.33 611.24">
  <defs>
    <style>
      .cls-1 {
        fill: url(#New_Pattern_3);
        opacity: .3;
      }

      .cls-1, .cls-2, .cls-3, .cls-4, .cls-5 {
        stroke-width: 0px;
      }

      .cls-2 {
        fill: none;
      }

      .cls-3 {
        fill: #0751a0;
      }

      .cls-4 {
        fill: #f4eb25;
      }

      .cls-5 {
        fill: #fff;
      }
    </style>
    <pattern id="New_Pattern_3" data-name="New Pattern 3" x="0" y="0" width="107.22" height="143.84" patternTransform="translate(199.5 1047.74)" patternUnits="userSpaceOnUse" viewBox="0 0 107.22 143.84">
      <g>
        <rect class="cls-2" x="0" width="107.22" height="143.84"/>
        <g>
          <path class="cls-4" d="M63.47,138.36c-2.58,8.31-5.09,16.4-7.5,24.14,2,1.52,3.93,2.8,5.64,4.33,1.64,1.46,1.91,3.4,1.22,5.49-.65,1.95-1.36,3.88-1.87,5.86-.91,3.54.18,5.32,3.74,6.09,1.53.33,2.81.66,3.27,2.46.1.39,1.37.48,2.4.8.1.95,1.18,1.36,2.48,1.31,1.77-.07,2.62.79,2.84,2.47.06.51.19,1.01.32,1.5.34,1.32,1.14,1.74,2.44,1.27,2.09-.75,4.18-1.49,6.29-2.18,1.99-.65,3.97-.5,5.77.58,9.35,5.64,23.04,1.45,28-10.45,2.77-6.66,4.3-13.45,2.76-20.64-2.26-10.62-13.35-19.34-23.49-18.28-3.25.34-6.45,1.37-9.62,2.26-5.06,1.42-10.14,2.13-14.97-.44-2.99-1.59-5.69-3.72-8.52-5.62-.37-.25-.69-.55-1.22-.97Z"/>
          <path class="cls-5" d="M26.71,167.98c.88-.87,1.63-1.67,2.43-2.4,1.2-1.08,2.57-1.48,4.08-.71,1.46.75,2.07,2.01,2.07,3.64,0,1.56-.05,3.15.19,4.69.29,1.9,1.39,2.65,3.33,2.5.86-.07,1.46.16,1.69,1.03.35,1.29,1.18,1.38,2.33.88.62,1.43,1.59,1.39,2.77.65,1.11-.69,2.07-.78,2.9.6.64,1.07,1.61,1.06,2.59.24.67-.56,1.28-1.2,1.95-1.76,1.01-.84,2.22-1.28,3.49-.89,9.55,2.92,18.09-4.94,20.32-13.15,2.03-7.5.77-14.51-3.56-20.89-3.62-5.34-8.93-7.25-15.19-6.67-6.73.62-12.71,3.02-17.16,8.29-1.66,1.97-3.44,3.15-5.37,3.6-2.55.59-4.1-1.49-6.5-.9-1.86.46-3.08,2.04-3.82,3.31.48,5.99.96,11.98,1.44,17.97Z"/>
          <path class="cls-3" d="M44.12,140.47c1.02,6.47,2.01,12.77,2.96,18.8,1.86.36,3.58.59,5.25,1.05,1.59.44,2.42,1.67,2.64,3.3.21,1.53.37,3.07.68,4.58.56,2.69,1.89,3.53,4.55,2.87,1.14-.29,2.11-.49,3.03.58.2.23,1.09-.13,1.89-.26.38.61,1.25.53,2.11.06,1.17-.64,2.04-.33,2.74.73.21.32.46.62.71.91.67.78,1.35.8,2.07.05,1.16-1.2,2.33-2.4,3.53-3.56,1.13-1.1,2.52-1.66,4.09-1.52,8.19.7,16.05-6.67,15.44-16.36-.29-4.62-.41-11.58-4.99-14.86-3.37-2.42-5.02-.19-14.03-3.09-3.63-1.17-5.41-2.19-7.91-1.45-2.36.7-2.57,1.88-5.75,4.72-2.95,2.64-6.14,4.81-10.26,4.68-2.55-.08-5.08-.62-7.62-.96-.33-.04-.65-.14-1.15-.25Z"/>
        </g>
        <path class="cls-4" d="M-43.75,138.36c-2.58,8.31-5.09,16.4-7.5,24.14,2,1.52,3.93,2.8,5.64,4.33,1.64,1.46,1.91,3.4,1.22,5.49-.65,1.95-1.36,3.88-1.87,5.86-.91,3.54.18,5.32,3.74,6.09,1.53.33,2.81.66,3.27,2.46.1.39,1.37.48,2.4.8.1.95,1.18,1.36,2.48,1.31,1.77-.07,2.62.79,2.84,2.47.06.51.19,1.01.32,1.5.34,1.32,1.14,1.74,2.44,1.27,2.09-.75,4.18-1.49,6.29-2.18,1.99-.65,3.97-.5,5.77.58,9.35,5.64,23.04,1.45,28-10.45,2.77-6.66,4.3-13.45,2.76-20.64-2.26-10.62-13.35-19.34-23.49-18.28-3.25.34-6.45,1.37-9.62,2.26-5.06,1.42-10.14,2.13-14.97-.44-2.99-1.59-5.69-3.72-8.52-5.62-.37-.25-.69-.55-1.22-.97Z"/>
        <g>
          <path class="cls-5" d="M80.32,96.06c.88-.87,1.63-1.67,2.43-2.4,1.2-1.08,2.57-1.48,4.08-.71,1.46.75,2.07,2.01,2.07,3.64,0,1.56-.05,3.15.19,4.69.29,1.9,1.39,2.65,3.33,2.5.86-.07,1.46.16,1.69,1.03.35,1.29,1.18,1.38,2.33.88.62,1.43,1.59,1.39,2.77.65,1.11-.69,2.07-.78,2.9.6.64,1.07,1.61,1.06,2.59.24.67-.56,1.28-1.2,1.95-1.76,1.01-.84,2.22-1.28,3.49-.89,9.55,2.92,18.09-4.94,20.32-13.15,2.03-7.5.77-14.51-3.56-20.89-3.62-5.34-8.93-7.25-15.19-6.67-6.73.62-12.71,3.02-17.16,8.29-1.66,1.97-3.44,3.15-5.37,3.6-2.55.59-4.1-1.49-6.5-.9-1.86.46-3.08,2.04-3.82,3.31.48,5.99.96,11.98,1.44,17.97Z"/>
          <path class="cls-5" d="M90.02,133.64c.95-.94,1.76-1.81,2.63-2.6,1.29-1.17,2.77-1.6,4.41-.77,1.58.81,2.23,2.17,2.23,3.93,0,1.69-.05,3.4.2,5.06.32,2.06,1.51,2.86,3.6,2.7.93-.07,1.58.17,1.83,1.11.38,1.4,1.28,1.49,2.52.95.67,1.55,1.72,1.5,3,.71,1.19-.74,2.24-.84,3.13.64.69,1.15,1.74,1.15,2.8.26.72-.61,1.38-1.3,2.11-1.9,1.1-.91,2.4-1.39,3.77-.96,10.31,3.15,19.55-5.33,21.95-14.21,2.2-8.1.83-15.68-3.84-22.57-3.91-5.77-9.65-7.83-16.41-7.21-7.27.67-13.73,3.26-18.54,8.96-3.63,4.31-7.8,5.15-12.82,2.92-2.49-1.11-5.04-2.1-7.73-3.21,1.73,8.76,3.42,17.36,5.16,26.2Z"/>
          <path class="cls-3" d="M97.73,68.55c1.02,6.47,2.01,12.77,2.96,18.8,1.86.36,3.58.59,5.25,1.05,1.59.44,2.42,1.67,2.64,3.3.21,1.53.37,3.07.68,4.58.56,2.69,1.89,3.53,4.55,2.87,1.14-.29,2.11-.49,3.03.58.2.23,1.09-.13,1.89-.26.38.61,1.25.53,2.11.06,1.17-.64,2.04-.33,2.74.73.21.32.46.62.71.91.67.78,1.35.8,2.07.05,1.16-1.2,2.33-2.4,3.53-3.56,1.13-1.1,2.52-1.66,4.09-1.52,8.19.7,16.05-6.67,15.44-16.36-.29-4.62-.41-11.58-4.99-14.86-3.37-2.42-5.02-.19-14.03-3.09-3.63-1.17-5.41-2.19-7.91-1.45-2.36.7-2.57,1.88-5.75,4.72-2.95,2.64-6.14,4.81-10.26,4.68-2.55-.08-5.08-.62-7.62-.96-.33-.04-.65-.14-1.15-.25Z"/>
          <path class="cls-3" d="M115.02,202.58c.79-2.02,1.41-3.81,2.18-5.56,1.14-2.58,3.04-4.28,5.99-4.32,2.85-.04,4.7,1.37,5.84,3.82,1.1,2.35,2.13,4.78,3.59,6.9,1.8,2.63,4.07,2.87,7.05,1.1,1.33-.79,2.43-.92,3.42.2,1.46,1.67,2.85,1.14,4.32-.54,2,1.66,3.5.82,4.87-1.23,1.28-1.91,2.74-2.82,5.02-1.41,1.77,1.09,3.31.31,4.29-1.71.67-1.38,1.19-2.83,1.87-4.21,1.02-2.08,2.63-3.7,4.93-4.13,17.22-3.22,25.29-21.86,23.07-35.99-2.03-12.91-8.97-22.44-20.33-28.59-9.5-5.14-19.29-3.78-28.83,2.08-10.26,6.3-18.09,14.68-21.45,26.16-2.54,8.68-8.12,12.93-16.97,13.53-4.39.3-8.78.8-13.47,1.24,8.24,10.93,16.32,21.65,24.62,32.67Z"/>
          <path class="cls-3" d="M52.24,106.89c4.88-7.63,9.65-15.09,14.46-22.62,1.08.78,2.06,1.55,3.1,2.22,1.74,1.11,3.16.98,4.54-.53,1-1.1,1.83-2.36,2.7-3.57,2.19-3.09,5.03-3.25,7.6-.48.33.36.96.63,1.44.62,1.43-.03,1.43-.09,2.28,1.02,1.16-.68,2.09-.42,2.75.77.51.93,1.17.85,1.91.29.23-.17.45-.36.68-.53,1.64-1.22,2.72-.97,3.53.86.8,1.81,1.58,3.63,2.29,5.47.56,1.46,1.4,2.48,2.87,3.22,7.19,3.58,10.95,10.78,9.5,18.72-1.53,8.39-5.77,15.15-13.51,19.14-9.94,5.14-21.61-.13-25.29-7.33-1.01-1.97-2.33-3.78-3.44-5.69-2.82-4.86-6.97-8.03-12.26-9.8-1.68-.56-3.36-1.16-5.14-1.78Z"/>
          <path class="cls-5" d="M66.14,154.59c-.56-1.21-1.09-2.26-1.53-3.35-.65-1.61-.55-3.14.79-4.38,1.3-1.2,2.79-1.34,4.44-.74,1.58.58,3.16,1.21,4.8,1.54,2.03.41,3.19-.43,3.75-2.44.25-.9.7-1.41,1.67-1.33,1.43.13,1.83-.68,1.75-2.03,1.68-.1,1.99-1.09,1.69-2.56-.28-1.37-.02-2.38,1.67-2.7,1.31-.25,1.67-1.24,1.2-2.53-.32-.89-.74-1.73-1.06-2.62-.48-1.34-.47-2.71.39-3.86,6.47-8.56,1.71-20.09-5.76-25.38-6.82-4.83-14.36-6.14-22.4-4.13-6.73,1.68-10.62,6.34-12.35,12.87-1.86,7.02-1.66,13.95,2.02,20.38,2.78,4.87,2.15,9.05-1.66,12.98-1.89,1.95-3.69,3.99-5.65,6.13,8.78,1.39,17.39,2.75,26.24,4.15Z"/>
          <path class="cls-4" d="M64.73,178.61c.93-10.06,1.84-19.85,2.71-29.22,2.82-.74,5.46-1.26,7.98-2.13,2.41-.83,3.56-2.8,3.75-5.34.17-2.37.27-4.76.6-7.11.6-4.2,2.56-5.63,6.72-4.86,1.2.22,2.27.39,3.24-.04.85-.38.9-1.11,1.37-1.14.53-.03,1.29.75,2.35,4.07-.22-2.88.32-5.11,1.48-5.49.37-.12.75-.04.97,0,1.48.3,1.87,1.8,3.09,1.77.27,0,.46-.09.58-.13.22-.08.74-.33,1.44-1.91,1.13-2.53.76-4.04,1.86-4.65.45-.25.91-.21,1.2-.19,1.34.11,2.24,1.28,3.12,2.5,2.92,4.06,2.68,4.66,4.2,5.94,1.72,1.46,3.38,1.82,3.8,1.9.84.16,1.73.18,2.65.04,12.54-1.88,25.35,8.7,25.37,23.66.01,8.37-1.38,16.33-6.22,23.36-7.15,10.38-22.92,14.79-33.32,9.14-3.33-1.81-6.3-4.34-9.31-6.71-4.79-3.77-9.92-6.8-16.24-6.2-3.91.37-7.76,1.45-11.63,2.23-.5.1-.99.28-1.74.5Z"/>
          <path class="cls-4" d="M14.86,127.96c4.53-4.59,9.06-9.18,13.58-13.76,2.07,1.44,3.9,2.88,5.89,4.05,1.9,1.12,3.84.77,5.6-.54,1.65-1.22,3.26-2.5,4.98-3.6,3.08-1.97,5.12-1.48,6.97,1.69.8,1.36,1.51,2.48,3.37,2.37.4-.02.89,1.16,1.52,2.05.93-.2,1.67.71,2.03,1.96.49,1.71,1.58,2.26,3.24,1.94.5-.1,1.02-.13,1.53-.16,1.36-.08,2.01.55,1.98,1.94-.05,2.23-.1,4.46-.09,6.68.01,2.11.78,3.95,2.37,5.33,8.31,7.19,8.65,21.56-1.1,29.98-5.46,4.71-11.44,8.27-18.75,9.03-12.15,1.26-21.44-9.23-24.78-16.78-2.23-5.04-3.11-10.55-3.11-10.55-1.07-6.77.05-10.56-2.91-13.5-1.4-1.4-3.08-1.96-3.5-3.87-.36-1.63.45-3.21,1.17-4.27Z"/>
          <path class="cls-4" d="M82.14,84.99"/>
        </g>
        <g>
          <path class="cls-4" d="M9.86,66.44c-2.58,8.31-5.09,16.4-7.5,24.14,2,1.52,3.93,2.8,5.64,4.33,1.64,1.46,1.91,3.4,1.22,5.49-.65,1.95-1.36,3.88-1.87,5.86-.91,3.54.18,5.32,3.74,6.09,1.53.33,2.81.66,3.27,2.46.1.39,1.37.48,2.4.8.1.95,1.18,1.36,2.48,1.31,1.77-.07,2.62.79,2.84,2.47.06.51.19,1.01.32,1.5.34,1.32,1.14,1.74,2.44,1.27,2.09-.75,4.18-1.49,6.29-2.18,1.99-.65,3.97-.5,5.77.58,9.35,5.64,23.04,1.45,28-10.45,2.77-6.66,4.3-13.45,2.76-20.64-2.26-10.62-13.35-19.34-23.49-18.28-3.25.34-6.45,1.37-9.62,2.26-5.06,1.42-10.14,2.13-14.97-.44-2.99-1.59-5.69-3.72-8.52-5.62-.37-.25-.69-.55-1.22-.97Z"/>
          <path class="cls-3" d="M35.07,131.33c-1.02-6.47-2.01-12.77-2.96-18.8,1.66-.91,3.23-1.66,4.67-2.61,1.38-.91,1.79-2.33,1.5-3.95-.27-1.52-.59-3.03-.75-4.57-.29-2.74.71-3.94,3.45-4.13,1.18-.08,2.16-.18,2.71-1.48.12-.28,1.07-.21,1.88-.33.18-.7,1.03-.89,1.99-.71,1.31.25,2.04-.31,2.38-1.53.1-.37.25-.73.4-1.08.4-.95,1.04-1.17,1.95-.68,1.47.78,2.95,1.56,4.45,2.31,1.41.7,2.9.81,4.36.19,7.58-3.18,17.32,1.42,19.72,10.83,1.34,5.26,1.74,10.49-.19,15.67-2.84,7.67-12.05,12.95-19.48,11.06-2.38-.61-4.65-1.72-6.92-2.73-3.61-1.61-7.32-2.69-11.2-1.3-2.4.86-4.65,2.15-6.96,3.26-.3.14-.58.33-1.01.59Z"/>
          <path class="cls-5" d="M-26.9,96.06c.88-.87,1.63-1.67,2.43-2.4,1.2-1.08,2.57-1.48,4.08-.71,1.46.75,2.07,2.01,2.07,3.64,0,1.56-.05,3.15.19,4.69.29,1.9,1.39,2.65,3.33,2.5.86-.07,1.46.16,1.69,1.03.35,1.29,1.18,1.38,2.33.88.62,1.43,1.59,1.39,2.77.65,1.11-.69,2.07-.78,2.9.6.64,1.07,1.61,1.06,2.59.24.67-.56,1.28-1.2,1.95-1.76,1.01-.84,2.22-1.28,3.49-.89,9.55,2.92,18.09-4.94,20.32-13.15,2.03-7.5.77-14.51-3.56-20.89-3.62-5.34-8.93-7.25-15.19-6.67-6.73.62-12.71,3.02-17.16,8.29-1.66,1.97-3.44,3.15-5.37,3.6-2.55.59-4.1-1.49-6.5-.9-1.86.46-3.08,2.04-3.82,3.31.48,5.99.96,11.98,1.44,17.97Z"/>
          <path class="cls-5" d="M-17.2,133.64c.95-.94,1.76-1.81,2.63-2.6,1.29-1.17,2.77-1.6,4.41-.77,1.58.81,2.23,2.17,2.23,3.93,0,1.69-.05,3.4.2,5.06.32,2.06,1.51,2.86,3.6,2.7.93-.07,1.58.17,1.83,1.11.38,1.4,1.28,1.49,2.52.95.67,1.55,1.72,1.5,3,.71,1.19-.74,2.24-.84,3.13.64.69,1.15,1.74,1.15,2.8.26.72-.61,1.38-1.3,2.11-1.9,1.1-.91,2.4-1.39,3.77-.96,10.31,3.15,19.55-5.33,21.95-14.21,2.2-8.1.83-15.68-3.84-22.57-3.91-5.77-9.65-7.83-16.41-7.21-7.27.67-13.73,3.26-18.54,8.96-3.63,4.31-7.8,5.15-12.82,2.92-2.49-1.11-5.04-2.1-7.73-3.21,1.73,8.76,3.42,17.36,5.16,26.2Z"/>
          <path class="cls-3" d="M-9.49,68.55c1.02,6.47,2.01,12.77,2.96,18.8,1.86.36,3.58.59,5.25,1.05,1.59.44,2.42,1.67,2.64,3.3.21,1.53.37,3.07.68,4.58.56,2.69,1.89,3.53,4.55,2.87,1.14-.29,2.11-.49,3.03.58.2.23,1.09-.13,1.89-.26.38.61,1.25.53,2.11.06,1.17-.64,2.04-.33,2.74.73.21.32.46.62.71.91.67.78,1.35.8,2.07.05,1.16-1.2,2.33-2.4,3.53-3.56,1.13-1.1,2.52-1.66,4.09-1.52,8.19.7,16.05-6.67,15.44-16.36-.29-4.62-.41-11.58-4.99-14.86-3.37-2.42-5.02-.19-14.03-3.09-3.63-1.17-5.41-2.19-7.91-1.45-2.36.7-2.57,1.88-5.75,4.72-2.95,2.64-6.14,4.81-10.26,4.68-2.55-.08-5.08-.62-7.62-.96-.33-.04-.65-.14-1.15-.25Z"/>
          <path class="cls-3" d="M7.8,202.58c.79-2.02,1.41-3.81,2.18-5.56,1.14-2.58,3.04-4.28,5.99-4.32,2.85-.04,4.7,1.37,5.84,3.82,1.1,2.35,2.13,4.78,3.59,6.9,1.8,2.63,4.07,2.87,7.05,1.1,1.33-.79,2.43-.92,3.42.2,1.46,1.67,2.85,1.14,4.32-.54,2,1.66,3.5.82,4.87-1.23,1.28-1.91,2.74-2.82,5.02-1.41,1.77,1.09,3.31.31,4.29-1.71.67-1.38,1.19-2.83,1.87-4.21,1.02-2.08,2.63-3.7,4.93-4.13,17.22-3.22,25.29-21.86,23.07-35.99-2.03-12.91-8.97-22.44-20.33-28.59-9.5-5.14-19.29-3.78-28.83,2.08-10.26,6.3-18.09,14.68-21.45,26.16-2.54,8.68-8.12,12.93-16.97,13.53-4.39.3-8.78.8-13.47,1.24,8.24,10.93,16.32,21.65,24.62,32.67Z"/>
          <path class="cls-3" d="M-54.98,106.89c4.88-7.63,9.65-15.09,14.46-22.62,1.08.78,2.06,1.55,3.1,2.22,1.74,1.11,3.16.98,4.54-.53,1-1.1,1.83-2.36,2.7-3.57,2.19-3.09,5.03-3.25,7.6-.48.33.36.96.63,1.44.62,1.43-.03,1.43-.09,2.28,1.02,1.16-.68,2.09-.42,2.75.77.51.93,1.17.85,1.91.29.23-.17.45-.36.68-.53,1.64-1.22,2.72-.97,3.53.86.8,1.81,1.58,3.63,2.29,5.47.56,1.46,1.4,2.48,2.87,3.22,7.19,3.58,10.95,10.78,9.5,18.72-1.53,8.39-5.77,15.15-13.51,19.14-9.94,5.14-21.61-.13-25.29-7.33-1.01-1.97-2.33-3.78-3.44-5.69-2.82-4.86-6.97-8.03-12.26-9.8-1.68-.56-3.36-1.16-5.14-1.78Z"/>
          <path class="cls-4" d="M-42.49,178.61c.93-10.06,1.84-19.85,2.71-29.22,2.82-.74,5.46-1.26,7.98-2.13,2.41-.83,3.56-2.8,3.75-5.34.17-2.37.27-4.76.6-7.11.6-4.2,2.56-5.63,6.72-4.86,1.2.22,2.27.39,3.24-.04.85-.38.9-1.11,1.37-1.14.53-.03,1.29.75,2.35,4.07-.22-2.88.32-5.11,1.48-5.49.37-.12.75-.04.97,0,1.48.3,1.87,1.8,3.09,1.77.27,0,.46-.09.58-.13.22-.08.74-.33,1.44-1.91,1.13-2.53.76-4.04,1.86-4.65.45-.25.91-.21,1.2-.19,1.34.11,2.24,1.28,3.12,2.5,2.92,4.06,2.68,4.66,4.2,5.94,1.72,1.46,3.38,1.82,3.8,1.9.84.16,1.73.18,2.65.04,12.54-1.88,25.35,8.7,25.37,23.66.01,8.37-1.38,16.33-6.22,23.36-7.15,10.38-22.92,14.79-33.32,9.14-3.33-1.81-6.3-4.34-9.31-6.71-4.79-3.77-9.92-6.8-16.24-6.2-3.91.37-7.76,1.45-11.63,2.23-.5.1-.99.28-1.74.5Z"/>
          <path class="cls-5" d="M76.5,102.31c.41.97,1.19,3.18.61,5.82-.6,2.73-2.33,4.45-3.06,5.18-2.03,2.02-3.37,1.86-5.31,4.02-.24.27-.7.81-1.5,1.15-.83.35-1.78.38-2.81.14-1.64-.38-3.29-.81-4.96-.93-2.06-.15-3.11.82-3.42,2.89-.14.92-.52,1.49-1.49,1.53-1.44.05-1.73.91-1.48,2.23-1.65.31-1.84,1.33-1.35,2.75.45,1.32.32,2.35-1.32,2.89-1.27.41-1.5,1.43-.87,2.66.43.84.95,1.63,1.38,2.47.64,1.27.81,2.63.09,3.87-5.35,9.3.82,20.14,8.89,24.46,7.37,3.94,15.02,4.3,22.74,1.3,6.46-2.51,9.74-7.61,10.64-14.31.97-7.2-.1-14.04-4.56-19.97-1.66-2.21-2.48-4.36-2.48-6.5,0-2.46,1.77-3.49,2.51-6.59.58-2.4.31-4.51.03-5.85-4.09-3.07-8.19-6.14-12.28-9.21Z"/>
        </g>
        <g>
          <path class="cls-3" d="M105.84,34.97c4.88-7.63,9.65-15.09,14.46-22.62,1.08.78,2.06,1.55,3.1,2.22,1.74,1.11,3.16.98,4.54-.53,1-1.1,1.83-2.36,2.7-3.57,2.19-3.09,5.03-3.25,7.6-.48.33.36.96.63,1.44.62,1.43-.03,1.43-.09,2.28,1.02,1.16-.68,2.09-.42,2.75.77.51.93,1.17.85,1.91.29.23-.17.45-.36.68-.53,1.64-1.22,2.72-.97,3.53.86.8,1.81,1.58,3.63,2.29,5.47.56,1.46,1.4,2.48,2.87,3.22,7.19,3.58,10.95,10.78,9.5,18.72-1.53,8.39-5.77,15.15-13.51,19.14-9.94,5.14-21.61-.13-25.29-7.33-1.01-1.97-2.33-3.78-3.44-5.69-2.82-4.86-6.97-8.03-12.26-9.8-1.68-.56-3.36-1.16-5.14-1.78Z"/>
          <path class="cls-5" d="M119.75,82.67c-.56-1.21-1.09-2.26-1.53-3.35-.65-1.61-.55-3.14.79-4.38,1.3-1.2,2.79-1.34,4.44-.74,1.58.58,3.16,1.21,4.8,1.54,2.03.41,3.19-.43,3.75-2.44.25-.9.7-1.41,1.67-1.33,1.43.13,1.83-.68,1.75-2.03,1.68-.1,1.99-1.09,1.69-2.56-.28-1.37-.02-2.38,1.67-2.7,1.31-.25,1.67-1.24,1.2-2.53-.32-.89-.74-1.73-1.06-2.62-.48-1.34-.47-2.71.39-3.86,6.47-8.56,1.71-20.09-5.76-25.38-6.82-4.83-14.36-6.14-22.4-4.13-6.73,1.68-10.62,6.34-12.35,12.87-1.86,7.02-1.66,13.95,2.02,20.38,2.78,4.87,2.15,9.05-1.66,12.98-1.89,1.95-3.69,3.99-5.65,6.13,8.78,1.39,17.39,2.75,26.24,4.15Z"/>
          <path class="cls-3" d="M79.14,123.82c-.44-11.86-.88-23.71-1.32-35.57,1.74,2.01,3.11,3.7,4.03,4.88,1.7,2.15,2.61,3.45,3.38,3.23.56-.16.85-1.03,1.03-2.14.24-1.47.25-2.97.31-4.46.15-3.78,2.45-5.47,6.11-4.54.47.12,1.15,0,1.55-.26,1.18-.81,1.15-.86,2.47-.38.6-1.21,1.53-1.49,2.72-.85.94.5,1.45.07,1.76-.79.1-.27.18-.55.28-.82.71-1.92,1.75-2.3,3.43-1.2,1.65,1.08,3.3,2.18,4.9,3.34,1.26.92,2.52,1.32,4.16,1.13,7.98-.91,15.06,3.07,18.17,10.53,3.29,7.87,3.41,15.85-.9,23.42-5.54,9.72-18.19,11.67-25.21,7.63-1.92-1.1-4.01-1.9-5.98-2.9-5.01-2.54-10.22-2.93-15.62-1.54-1.72.44-3.45.86-5.28,1.31Z"/>
          <path class="cls-4" d="M68.47,56.04c4.53-4.59,9.06-9.18,13.58-13.76,2.07,1.44,3.9,2.88,5.89,4.05,1.9,1.12,3.84.77,5.6-.54,1.65-1.22,3.26-2.5,4.98-3.6,3.08-1.97,5.12-1.48,6.97,1.69.8,1.36,1.51,2.48,3.37,2.37.4-.02.89,1.16,1.52,2.05.93-.2,1.67.71,2.03,1.96.49,1.71,1.58,2.26,3.24,1.94.5-.1,1.02-.13,1.53-.16,1.36-.08,2.01.55,1.98,1.94-.05,2.23-.1,4.46-.09,6.68.01,2.11.78,3.95,2.37,5.33,8.31,7.19,8.65,21.56-1.1,29.98-5.46,4.71-11.44,8.27-18.75,9.03-12.15,1.26-21.44-9.23-24.78-16.78-2.23-5.04-3.11-10.55-3.11-10.55-1.07-6.77.05-10.56-2.91-13.5-1.4-1.4-3.08-1.96-3.5-3.87-.36-1.63.45-3.21,1.17-4.27Z"/>
        </g>
        <g>
          <path class="cls-5" d="M102.66,94.72c.58.85,1.13,1.57,1.6,2.34.7,1.13.78,2.28-.19,3.32-.93,1.01-2.13,1.25-3.54.95-1.35-.28-2.71-.61-4.08-.71-1.7-.12-2.55.61-2.8,2.15-.11.69-.42,1.11-1.22,1.14-1.18.04-1.42.67-1.21,1.66-1.36.23-1.51.99-1.11,2.05.37.99.26,1.76-1.08,2.15-1.04.31-1.23,1.07-.71,1.98.36.63.79,1.22,1.14,1.84.53.95.67,1.97.09,2.89-4.38,6.92.72,15.03,7.37,18.26,6.07,2.95,12.36,3.24,18.7,1.03,5.31-1.85,7.99-5.66,8.72-10.65.78-5.37-.12-10.48-3.79-14.91-2.78-3.35-2.7-6.5,0-9.76,1.34-1.62,2.59-3.29,3.96-5.05l-21.83-.69Z"/>
          <path class="cls-3" d="M29.95,154.91c-1.05-6.67-2.07-13.15-3.04-19.36,1.65-.93,3.23-1.69,4.67-2.66,1.38-.93,1.78-2.39,1.49-4.06-.28-1.56-.6-3.13-.78-4.7-.31-2.82.69-4.06,3.43-4.23,1.18-.08,2.16-.18,2.7-1.51.12-.29,1.07-.21,1.88-.33.18-.72,1.02-.91,1.99-.72,1.31.26,2.04-.31,2.38-1.57.1-.38.25-.75.4-1.11.39-.97,1.03-1.2,1.95-.69,1.48.81,2.96,1.62,4.46,2.39,1.42.73,2.91.84,4.37.22,7.57-3.24,17.34,1.55,19.78,11.23,1.37,5.42,1.79,10.8-.12,16.13-2.81,7.88-12,13.28-19.45,11.29-2.39-.64-4.66-1.8-6.94-2.84-3.62-1.67-7.34-2.8-11.21-1.39-2.4.87-4.64,2.19-6.95,3.32-.3.15-.58.34-1.01.6Z"/>
          <path class="cls-4" d="M63.47-5.48c-2.58,8.31-5.09,16.4-7.5,24.14,2,1.52,3.93,2.8,5.64,4.33,1.64,1.46,1.91,3.4,1.22,5.49-.65,1.95-1.36,3.88-1.87,5.86-.91,3.54.18,5.32,3.74,6.09,1.53.33,2.81.66,3.27,2.46.1.39,1.37.48,2.4.8.1.95,1.18,1.36,2.48,1.31,1.77-.07,2.62.79,2.84,2.47.06.51.19,1.01.32,1.5.34,1.32,1.14,1.74,2.44,1.27,2.09-.75,4.18-1.49,6.29-2.18,1.99-.65,3.97-.5,5.77.58,9.35,5.64,23.04,1.45,28-10.45,2.77-6.66,4.3-13.45,2.76-20.64-2.26-10.62-13.35-19.34-23.49-18.28-3.25.34-6.45,1.37-9.62,2.26-5.06,1.42-10.14,2.13-14.97-.44-2.99-1.59-5.69-3.72-8.52-5.62-.37-.25-.69-.55-1.22-.97Z"/>
          <path class="cls-3" d="M88.68,59.41c-1.02-6.47-2.01-12.77-2.96-18.8,1.66-.91,3.23-1.66,4.67-2.61,1.38-.91,1.79-2.33,1.5-3.95-.27-1.52-.59-3.03-.75-4.57-.29-2.74.71-3.94,3.45-4.13,1.18-.08,2.16-.18,2.71-1.48.12-.28,1.07-.21,1.88-.33.18-.7,1.03-.89,1.99-.71,1.31.25,2.04-.31,2.38-1.53.1-.37.25-.73.4-1.08.4-.95,1.04-1.17,1.95-.68,1.47.78,2.95,1.56,4.45,2.31,1.41.7,2.9.81,4.36.19,7.58-3.18,17.32,1.42,19.72,10.83,1.34,5.26,1.74,10.49-.19,15.67-2.84,7.67-12.05,12.95-19.48,11.06-2.38-.61-4.65-1.72-6.92-2.73-3.61-1.61-7.32-2.69-11.2-1.3-2.4.86-4.65,2.15-6.96,3.26-.3.14-.58.33-1.01.59Z"/>
          <path class="cls-5" d="M26.71,24.14c.88-.87,1.63-1.67,2.43-2.4,1.2-1.08,2.57-1.48,4.08-.71,1.46.75,2.07,2.01,2.07,3.64,0,1.56-.05,3.15.19,4.69.29,1.9,1.39,2.65,3.33,2.5.86-.07,1.46.16,1.69,1.03.35,1.29,1.18,1.38,2.33.88.62,1.43,1.59,1.39,2.77.65,1.11-.69,2.07-.78,2.9.6.64,1.07,1.61,1.06,2.59.24.67-.56,1.28-1.2,1.95-1.76,1.01-.84,2.22-1.28,3.49-.89,9.55,2.92,18.09-4.94,20.32-13.15,2.03-7.5.77-14.51-3.56-20.89-3.62-5.34-8.93-7.25-15.19-6.67-6.73.62-12.71,3.02-17.16,8.29-1.66,1.97-3.44,3.15-5.37,3.6-2.55.59-4.1-1.49-6.5-.9-1.86.46-3.08,2.04-3.82,3.31.48,5.99.96,11.98,1.44,17.97Z"/>
          <path class="cls-5" d="M36.41,61.72c.95-.94,1.76-1.81,2.63-2.6,1.29-1.17,2.77-1.6,4.41-.77,1.58.81,2.23,2.17,2.23,3.93,0,1.69-.05,3.4.2,5.06.32,2.06,1.51,2.86,3.6,2.7.93-.07,1.58.17,1.83,1.11.38,1.4,1.28,1.49,2.52.95.67,1.55,1.72,1.5,3,.71,1.19-.74,2.24-.84,3.13.64.69,1.15,1.74,1.15,2.8.26.72-.61,1.38-1.3,2.11-1.9,1.1-.91,2.4-1.39,3.77-.96,10.31,3.15,19.55-5.33,21.95-14.21,2.2-8.1.83-15.68-3.84-22.57-3.91-5.77-9.65-7.83-16.41-7.21-7.27.67-13.73,3.26-18.54,8.96-3.63,4.31-7.8,5.15-12.82,2.92-2.49-1.11-5.04-2.1-7.73-3.21,1.73,8.76,3.42,17.36,5.16,26.2Z"/>
          <path class="cls-3" d="M44.12-3.37c1.02,6.47,2.01,12.77,2.96,18.8,1.86.36,3.58.59,5.25,1.05,1.59.44,2.42,1.67,2.64,3.3.21,1.53.37,3.07.68,4.58.56,2.69,1.89,3.53,4.55,2.87,1.14-.29,2.11-.49,3.03.58.2.23,1.09-.13,1.89-.26.38.61,1.25.53,2.11.06,1.17-.64,2.04-.33,2.74.73.21.32.46.62.71.91.67.78,1.35.8,2.07.05,1.16-1.2,2.33-2.4,3.53-3.56,1.13-1.1,2.52-1.66,4.09-1.52,8.19.7,16.05-6.67,15.44-16.36-.29-4.62-.41-11.58-4.99-14.86-3.37-2.42-5.02-.19-14.03-3.09-3.63-1.17-5.41-2.19-7.91-1.45-2.36.7-2.57,1.88-5.75,4.72-2.95,2.64-6.14,4.81-10.26,4.68-2.55-.08-5.08-.62-7.62-.96-.33-.04-.65-.14-1.15-.25Z"/>
          <path class="cls-3" d="M61.41,130.66c.79-2.02,1.41-3.81,2.18-5.56,1.14-2.58,3.04-4.28,5.99-4.32,2.85-.04,4.7,1.37,5.84,3.82,1.1,2.35,2.13,4.78,3.59,6.9,1.8,2.63,4.07,2.87,7.05,1.1,1.33-.79,2.43-.92,3.42.2,1.46,1.67,2.85,1.14,4.32-.54,2,1.66,3.5.82,4.87-1.23,1.28-1.91,2.74-2.82,5.02-1.41,1.77,1.09,3.31.31,4.29-1.71.67-1.38,1.19-2.83,1.87-4.21,1.02-2.08,2.63-3.7,4.93-4.13,17.22-3.22,25.29-21.86,23.07-35.99-2.03-12.91-8.97-22.44-20.33-28.59-9.5-5.14-19.29-3.78-28.83,2.08-10.26,6.3-18.09,14.68-21.45,26.16-2.54,8.68-8.12,12.93-16.97,13.53-4.39.3-8.78.8-13.47,1.24,8.24,10.93,16.32,21.65,24.62,32.67Z"/>
          <path class="cls-3" d="M-1.37,34.97c4.88-7.63,9.65-15.09,14.46-22.62,1.08.78,2.06,1.55,3.1,2.22,1.74,1.11,3.16.98,4.54-.53,1-1.1,1.83-2.36,2.7-3.57,2.19-3.09,5.03-3.25,7.6-.48.33.36.96.63,1.44.62,1.43-.03,1.43-.09,2.28,1.02,1.16-.68,2.09-.42,2.75.77.51.93,1.17.85,1.91.29.23-.17.45-.36.68-.53,1.64-1.22,2.72-.97,3.53.86.8,1.81,1.58,3.63,2.29,5.47.56,1.46,1.4,2.48,2.87,3.22,7.19,3.58,10.95,10.78,9.5,18.72-1.53,8.39-5.77,15.15-13.51,19.14-9.94,5.14-21.61-.13-25.29-7.33-1.01-1.97-2.33-3.78-3.44-5.69-2.82-4.86-6.97-8.03-12.26-9.8-1.68-.56-3.36-1.16-5.14-1.78Z"/>
          <path class="cls-5" d="M17.39,96.56c.35,1.25.61,2.36.96,3.44.53,1.6,1.56,2.67,3.33,2.76,1.72.08,2.91-.75,3.76-2.23.81-1.42,1.59-2.88,2.6-4.15,1.25-1.57,2.63-1.68,4.32-.54.75.51,1.41.61,2.07-.06.98-.99,1.79-.64,2.57.41,1.31-.98,2.16-.44,2.85.84.65,1.19,1.47,1.78,2.93.96,1.13-.63,2.01-.13,2.48,1.13.32.86.54,1.75.86,2.61.48,1.29,1.35,2.31,2.7,2.62,10.17,2.3,13.85,13.84,11.61,22.44-2.04,7.85-6.81,13.55-14.04,17.1-6.04,2.97-11.85,1.95-17.22-1.82-5.78-4.05-9.96-9.32-11.26-16.4-.98-5.35-4.08-8.06-9.36-8.59-2.63-.26-5.24-.65-8.03-1.01l16.88-19.51Z"/>
          <path class="cls-5" d="M12.53,82.67c-.56-1.21-1.09-2.26-1.53-3.35-.65-1.61-.55-3.14.79-4.38,1.3-1.2,2.79-1.34,4.44-.74,1.58.58,3.16,1.21,4.8,1.54,2.03.41,3.19-.43,3.75-2.44.25-.9.7-1.41,1.67-1.33,1.43.13,1.83-.68,1.75-2.03,1.68-.1,1.99-1.09,1.69-2.56-.28-1.37-.02-2.38,1.67-2.7,1.31-.25,1.67-1.24,1.2-2.53-.32-.89-.74-1.73-1.06-2.62-.48-1.34-.47-2.71.39-3.86,6.47-8.56,1.71-20.09-5.76-25.38-6.82-4.83-14.36-6.14-22.4-4.13-6.73,1.68-10.62,6.34-12.35,12.87-1.86,7.02-1.66,13.95,2.02,20.38,2.78,4.87,2.15,9.05-1.66,12.98-1.89,1.95-3.69,3.99-5.65,6.13,8.78,1.39,17.39,2.75,26.24,4.15Z"/>
          <path class="cls-4" d="M11.12,106.69c.93-10.06,1.84-19.85,2.71-29.22,2.82-.74,5.46-1.26,7.98-2.13,2.41-.83,3.56-2.8,3.75-5.34.17-2.37.27-4.76.6-7.11.6-4.2,2.56-5.63,6.72-4.86,1.2.22,2.27.39,3.24-.04.85-.38.9-1.11,1.37-1.14.53-.03,1.29.75,2.35,4.07-.22-2.88.32-5.11,1.48-5.49.37-.12.75-.04.97,0,1.48.3,1.87,1.8,3.09,1.77.27,0,.46-.09.58-.13.22-.08.74-.33,1.44-1.91,1.13-2.53.76-4.04,1.86-4.65.45-.25.91-.21,1.2-.19,1.34.11,2.24,1.28,3.12,2.5,2.92,4.06,2.68,4.66,4.2,5.94,1.72,1.46,3.38,1.82,3.8,1.9.84.16,1.73.18,2.65.04,12.54-1.88,25.35,8.7,25.37,23.66.01,8.37-1.38,16.33-6.22,23.36-7.15,10.38-22.92,14.79-33.32,9.14-3.33-1.81-6.3-4.34-9.31-6.71-4.79-3.77-9.92-6.8-16.24-6.2-3.91.37-7.76,1.45-11.63,2.23-.5.1-.99.28-1.74.5Z"/>
          <path class="cls-3" d="M-28.07,123.82c-.44-11.86-.88-23.71-1.32-35.57,1.74,2.01,3.11,3.7,4.03,4.88,1.7,2.15,2.61,3.45,3.38,3.23.56-.16.85-1.03,1.03-2.14.24-1.47.25-2.97.31-4.46.15-3.78,2.45-5.47,6.11-4.54.47.12,1.15,0,1.55-.26,1.18-.81,1.15-.86,2.47-.38.6-1.21,1.53-1.49,2.72-.85.94.5,1.45.07,1.76-.79.1-.27.18-.55.28-.82.71-1.92,1.75-2.3,3.43-1.2,1.65,1.08,3.3,2.18,4.9,3.34,1.26.92,2.52,1.32,4.16,1.13,7.98-.91,15.06,3.07,18.17,10.53,3.29,7.87,3.41,15.85-.9,23.42-5.54,9.72-18.19,11.67-25.21,7.63-1.92-1.1-4.01-1.9-5.98-2.9-5.01-2.54-10.22-2.93-15.62-1.54-1.72.44-3.45.86-5.28,1.31Z"/>
          <path class="cls-4" d="M-38.75,56.04c4.53-4.59,9.06-9.18,13.58-13.76,2.07,1.44,3.9,2.88,5.89,4.05,1.9,1.12,3.84.77,5.6-.54,1.65-1.22,3.26-2.5,4.98-3.6,3.08-1.97,5.12-1.48,6.97,1.69.8,1.36,1.51,2.48,3.37,2.37.4-.02.89,1.16,1.52,2.05.93-.2,1.67.71,2.03,1.96.49,1.71,1.58,2.26,3.24,1.94.5-.1,1.02-.13,1.53-.16,1.36-.08,2.01.55,1.98,1.94-.05,2.23-.1,4.46-.09,6.68.01,2.11.78,3.95,2.37,5.33,8.31,7.19,8.65,21.56-1.1,29.98-5.46,4.71-11.44,8.27-18.75,9.03-12.15,1.26-21.44-9.23-24.78-16.78-2.23-5.04-3.11-10.55-3.11-10.55-1.07-6.77.05-10.56-2.91-13.5-1.4-1.4-3.08-1.96-3.5-3.87-.36-1.63.45-3.21,1.17-4.27Z"/>
          <path class="cls-5" d="M130.11,30.39c.41.97,1.19,3.18.61,5.82-.6,2.73-2.33,4.45-3.06,5.18-2.03,2.02-3.37,1.86-5.31,4.02-.24.27-.7.81-1.5,1.15-.83.35-1.78.38-2.81.14-1.64-.38-3.29-.81-4.96-.93-2.06-.15-3.11.82-3.42,2.89-.14.92-.52,1.49-1.49,1.53-1.44.05-1.73.91-1.48,2.23-1.65.31-1.84,1.33-1.35,2.75.45,1.32.32,2.35-1.32,2.89-1.27.41-1.5,1.43-.87,2.66.43.84.95,1.63,1.38,2.47.64,1.27.81,2.63.09,3.87-5.35,9.3.82,20.14,8.89,24.46,7.37,3.94,15.02,4.3,22.74,1.3,6.46-2.51,9.74-7.61,10.64-14.31.97-7.2-.1-14.04-4.56-19.97-1.66-2.21-2.48-4.36-2.48-6.5,0-2.46,1.77-3.49,2.51-6.59.58-2.4.31-4.51.03-5.85-4.09-3.07-8.19-6.14-12.28-9.21Z"/>
          <path class="cls-4" d="M28.53,13.07"/>
        </g>
        <g>
          <path class="cls-5" d="M-4.56,94.72c.58.85,1.13,1.57,1.6,2.34.7,1.13.78,2.28-.19,3.32-.93,1.01-2.13,1.25-3.54.95-1.35-.28-2.71-.61-4.08-.71-1.7-.12-2.55.61-2.8,2.15-.11.69-.42,1.11-1.22,1.14-1.18.04-1.42.67-1.21,1.66-1.36.23-1.51.99-1.11,2.05.37.99.26,1.76-1.08,2.15-1.04.31-1.23,1.07-.71,1.98.36.63.79,1.22,1.14,1.84.53.95.67,1.97.09,2.89-4.38,6.92.72,15.03,7.37,18.26,6.07,2.95,12.36,3.24,18.7,1.03,5.31-1.85,7.99-5.66,8.72-10.65.78-5.37-.12-10.48-3.79-14.91-2.78-3.35-2.7-6.5,0-9.76,1.34-1.62,2.59-3.29,3.96-5.05l-21.83-.69Z"/>
          <path class="cls-4" d="M-43.75-5.48c-2.58,8.31-5.09,16.4-7.5,24.14,2,1.52,3.93,2.8,5.64,4.33,1.64,1.46,1.91,3.4,1.22,5.49-.65,1.95-1.36,3.88-1.87,5.86-.91,3.54.18,5.32,3.74,6.09,1.53.33,2.81.66,3.27,2.46.1.39,1.37.48,2.4.8.1.95,1.18,1.36,2.48,1.31,1.77-.07,2.62.79,2.84,2.47.06.51.19,1.01.32,1.5.34,1.32,1.14,1.74,2.44,1.27,2.09-.75,4.18-1.49,6.29-2.18,1.99-.65,3.97-.5,5.77.58,9.35,5.64,23.04,1.45,28-10.45,2.77-6.66,4.3-13.45,2.76-20.64C11.8,6.94.71-1.78-9.42-.72c-3.25.34-6.45,1.37-9.62,2.26-5.06,1.42-10.14,2.13-14.97-.44-2.99-1.59-5.69-3.72-8.52-5.62-.37-.25-.69-.55-1.22-.97Z"/>
          <path class="cls-3" d="M-18.54,59.41c-1.02-6.47-2.01-12.77-2.96-18.8,1.66-.91,3.23-1.66,4.67-2.61,1.38-.91,1.79-2.33,1.5-3.95-.27-1.52-.59-3.03-.75-4.57-.29-2.74.71-3.94,3.45-4.13,1.18-.08,2.16-.18,2.71-1.48.12-.28,1.07-.21,1.88-.33.18-.7,1.03-.89,1.99-.71,1.31.25,2.04-.31,2.38-1.53.1-.37.25-.73.4-1.08.4-.95,1.04-1.17,1.95-.68,1.47.78,2.95,1.56,4.45,2.31,1.41.7,2.9.81,4.36.19,7.58-3.18,17.32,1.42,19.72,10.83,1.34,5.26,1.74,10.49-.19,15.67-2.84,7.67-12.05,12.95-19.48,11.06-2.38-.61-4.65-1.72-6.92-2.73-3.61-1.61-7.32-2.69-11.2-1.3-2.4.86-4.65,2.15-6.96,3.26-.3.14-.58.33-1.01.59Z"/>
          <path class="cls-3" d="M-45.81,130.66c.79-2.02,1.41-3.81,2.18-5.56,1.14-2.58,3.04-4.28,5.99-4.32,2.85-.04,4.7,1.37,5.84,3.82,1.1,2.35,2.13,4.78,3.59,6.9,1.8,2.63,4.07,2.87,7.05,1.1,1.33-.79,2.43-.92,3.42.2,1.46,1.67,2.85,1.14,4.32-.54,2,1.66,3.5.82,4.87-1.23,1.28-1.91,2.74-2.82,5.02-1.41,1.77,1.09,3.31.31,4.29-1.71.67-1.38,1.19-2.83,1.87-4.21,1.02-2.08,2.63-3.7,4.93-4.13,17.22-3.22,25.29-21.86,23.07-35.99-2.03-12.91-8.97-22.44-20.33-28.59-9.5-5.14-19.29-3.78-28.83,2.08-10.26,6.3-18.09,14.68-21.45,26.16-2.54,8.68-8.12,12.93-16.97,13.53-4.39.3-8.78.8-13.47,1.24,8.24,10.93,16.32,21.65,24.62,32.67Z"/>
          <path class="cls-5" d="M22.89,30.39c.41.97,1.19,3.18.61,5.82-.6,2.73-2.33,4.45-3.06,5.18-2.03,2.02-3.37,1.86-5.31,4.02-.24.27-.7.81-1.5,1.15-.83.35-1.78.38-2.81.14-1.64-.38-3.29-.81-4.96-.93-2.06-.15-3.11.82-3.42,2.89-.14.92-.52,1.49-1.49,1.53-1.44.05-1.73.91-1.48,2.23-1.65.31-1.84,1.33-1.35,2.75.45,1.32.32,2.35-1.32,2.89-1.27.41-1.5,1.43-.87,2.66.43.84.95,1.63,1.38,2.47.64,1.27.81,2.63.09,3.87-5.35,9.3.82,20.14,8.89,24.46,7.37,3.94,15.02,4.3,22.74,1.3,6.46-2.51,9.74-7.61,10.64-14.31.97-7.2-.1-14.04-4.56-19.97-1.66-2.21-2.48-4.36-2.48-6.5,0-2.46,1.77-3.49,2.51-6.59.58-2.4.31-4.51.03-5.85-4.09-3.07-8.19-6.14-12.28-9.21Z"/>
        </g>
        <g>
          <path class="cls-3" d="M83.56,82.99c-1.05-6.67-2.07-13.15-3.04-19.36,1.65-.93,3.23-1.69,4.67-2.66,1.38-.93,1.78-2.39,1.49-4.06-.28-1.56-.6-3.13-.78-4.7-.31-2.82.69-4.06,3.43-4.23,1.18-.08,2.16-.18,2.7-1.51.12-.29,1.07-.21,1.88-.33.18-.72,1.02-.91,1.99-.72,1.31.26,2.04-.31,2.38-1.57.1-.38.25-.75.4-1.11.39-.97,1.03-1.2,1.95-.69,1.48.81,2.96,1.62,4.46,2.39,1.42.73,2.91.84,4.37.22,7.57-3.24,17.34,1.55,19.78,11.23,1.37,5.42,1.79,10.8-.12,16.13-2.81,7.88-12,13.28-19.45,11.29-2.39-.64-4.66-1.8-6.94-2.84-3.62-1.67-7.34-2.8-11.21-1.39-2.4.87-4.64,2.19-6.95,3.32-.3.15-.58.34-1.01.6Z"/>
          <path class="cls-5" d="M90.02-10.2c.95-.94,1.76-1.81,2.63-2.6,1.29-1.17,2.77-1.6,4.41-.77,1.58.81,2.23,2.17,2.23,3.93,0,1.69-.05,3.4.2,5.06.32,2.06,1.51,2.86,3.6,2.7.93-.07,1.58.17,1.83,1.11.38,1.4,1.28,1.49,2.52.95.67,1.55,1.72,1.5,3,.71,1.19-.74,2.24-.84,3.13.64.69,1.15,1.74,1.15,2.8.26.72-.61,1.38-1.3,2.11-1.9,1.1-.91,2.4-1.39,3.77-.96,10.31,3.15,19.55-5.33,21.95-14.21,2.2-8.1.83-15.68-3.84-22.57-3.91-5.77-9.65-7.83-16.41-7.21-7.27.67-13.73,3.26-18.54,8.96-3.63,4.31-7.8,5.15-12.82,2.92-2.49-1.11-5.04-2.1-7.73-3.21,1.73,8.76,3.42,17.36,5.16,26.2Z"/>
          <path class="cls-3" d="M115.02,58.74c.79-2.02,1.41-3.81,2.18-5.56,1.14-2.58,3.04-4.28,5.99-4.32,2.85-.04,4.7,1.37,5.84,3.82,1.1,2.35,2.13,4.78,3.59,6.9,1.8,2.63,4.07,2.87,7.05,1.1,1.33-.79,2.43-.92,3.42.2,1.46,1.67,2.85,1.14,4.32-.54,2,1.66,3.5.82,4.87-1.23,1.28-1.91,2.74-2.82,5.02-1.41,1.77,1.09,3.31.31,4.29-1.71.67-1.38,1.19-2.83,1.87-4.21,1.02-2.08,2.63-3.7,4.93-4.13,17.22-3.22,25.29-21.86,23.07-35.99-2.03-12.91-8.97-22.44-20.33-28.59-9.5-5.14-19.29-3.78-28.83,2.08-10.26,6.3-18.09,14.68-21.45,26.16-2.54,8.68-8.12,12.93-16.97,13.53-4.39.3-8.78.8-13.47,1.24,8.24,10.93,16.32,21.65,24.62,32.67Z"/>
          <path class="cls-5" d="M71,24.64c.35,1.25.61,2.36.96,3.44.53,1.6,1.56,2.67,3.33,2.76,1.72.08,2.91-.75,3.76-2.23.81-1.42,1.59-2.88,2.6-4.15,1.25-1.57,2.63-1.68,4.32-.54.75.51,1.41.61,2.07-.06.98-.99,1.79-.64,2.57.41,1.31-.98,2.16-.44,2.85.84.65,1.19,1.47,1.78,2.93.96,1.13-.63,2.01-.13,2.48,1.13.32.86.54,1.75.86,2.61.48,1.29,1.35,2.31,2.7,2.62,10.17,2.3,13.85,13.84,11.61,22.44-2.04,7.85-6.81,13.55-14.04,17.1-6.04,2.97-11.85,1.95-17.22-1.82-5.78-4.05-9.96-9.32-11.26-16.4-.98-5.35-4.08-8.06-9.36-8.59-2.63-.26-5.24-.65-8.03-1.01,5.65-6.53,11.19-12.93,16.88-19.51Z"/>
          <path class="cls-5" d="M66.14,10.75c-.56-1.21-1.09-2.26-1.53-3.35-.65-1.61-.55-3.14.79-4.38,1.3-1.2,2.79-1.34,4.44-.74,1.58.58,3.16,1.21,4.8,1.54,2.03.41,3.19-.43,3.75-2.44.25-.9.7-1.41,1.67-1.33,1.43.13,1.83-.68,1.75-2.03,1.68-.1,1.99-1.09,1.69-2.56-.28-1.37-.02-2.38,1.67-2.7,1.31-.25,1.67-1.24,1.2-2.53-.32-.89-.74-1.73-1.06-2.62-.48-1.34-.47-2.71.39-3.86,6.47-8.56,1.71-20.09-5.76-25.38-6.82-4.83-14.36-6.14-22.4-4.13-6.73,1.68-10.62,6.34-12.35,12.87-1.86,7.02-1.66,13.95,2.02,20.38,2.78,4.87,2.15,9.05-1.66,12.98-1.89,1.95-3.69,3.99-5.65,6.13,8.78,1.39,17.39,2.75,26.24,4.15Z"/>
          <path class="cls-4" d="M64.73,34.77c.93-10.06,1.84-19.85,2.71-29.22,2.82-.74,5.46-1.26,7.98-2.13,2.41-.83,3.56-2.8,3.75-5.34.17-2.37.27-4.76.6-7.11.6-4.2,2.56-5.63,6.72-4.86,1.2.22,2.27.39,3.24-.04.85-.38.9-1.11,1.37-1.14.53-.03,1.29.75,2.35,4.07-.22-2.88.32-5.11,1.48-5.49.37-.12.75-.04.97,0,1.48.3,1.87,1.8,3.09,1.77.27,0,.46-.09.58-.13.22-.08.74-.33,1.44-1.91,1.13-2.53.76-4.04,1.86-4.65.45-.25.91-.21,1.2-.19,1.34.11,2.24,1.28,3.12,2.5,2.92,4.06,2.68,4.66,4.2,5.94,1.72,1.46,3.38,1.82,3.8,1.9.84.16,1.73.18,2.65.04,12.54-1.88,25.35,8.7,25.37,23.66.01,8.37-1.38,16.33-6.22,23.36-7.15,10.38-22.92,14.79-33.32,9.14-3.33-1.81-6.3-4.34-9.31-6.71-4.79-3.77-9.92-6.8-16.24-6.2-3.91.37-7.76,1.45-11.63,2.23-.5.1-.99.28-1.74.5Z"/>
          <path class="cls-3" d="M25.54,51.9c-.44-11.86-.88-23.71-1.32-35.57,1.74,2.01,3.11,3.7,4.03,4.88,1.7,2.15,2.61,3.45,3.38,3.23.56-.16.85-1.03,1.03-2.14.24-1.47.25-2.97.31-4.46.15-3.78,2.45-5.47,6.11-4.54.47.12,1.15,0,1.55-.26,1.18-.81,1.15-.86,2.47-.38.6-1.21,1.53-1.49,2.72-.85.94.5,1.45.07,1.76-.79.1-.27.18-.55.28-.82.71-1.92,1.75-2.3,3.43-1.2,1.65,1.08,3.3,2.18,4.9,3.34,1.26.92,2.52,1.32,4.16,1.13,7.98-.91,15.06,3.07,18.17,10.53,3.29,7.87,3.41,15.85-.9,23.42-5.54,9.72-18.19,11.67-25.21,7.63-1.92-1.1-4.01-1.9-5.98-2.9-5.01-2.54-10.22-2.93-15.62-1.54-1.72.44-3.45.86-5.28,1.31Z"/>
          <path class="cls-4" d="M14.86-15.88c4.53-4.59,9.06-9.18,13.58-13.76,2.07,1.44,3.9,2.88,5.89,4.05,1.9,1.12,3.84.77,5.6-.54,1.65-1.22,3.26-2.5,4.98-3.6,3.08-1.97,5.12-1.48,6.97,1.69.8,1.36,1.51,2.48,3.37,2.37.4-.02.89,1.16,1.52,2.05.93-.2,1.67.71,2.03,1.96.49,1.71,1.58,2.26,3.24,1.94.5-.1,1.02-.13,1.53-.16,1.36-.08,2.01.55,1.98,1.94-.05,2.23-.1,4.46-.09,6.68.01,2.11.78,3.95,2.37,5.33,8.31,7.19,8.65,21.56-1.1,29.98-5.46,4.71-11.44,8.27-18.75,9.03-12.15,1.26-21.44-9.23-24.78-16.78-2.23-5.04-3.11-10.55-3.11-10.55-1.07-6.77.05-10.56-2.91-13.5-1.4-1.4-3.08-1.96-3.5-3.87-.36-1.63.45-3.21,1.17-4.27Z"/>
        </g>
        <g>
          <path class="cls-5" d="M49.05,22.8c.58.85,1.13,1.57,1.6,2.34.7,1.13.78,2.28-.19,3.32-.93,1.01-2.13,1.25-3.54.95-1.35-.28-2.71-.61-4.08-.71-1.7-.12-2.55.61-2.8,2.15-.11.69-.42,1.11-1.22,1.14-1.18.04-1.42.67-1.21,1.66-1.36.23-1.51.99-1.11,2.05.37.99.26,1.76-1.08,2.15-1.04.31-1.23,1.07-.71,1.98.36.63.79,1.22,1.14,1.84.53.95.67,1.97.09,2.89-4.38,6.92.72,15.03,7.37,18.26,6.07,2.95,12.36,3.24,18.7,1.03,5.31-1.85,7.99-5.66,8.72-10.65.78-5.37-.12-10.48-3.79-14.91-2.78-3.35-2.7-6.5,0-9.76,1.34-1.62,2.59-3.29,3.96-5.05l-21.83-.69Z"/>
          <path class="cls-3" d="M-23.66,82.99c-1.05-6.67-2.07-13.15-3.04-19.36,1.65-.93,3.23-1.69,4.67-2.66,1.38-.93,1.78-2.39,1.49-4.06-.28-1.56-.6-3.13-.78-4.7-.31-2.82.69-4.06,3.43-4.23,1.18-.08,2.16-.18,2.7-1.51.12-.29,1.07-.21,1.88-.33.18-.72,1.02-.91,1.99-.72,1.31.26,2.04-.31,2.38-1.57.1-.38.25-.75.4-1.11.39-.97,1.03-1.2,1.95-.69,1.48.81,2.96,1.62,4.46,2.39,1.42.73,2.91.84,4.37.22,7.57-3.24,17.34,1.55,19.78,11.23,1.37,5.42,1.79,10.8-.12,16.13-2.81,7.88-12,13.28-19.45,11.29-2.39-.64-4.66-1.8-6.94-2.84-3.62-1.67-7.34-2.8-11.21-1.39-2.4.87-4.64,2.19-6.95,3.32-.3.15-.58.34-1.01.6Z"/>
          <path class="cls-5" d="M-17.2-10.2c.95-.94,1.76-1.81,2.63-2.6,1.29-1.17,2.77-1.6,4.41-.77,1.58.81,2.23,2.17,2.23,3.93,0,1.69-.05,3.4.2,5.06.32,2.06,1.51,2.86,3.6,2.7.93-.07,1.58.17,1.83,1.11C-1.91.64-1.01.73.23.19c.67,1.55,1.72,1.5,3,.71C4.42.15,5.46.06,6.35,1.54c.69,1.15,1.74,1.15,2.8.26.72-.61,1.38-1.3,2.11-1.9,1.1-.91,2.4-1.39,3.77-.96,10.31,3.15,19.55-5.33,21.95-14.21,2.2-8.1.83-15.68-3.84-22.57-3.91-5.77-9.65-7.83-16.41-7.21-7.27.67-13.73,3.26-18.54,8.96-3.63,4.31-7.8,5.15-12.82,2.92-2.49-1.11-5.04-2.1-7.73-3.21,1.73,8.76,3.42,17.36,5.16,26.2Z"/>
          <path class="cls-3" d="M7.8,58.74c.79-2.02,1.41-3.81,2.18-5.56,1.14-2.58,3.04-4.28,5.99-4.32,2.85-.04,4.7,1.37,5.84,3.82,1.1,2.35,2.13,4.78,3.59,6.9,1.8,2.63,4.07,2.87,7.05,1.1,1.33-.79,2.43-.92,3.42.2,1.46,1.67,2.85,1.14,4.32-.54,2,1.66,3.5.82,4.87-1.23,1.28-1.91,2.74-2.82,5.02-1.41,1.77,1.09,3.31.31,4.29-1.71.67-1.38,1.19-2.83,1.87-4.21,1.02-2.08,2.63-3.7,4.93-4.13,17.22-3.22,25.29-21.86,23.07-35.99-2.03-12.91-8.97-22.44-20.33-28.59-9.5-5.14-19.29-3.78-28.83,2.08C24.81-8.54,16.98-.17,13.62,11.31c-2.54,8.68-8.12,12.93-16.97,13.53-4.39.3-8.78.8-13.47,1.24C-8.59,37-.51,47.72,7.8,58.74Z"/>
          <path class="cls-5" d="M-36.22,24.64c.35,1.25.61,2.36.96,3.44.53,1.6,1.56,2.67,3.33,2.76,1.72.08,2.91-.75,3.76-2.23.81-1.42,1.59-2.88,2.6-4.15,1.25-1.57,2.63-1.68,4.32-.54.75.51,1.41.61,2.07-.06.98-.99,1.79-.64,2.57.41,1.31-.98,2.16-.44,2.85.84.65,1.19,1.47,1.78,2.93.96,1.13-.63,2.01-.13,2.48,1.13.32.86.54,1.75.86,2.61.48,1.29,1.35,2.31,2.7,2.62,10.17,2.3,13.85,13.84,11.61,22.44C4.78,62.72,0,68.42-7.23,71.96c-6.04,2.97-11.85,1.95-17.22-1.82-5.78-4.05-9.96-9.32-11.26-16.4-.98-5.35-4.08-8.06-9.36-8.59-2.63-.26-5.24-.65-8.03-1.01,5.65-6.53,11.19-12.93,16.88-19.51Z"/>
          <path class="cls-4" d="M-42.49,34.77c.93-10.06,1.84-19.85,2.71-29.22,2.82-.74,5.46-1.26,7.98-2.13,2.41-.83,3.56-2.8,3.75-5.34.17-2.37.27-4.76.6-7.11.6-4.2,2.56-5.63,6.72-4.86,1.2.22,2.27.39,3.24-.04.85-.38.9-1.11,1.37-1.14.53-.03,1.29.75,2.35,4.07-.22-2.88.32-5.11,1.48-5.49.37-.12.75-.04.97,0,1.48.3,1.87,1.8,3.09,1.77.27,0,.46-.09.58-.13.22-.08.74-.33,1.44-1.91,1.13-2.53.76-4.04,1.86-4.65.45-.25.91-.21,1.2-.19,1.34.11,2.24,1.28,3.12,2.5,2.92,4.06,2.68,4.66,4.2,5.94,1.72,1.46,3.38,1.82,3.8,1.9.84.16,1.73.18,2.65.04,12.54-1.88,25.35,8.7,25.37,23.66.01,8.37-1.38,16.33-6.22,23.36-7.15,10.38-22.92,14.79-33.32,9.14-3.33-1.81-6.3-4.34-9.31-6.71-4.79-3.77-9.92-6.8-16.24-6.2-3.91.37-7.76,1.45-11.63,2.23-.5.1-.99.28-1.74.5Z"/>
          <path class="cls-5" d="M76.5-41.53c.41.97,1.19,3.18.61,5.82-.6,2.73-2.33,4.45-3.06,5.18-2.03,2.02-3.37,1.86-5.31,4.02-.24.27-.7.81-1.5,1.15-.83.35-1.78.38-2.81.14-1.64-.38-3.29-.81-4.96-.93-2.06-.15-3.11.82-3.42,2.89-.14.92-.52,1.49-1.49,1.53-1.44.05-1.73.91-1.48,2.23-1.65.31-1.84,1.33-1.35,2.75.45,1.32.32,2.35-1.32,2.89-1.27.41-1.5,1.43-.87,2.66.43.84.95,1.63,1.38,2.47.64,1.27.81,2.63.09,3.87-5.35,9.3.82,20.14,8.89,24.46,7.37,3.94,15.02,4.3,22.74,1.3,6.46-2.51,9.74-7.61,10.64-14.31.97-7.2-.1-14.04-4.56-19.97-1.66-2.21-2.48-4.36-2.48-6.5,0-2.46,1.77-3.49,2.51-6.59.58-2.4.31-4.51.03-5.85-4.09-3.07-8.19-6.14-12.28-9.21Z"/>
        </g>
        <g>
          <path class="cls-3" d="M29.95,11.07c-1.05-6.67-2.07-13.15-3.04-19.36,1.65-.93,3.23-1.69,4.67-2.66,1.38-.93,1.78-2.39,1.49-4.06-.28-1.56-.6-3.13-.78-4.7-.31-2.82.69-4.06,3.43-4.23,1.18-.08,2.16-.18,2.7-1.51.12-.29,1.07-.21,1.88-.33.18-.72,1.02-.91,1.99-.72,1.31.26,2.04-.31,2.38-1.57.1-.38.25-.75.4-1.11.39-.97,1.03-1.2,1.95-.69,1.48.81,2.96,1.62,4.46,2.39,1.42.73,2.91.84,4.37.22,7.57-3.24,17.34,1.55,19.78,11.23,1.37,5.42,1.79,10.8-.12,16.13-2.81,7.88-12,13.28-19.45,11.29-2.39-.64-4.66-1.8-6.94-2.84-3.62-1.67-7.34-2.8-11.21-1.39-2.4.87-4.64,2.19-6.95,3.32-.3.15-.58.34-1.01.6Z"/>
          <path class="cls-5" d="M17.39-47.28c.35,1.25.61,2.36.96,3.44.53,1.6,1.56,2.67,3.33,2.76,1.72.08,2.91-.75,3.76-2.23.81-1.42,1.59-2.88,2.6-4.15,1.25-1.57,2.63-1.68,4.32-.54.75.51,1.41.61,2.07-.06.98-.99,1.79-.64,2.57.41,1.31-.98,2.16-.44,2.85.84.65,1.19,1.47,1.78,2.93.96,1.13-.63,2.01-.13,2.48,1.13.32.86.54,1.75.86,2.61.48,1.29,1.35,2.31,2.7,2.62,10.17,2.3,13.85,13.84,11.61,22.44C58.39-9.2,53.61-3.5,46.38.04c-6.04,2.97-11.85,1.95-17.22-1.82-5.78-4.05-9.96-9.32-11.26-16.4-.98-5.35-4.08-8.06-9.36-8.59-2.63-.26-5.24-.65-8.03-1.01l16.88-19.51Z"/>
        </g>
      </g>
    </pattern>
  </defs>
  <g id="Layer_2-2" data-name="Layer 2">
    <polygon class="cls-1" points="0 611.24 0 0 846.33 0 846.33 611.24 0 611.24"/>
  </g>
</svg>