<?xml version="1.0" encoding="UTF-8"?>
<svg id="Layer_2" data-name="Layer 2" xmlns="http://www.w3.org/2000/svg" xmlns:xlink="http://www.w3.org/1999/xlink" viewBox="0 0 696.69 814.37">
  <defs>
    <style>
      .cls-1 {
        fill: #fffffd;
      }

      .cls-1, .cls-2, .cls-3, .cls-4, .cls-5, .cls-6, .cls-7, .cls-8, .cls-9, .cls-10, .cls-11, .cls-12 {
        stroke-width: 0px;
      }

      .cls-2 {
        fill: #f8ee53;
      }

      .cls-13 {
        fill: url(#linear-gradient);
        stroke: #fff;
        stroke-miterlimit: 10;
        stroke-width: 15px;
      }

      .cls-3 {
        fill: #c1d83d;
      }

      .cls-4 {
        fill: #fed507;
      }

      .cls-5 {
        fill: #fffef9;
      }

      .cls-6 {
        fill: #1c3664;
      }

      .cls-7 {
        fill: #36c3e3;
      }

      .cls-8 {
        fill: #fffffe;
      }

      .cls-9 {
        fill: #5dcae9;
      }

      .cls-10, .cls-14 {
        fill: #fff;
      }

      .cls-11 {
        fill: #f287b6;
      }

      .cls-12 {
        fill: url(#Orange_Yellow);
      }

      .cls-14 {
        font-family: TCS4MusicBold, 'TCS 4Music Bold';
        font-size: 66.38px;
        stroke: #1c3664;
        stroke-linecap: round;
        stroke-linejoin: round;
        stroke-width: 3px;
      }
    </style>
    <linearGradient id="linear-gradient" x1="423.44" y1="16.36" x2="257.91" y2="670.3" gradientUnits="userSpaceOnUse">
      <stop offset="0" stop-color="#f8ee53"/>
      <stop offset=".33" stop-color="#addd89"/>
      <stop offset=".65" stop-color="#6dcfb9"/>
      <stop offset=".88" stop-color="#45c6d7"/>
      <stop offset=".99" stop-color="#36c3e3"/>
    </linearGradient>
    <linearGradient id="Orange_Yellow" data-name="Orange, Yellow" x1="189.9" y1="342.01" x2="491.04" y2="342.01" gradientUnits="userSpaceOnUse">
      <stop offset="0" stop-color="#fff33b"/>
      <stop offset=".04" stop-color="#fee62d"/>
      <stop offset=".12" stop-color="#fdd51b"/>
      <stop offset=".2" stop-color="#fdca0f"/>
      <stop offset=".28" stop-color="#fdc70c"/>
      <stop offset=".67" stop-color="#f3903f"/>
      <stop offset=".89" stop-color="#ed683c"/>
      <stop offset="1" stop-color="#e93e3a"/>
    </linearGradient>
  </defs>
  <g id="Layer_1-2" data-name="Layer 1">
    <circle class="cls-13" cx="341.21" cy="341.21" r="333.71"/>
    <circle class="cls-11" cx="480.98" cy="530.98" r="32.31"/>
    <circle class="cls-11" cx="479.14" cy="149.65" r="39.91"/>
    <circle class="cls-7" cx="213.95" cy="147.62" r="38.41"/>
    <circle class="cls-2" cx="527.29" cy="270.44" r="25.59"/>
    <circle class="cls-7" cx="171.29" cy="495.37" r="27.1"/>
    <circle class="cls-3" cx="150.54" cy="227.72" r="23.47"/>
    <circle class="cls-11" cx="343.44" cy="587.59" r="28.23"/>
    <circle class="cls-9" cx="561.63" cy="348.03" r="24.25"/>
    <circle class="cls-3" cx="524.49" cy="430.31" r="24.57"/>
    <rect class="cls-4" x="278.37" y="553.36" width="132.43" height="24" rx="12" ry="12"/>
    <rect class="cls-4" x="277.06" y="495.03" width="132.43" height="24" rx="12" ry="12"/>
    <rect class="cls-10" x="274.84" y="480.39" width="132.43" height="24" rx="12" ry="12"/>
    <rect class="cls-4" x="277.45" y="525.59" width="132.43" height="24" rx="12" ry="12"/>
    <rect class="cls-10" x="277.09" y="541.83" width="132.43" height="24" rx="12" ry="12"/>
    <path class="cls-12" d="M190.06,340.08c-3.7-62.86,59.03-149.63,150.49-149.62,90.06,0,151.56,84.14,150.49,149.62-.71,43.12-26.21,91.27-48.24,105.61-2.54,1.65-9.92,6.04-19.2,13.84-18.76,15.78-17.85,22.48-28.32,28.69-12.77,7.58-19.32-.5-54.73,1.48-30.61,1.71-33.21,5.57-44.68,3-19.82-4.44-32.32-20.49-49.37-47.02-36.86-57.33-55.28-86-56.44-105.61Z"/>
    <path class="cls-8" d="M475.85,276.81c25.7,54.6,6.77,125.18-40.06,162.68-3.78,2.83-5.85,7.77-10.99,8.94-.11-1.02-.83-1.67-1.47-1.63-.5.03-.83.47-.91.59,4.83-5.51,10.06-12.17,15.18-20.03,5.38-8.27,9.49-16.13,12.64-23.07,5.01-10.44,10.83-25.75,12.69-44.78,4.45-45.37-12.97-117.91-75.38-140.94-51.36-18.96-107.07,5.26-135.58,40.2-11.35,13.92-17.19,28.06-20.31,37.84-2.88,5.99-3.88,12.75-7.52,18.43-7.25,3.57-11.28,3.49-14.73-7.01-2.03-4.9.14-9.24,1.8-13.65,4.94-18.22,12.76-35.59,24.2-50.72,12.09-22.34,47.92-41.31,71.98-48.73,70.01-23.42,140.89,15.33,168.46,81.89Z"/>
    <rect class="cls-10" x="277.58" y="510.17" width="132.43" height="24" rx="12" ry="12"/>
    <circle class="cls-9" cx="105.88" cy="307.89" r="23.95"/>
    <circle class="cls-3" cx="344.43" cy="98.64" r="25.23"/>
    <circle class="cls-11" cx="109.65" cy="427.72" r="26.91"/>
    <path class="cls-6" d="M509.44,465.98c-22.45-14.37-27.06-33.37-18.51-51.73-4.52-2.63-9.07-5.28-14.34-8.34-.3.57-.66,1.23-1,1.89-9.35,18.01-22.86,32.64-38.14,45.61-12.2,10.35-17.52,23.05-17.24,38.91.4,22.23-.6,44.49.2,66.69.78,21.54-15.27,32.05-30.48,32.77-2.45.12-3.71.67-4.51,3.26-5.65,18.38-21.73,30.53-40.71,31.03-20.11.53-37.19-10.63-44.08-29.23-1.35-3.64-2.9-5.01-6.92-5.34-17.05-1.4-27.73-13.2-27.8-30.26-.11-24.21-.2-48.43-.06-72.64.07-12.15-4.12-22.28-12.97-30.51-4.68-4.35-9.4-8.65-14.55-13.38-6.18,5.09-12.26,10.07-18.31,15.09-5.63,4.66-11.16,9.44-16.86,14.01-2.74,2.2-3.34,4.01-1.63,7.57,10.98,22.84-2.09,48.4-26.59,52.3-14.33,2.28-25.81-3-34.29-14.41-8.48-11.42-10.06-24.02-3.9-37.02,1.59-3.36,1.34-5.22-1.24-7.75-4.01-3.93-7.74-8.19-11.22-12.61-1.72-2.18-3.02-2.5-5.67-1.65-14.06,4.55-28.6-.88-37.52-13.69-8.22-11.81-8.06-27.85.38-38.88,9.23-12.06,25.48-17.67,38.57-12.45,5.22,2.08,9.6,6.21,14.49,9.2,1.47.9,3.67,1.95,5.05,1.48,19.41-6.62,38.73-13.49,58.23-20.36-2.08-8.23-4.62-16.34-6.11-24.63-1.61-8.95-2.38-18.07-3.22-27.14-.25-2.74-.81-3.85-3.84-4.18-14.51-1.55-28.99-3.36-43.45-5.27-3.02-.4-4.18.93-5.54,3.28-7.15,12.3-20.86,18.87-33.94,16.55-13.4-2.38-24.93-13.51-27.62-26.64-4.09-19.94,9.05-38.39,29.46-41.38,18.35-2.69,35.29,11.54,37.21,31.23.06.59.2,1.17.38,2.17,16.01,1.68,31.98,3.36,48.47,5.09,2.02-20.1,7.73-38.68,17.33-56.73-10.53-5.47-20.72-10.75-30.8-15.98-15.26,14.73-30.08,16.95-42.99,6.67-10.78-8.58-13.43-23.98-6.15-35.74,6.84-11.04,22.22-19.11,41.25-9.44,4.3-4.95,8.65-9.96,13.25-15.24-11.89-11.4-18.6-25.05-17.02-41.62,1.26-13.27,7.5-24.27,17.79-32.85,20.89-17.41,48.81-16.12,65.99,3.34,16.77,18.99,18.94,49.38-6.34,71.33,3.92,5.8,7.88,11.65,12.03,17.79,24.58-17.33,51.94-25.39,81.66-27.46v-41.3c-5.28-2.98-10.86-5.24-15.38-8.84-13.68-10.86-17.59-28.13-10.7-44.43,5.91-13.98,22.3-23.2,38.41-21.61,17.61,1.74,30.76,14.24,33.09,30.16,2.79,19.08-7.94,36.71-25.06,42.11-3.37,1.06-4.46,2.37-4.38,5.9.26,11.11.09,22.23.1,33.35,0,1.48.12,2.97.2,4.73,29.41,1.58,55.44,12.04,79.27,28.85,4.4-7.48,8.55-14.52,12.7-21.57-24.08-22.32-20.24-50.59-6.84-67.19,15.26-18.9,39.93-23.51,60.7-11.48,21.6,12.51,28.34,36.14,21.19,56.15-9.39,26.32-30.06,36.36-62.08,30.42-4.63,7.64-9.33,15.4-13.98,23.07,24.66,24.6,28.98,30.9,42.2,61.63,4.46-1.25,8.96-2.52,13.69-3.85-.68-9.18.88-17.49,6.55-24.75,10.29-13.15,30.5-15.37,43.24-4.63,13.53,11.41,15.24,30.66,3.55,43.39-2.25,2.45-2.48,4.28-1.29,7.13,2.05,4.9,3.94,9.9,5.49,14.98,1.01,3.3,2.65,4.28,6.12,4.3,19.04.08,34.59,18.07,31.97,36.67-2.57,18.23-16.3,30.35-34.73,30.25-3.01-.02-4.24.81-5.24,3.51-1.69,4.55-3.68,9.01-5.91,13.32-1.28,2.49-.78,3.92,1.1,5.8,15.86,15.87,15.34,39.45-1.24,54.16-5.94,5.27-12.86,8.5-20.98,9.06-1.54.11-3.55,1.54-4.35,2.93-5.77,10.01-11.18,20.23-16.95,30.24-1.37,2.38-.38,3.52,1.04,5.06,10.03,10.8,12.81,23.48,8.03,37.21-5.05,14.51-15.61,23.43-30.97,25.76-18.88,2.87-37.5-11.35-41.41-31.19-3.59-18.21,8.62-37.63,27.01-41.73,6.06-1.35,12.62-.44,18.95-.65,1.21-.04,3.06-.13,3.52-.87,5.86-9.54,11.51-19.21,17.19-28.8ZM404.49,478.81c1.58-4.96,2.81-9.5,4.48-13.88,3.65-9.6,11.37-15.96,18.41-22.91,8-7.9,16.57-15.44,23.43-24.27,26.63-34.27,33.42-73.39,25.11-115.2-17.4-87.57-123.11-145.3-213.65-83.6-31.77,21.65-50.55,52.24-56.25,90.75-3.84,25.96-1.26,50.96,8.49,75.2,8.65,21.49,22.39,39.32,40.31,53.9,12.39,10.08,21.94,21.95,25.28,37.95.63,3,2.42,2.96,4.64,2.96,15.53-.05,31.06-.07,46.59-.12,1.18,0,2.35-.2,3.72-.33v-79c-5.73-2.41-11.37-4.02-16.18-6.98-8.2-5.05-13.95-12.25-14.75-22.36-.39-4.93,1.86-8.14,5.84-9.07,3.92-.91,7.48,1.02,9.5,5.31.77,1.64,1.39,3.38,1.9,5.13,1.67,5.67,5.58,9.41,11.15,10.24,6.09.91,12.43,1.14,18.57.6,7.05-.62,12.09-4.5,13.84-11.9.48-2.02,1.47-4.02,2.63-5.76,1.91-2.86,4.69-4.52,8.21-3.52,3.71,1.06,6.31,3.72,5.93,7.65-.38,3.84-1.22,7.88-2.93,11.3-4.62,9.24-12.61,14.78-22.38,17.4-3.81,1.02-4.63,2.68-4.6,6.26.17,23.9.14,47.8.18,71.71,0,.73.11,1.46.19,2.57h52.34ZM489.47,293.81c.22,1.38.36,2.57.61,3.74,3.71,16.89,5.83,34,3.17,51.15-2.11,13.59-5.68,26.96-8.83,40.37-.61,2.61-.57,4.1,2.05,5.44,4.99,2.54,9.78,5.44,14.73,8.24,9.81-7.43,20.81-9.56,32.74-7.37,2.76-6.34,5.41-12.41,8.01-18.39-19.56-13.93-21.12-42.98,1.46-57.84-2.66-6.98-5.34-14.03-8.08-21.24-8.1,1.51-16.64,1.95-22.33-3.73-6.92-6.9-13.08-4.8-20.06-1.75-.96.42-1.96.78-3.48,1.39ZM226.42,434.68c-7.34-11.47-14.16-22.23-21.17-32.87-.54-.83-2.64-1.38-3.66-1.03-18.27,6.22-36.46,12.66-54.73,18.89-3.09,1.05-3.78,2.74-3.43,5.77.93,8.09-1.61,15.3-6.14,21.9-.93,1.36-1.97,2.65-3.19,4.29,3.98,4.57,7.96,8.93,11.69,13.5,2.06,2.53,3.72,2.96,6.85,1.31,10.88-5.73,22.07-5.89,33.39-.88,1.21.54,3.48.19,4.54-.66,7.12-5.7,14.07-11.63,21.04-17.52,5.09-4.31,10.13-8.67,14.8-12.69ZM211.41,183.92c18.61.27,33.48-15.16,33.81-35.1.28-16.82-13.99-31.38-31.16-31.78-18.31-.43-33.93,15.3-34.12,34.37-.17,17.46,14.16,32.26,31.47,32.51ZM442.08,148.77c-.02,18.22,14.06,32.89,31.49,32.79,17.59-.1,32.56-15.92,32.55-34.4-.01-16.95-14.87-31.34-32.22-31.21-17.27.13-31.79,15.11-31.81,32.82ZM241.52,215.09c-3.33-5.06-7.1-10.57-10.6-16.24-1.38-2.24-2.66-2.2-5.15-1.86-3.96.54-14.7,2-21.42,1.24-6.95-.79-11.25-1.58-11.35-1.5-.87.68-12.17,13.97-13.24,14.73,1.09,5.56,2.18,11.13,3.27,16.69,10.32,5.46,20.64,10.93,30.97,16.39,9.27-9.93,18.15-19.43,27.52-29.45ZM404.15,558.95h-122.4c-1.28,9.47,3.53,15.59,12.67,15.67,26.02.22,52.05.22,78.08.26,6.69.01,13.41.19,20.08-.3,8.13-.61,12.86-7.14,11.57-15.63ZM281.53,527.3c0,3.41.23,6.58-.06,9.69-.38,4.12.97,5.53,5.32,5.51,37.44-.18,74.88-.14,112.32-.16,1.45,0,2.91,0,4.77,0v-15.05h-122.35ZM281.56,510.52c1.88,0,3.09,0,4.3,0,32.88-.02,65.76-.04,98.65-.07,5.33,0,10.66.09,15.98-.13,1.15-.05,3.16-1.19,3.22-1.96.33-4.01.15-8.06.15-12.23h-122.3v14.38ZM343.73,121.66c12.42-.05,22.77-10.66,22.68-23.25-.09-11.57-10.32-21.39-22.33-21.41-12.72-.03-22.69,10.1-22.69,23.05,0,12.18,9.79,21.65,22.34,21.6ZM480.09,509.45c-12.8-.09-22.39,9.75-22.49,23.08-.09,11.63,9.6,21.3,21.51,21.49,12.36.19,23.08-10.19,23.03-22.3-.05-11.9-10.23-22.19-22.05-22.27ZM523.47,453.4c12,.11,21.96-9.55,22.11-21.44.16-12.51-8.87-21.93-21.15-22.07-12.33-.14-22.06,9.4-22.24,21.81-.17,11.68,9.56,21.6,21.28,21.7ZM148.54,498.54c.07,11.42,9.51,20.7,21.1,20.73,11.19.02,20.78-9.72,20.81-21.13.03-11.55-9.82-21.42-21.23-21.27-11.62.15-20.75,9.73-20.68,21.68ZM107.18,291.15c-10.56.06-19.34,9.01-19.23,19.63.1,10.43,8.57,18.97,18.82,18.97,10.32,0,19.29-9.23,19.16-19.71-.14-10.58-8.43-18.94-18.74-18.89ZM109.09,446.75c10.62,0,19.14-8.73,19.12-19.62-.02-9.94-9.1-18.89-19.1-18.81-10.34.08-18.42,8.7-18.51,19.75-.08,9.95,8.56,18.68,18.49,18.69ZM579.42,348.34c.06-10.37-7.96-18.51-18.36-18.65-10-.13-19.27,8.85-19.25,18.66.01,10.08,8.53,18.75,18.49,18.83,11.01.08,19.06-7.84,19.13-18.83ZM316.11,591.57c2.69,11.02,14.66,18.84,27.73,18.59,11.72-.23,23.95-8.9,26.01-18.59h-53.74ZM513.98,269.11c-.34,7.76,6.15,14.15,14.87,14.63,7.92.44,15.71-6.51,16.01-14.27.31-8.04-7.16-15.79-15.46-16.03-8.52-.25-15,6.35-15.41,15.67ZM151.39,240.41c7.71,0,14.34-6.52,14.37-14.15.03-6.83-6.01-12.27-13.74-12.39-7.59-.11-14.16,6.27-14.16,13.76,0,6.71,6.41,12.77,13.53,12.77Z"/>
    <path class="cls-8" d="M339.23,230.08c21.26,2.19,40.71,9.4,58.26,21.59,5.03,3.49,10.25,6.84,14.01,11.89,3.22,4.32,3.33,9.05.21,13.39-3.32,4.62-9.33,6.8-14.01,5.06-5.56-2.08-9.66-6.42-14.56-9.52-14.21-8.99-29.7-13.98-46.37-15.43-3.26-.28-6.28-1.21-8.81-3.1-4.18-3.11-6.12-7.51-5.38-12.68.76-5.32,4.4-8.42,9.26-10.11,2.36-.82,4.85-1.16,7.41-1.09Z"/>
    <path class="cls-5" d="M427.49,388.66c.07-.25.01-.46-.17-.64-1.72-2.05-2.36-4.4-1.91-7.04-.08-4.15-.26-8.29-.19-12.44.04-2.13.25-4.34.85-6.37,1.94-6.51,6.98-10.08,12.43-9.08,4.75.87,8.24,6.6,7.49,13.01-.76,6.45-2.59,12.7-5.26,18.6-2.13,4.7-5.54,5.53-13.24,3.96Z"/>
    <path class="cls-1" d="M435.07,293.14c3.35,9.36,6.69,18.71,10.04,28.07.25,1.81.56,3.62.74,5.44.53,5.35-2.08,9.68-6.86,11.49-4.24,1.6-8.63.13-11.87-4.02-2.61-3.35-3.79-7.41-5.29-11.27-2.7-6.97-5.09-14.07-7.63-21.11-1.57-4.36-1.34-8.5,1.42-12.34,3.9-5.42,10.81-6.1,15.55-1.4,1.51,1.5,2.61,3.41,3.89,5.14Z"/>
  </g>
  <g id="Layer_2-2" data-name="Layer 2">
    <path class="cls-7" d="M314.2,646.64c-21.51-6.18-45.45-4.97-67.65-5.81-24.68-.93-49.77-3.64-71.35,11.2-12.9,8.87-24.78,19.17-29.88,34.52-4.6,13.86-2.04,30.34,8.56,40.89,12.07,12.01,29.09,14.64,45.38,12.66,13.77-1.67,27.05-5.23,40.72-7.26l-8.51,1.14c17.76-2.36,36.21-1.71,54.09-2.17,19.67-.51,39.27-1.63,58.81-4,21.3-2.59,42.48-5.94,63.4-10.71,18.76-4.28,37.23-9.86,56.32-12.58l-8.51,1.14c9.77-1.29,19.79-1.98,29.61-.8l-8.51-1.14c5.16.73,10.11,2.31,14.91,4.29l-7.64-3.23c7.86,3.35,15.21,7.73,21.97,12.93l-6.48-5c4.67,3.67,9.02,7.71,12.67,12.41l-5-6.48c1.7,2.27,3.18,4.64,4.29,7.25l-3.23-7.64c.56,1.44.97,2.86,1.2,4.39l-1.14-8.51c.1,1,.11,1.96.02,2.96l1.14-8.51c-.15.97-.39,1.86-.75,2.77l3.23-7.64c-.34.73-.73,1.39-1.19,2.05l5-6.48c-.69.87-1.43,1.61-2.28,2.32l6.48-5c-1.49,1.13-3.07,1.98-4.78,2.73l7.64-3.23c-3.74,1.49-7.63,2.28-11.61,2.82l8.51-1.14c-9.81,1.16-19.63.69-29.4-.62l8.51,1.14c-26.21-3.8-51.34-12.44-77.89-14.36-13.84-1-28.27.59-41.54,4.63-12.36,3.76-24.01,8.89-36.88,10.82l8.51-1.14c-23.77,3.15-47.51-1.21-71.17-3.25-11.58-1-23.27-1.48-34.85-.2-14.97,1.65-29.39,5.54-44.25,7.67l8.51-1.14c-5.92.75-11.72,1.01-17.65.34l8.51,1.14c-4.26-.59-8.37-1.58-12.38-3.17l7.64,3.23c-2.42-1.07-4.66-2.3-6.79-3.87l6.48,5c-1.28-1.04-2.41-2.13-3.49-3.38l5,6.48c-.73-.97-1.34-1.91-1.93-2.97-6.82-12.3-22.74-18.44-36.14-14.71-5.4,1.51-10.8,3.01-16.2,4.52-16.12,4.5-27.68,22.88-22.35,39.36,5.32,16.45,22.09,27.17,39.36,22.35,5.4-1.51,10.8-3.01,16.2-4.52-12.05-4.9-24.09-9.8-36.14-14.71,11.08,20,33.6,27.94,55.14,29.53,19.02,1.4,37.71-5.33,56.34-7.99l-8.51,1.14c27.26-3.43,54.28,2.67,81.46,4.04,15.33.77,31.11-.28,46.02-4.06,13.38-3.39,25.77-9.65,39.51-11.74l-8.51,1.14c9.51-1.24,19-.89,28.49.34l-8.51-1.14c30.65,4.31,60.46,16.14,91.82,14.69,13.23-.61,28.49-2.6,39.62-10.52,15.65-11.13,22.82-27.85,18.83-46.84-2.32-11.06-9.5-21.04-17.02-29.16s-16.33-14.56-25.49-20.09c-9.01-5.44-19.08-10.08-29.29-12.69-15.73-4.02-31.99-2.99-47.88-.86-18.66,2.51-36.68,7.47-54.95,11.84-17.77,4.25-35.74,7.56-53.84,10.02l8.51-1.14c-32.18,4.26-64.36,4.48-96.73,5.68-12.75.47-25.48,1.1-38,3.75-7.99,1.69-15.95,3.51-24.05,4.66l8.51-1.14c-5.23.7-10.53,1.2-15.79.63l8.51,1.14c-1.69-.23-3.3-.57-4.9-1.18,2.55,1.08,5.1,2.15,7.64,3.23-.76-.33-1.47-.71-2.16-1.17l6.48,5c-.61-.48-1.12-.98-1.6-1.59l5,6.48c-.32-.49-.57-.95-.8-1.48l3.23,7.64c-.2-.59-.32-1.14-.42-1.76l1.14,8.51c-.06-.7-.06-1.34-.01-2.04l-1.14,8.51c.22-1.53.55-2.8,1.08-4.25l-3.23,7.64c.65-1.38,1.34-2.57,2.19-3.83l-5,6.48c2.55-3.3,5.6-5.96,8.86-8.53l-6.48,5c4.08-3.13,8.29-5.91,12.98-8.01l-7.64,3.23c2.76-1.09,5.48-1.86,8.4-2.37-2.84.38-5.67.76-8.51,1.14,14.26-1.81,29.41.19,43.73.73,14.26.54,28.76.38,42.93,2.22l-8.51-1.14c3.53.53,6.98,1.24,10.42,2.23,16.08,4.62,35.56-5.63,39.36-22.35s-5.13-34.41-22.35-39.36h0Z"/>
    <path class="cls-7" d="M672.67,745.74c-24-.2-47.99.7-71.89,2.96-22.55,2.14-44.75,5.93-67.45,5.01-3.15-.13,6.62,1.21,2.32.28-1.11-.24-2.22-.43-3.31-.7-1.77-.44-3.43-1.15-5.18-1.65,6.54,1.85,3.97,1.76,1.91.64-.92-.5-1.78-1.1-2.68-1.64-3.1-1.85,2.51,1.91,2.34,1.85-.93-.36-2.04-1.74-2.82-2.37-14.65-11.96-32.21-16.13-50.07-8.59-5.28,2.23-9.8,5.28-14.67,8.24-.49.3-3.42,2.32-3.85,2.13l2.55-1.06c-1.06.39-2.13.74-3.22,1.04.22-.06-3.17.88-3.24.75,3.67-.41,4.16-.48,1.49-.21-1.09.08-2.17.13-3.26.14-.62,0-8.1-.28-8.08-.45l3.2.42c-1.05-.17-2.09-.35-3.13-.55-1.53-.29-3.06-.62-4.58-.96-4.54-1.03-9-2.37-13.55-3.34-11.54-2.47-23.63-3.02-35.38-3.53-19.34-.85-38.7-1.1-58.05-1.4-25.42-.39-50.88-1.11-76.29-.12-17.3.67-34.52,2.34-51.77,3.75-50.14,4.08-100.72,2.59-150.8-1.8-12.54-1.1-24.55,11.82-24,24,.62,13.94,10.57,22.82,24,24,46.02,4.03,92.57,5.75,138.69,2.7,16.84-1.11,33.62-2.95,50.46-3.97,23.89-1.46,47.78-1.14,71.69-.81,21.62.3,43.24.55,64.84,1.24,7.06.22,14.12.49,21.18.94,2.64.17,5.27.36,7.9.61,1.03.1,2.06.2,3.09.31.57.06,1.14.14,1.71.2,3.32.35-7.85-1.22-3.78-.5,6.86,1.21,13.52,3.29,20.34,4.68,17.35,3.53,34.28,3.66,50.63-3.9,4.38-2.02,8.23-4.77,12.35-7.26.73-.44,3.21-1.35,3.64-2.03l-3.19,1.29c.87-.34,1.76-.63,2.66-.86,4.48-1.66-4.54.15-1.36.2,1.83.03,1.01-.14-2.45-.52,1.02.19,2.02.46,3,.8-.64.8-5.2-2.8-.7.02.7.44,4.19,2.96.47.21-3.42-2.53-.86-.62-.16,0,1.95,1.73,4.29,3.46,6.27,4.92,4.79,3.54,10.31,5.93,15.95,7.81,24.25,8.08,52.24,1.41,76.83-1.2,26.38-2.8,52.9-3.94,79.42-3.72,12.56.1,24.58-11.11,24-24-.59-13.09-10.54-23.89-24-24h0Z"/>
    <text class="cls-14" transform="translate(20.68 792.13) scale(.87 1)"><tspan x="0" y="0">Where Ideas Grow Together</tspan></text>
    <g>
      <g>
        <path class="cls-10" d="M182.91,629.76h.98c29.3,0,47.13,12.7,53.52,38.09,1.56,6.12,2.34,15.82,2.34,29.1,0,9.25-.39,17.45-1.17,24.61l-.2,6.05h-19.73l-.2-25.2c0-12.24-.2-20.25-.59-24.02-.39-3.78-1.17-7.23-2.34-10.35-2.73-7.68-7.75-12.82-15.04-15.43-2.34-1.04-6.84-1.63-13.48-1.76h-4.69c-12.76,0-21.29,2.15-25.59,6.45-2.34,2.22-3.97,5.4-4.88,9.57-.91,4.43-1.69,12.7-2.34,24.8-.13,2.47-.2,5.86-.2,10.16,0,8.72.59,14.06,1.76,16.02.52.65,1.89.91,4.1.78,2.86-.26,4.36-.46,4.49-.59l.39-9.38c.52-11.07,1.89-19.14,4.1-24.22,2.21-4.69,5.47-8.27,9.77-10.74,4.17-2.6,8.72-3.91,13.67-3.91,6.12,0,11.59,2.02,16.41,6.05,2.34,1.95,4.3,4.82,5.86,8.59,1.56,3.65,2.34,7.1,2.34,10.35,0,1.56-.13,2.67-.39,3.32-.13,1.04-.2,2.15-.2,3.32,0,.65-.85,2.41-2.54,5.27-1.56,2.87-2.87,4.88-3.91,6.05-4.04,4.82-10.09,7.23-18.16,7.23-1.43,0-2.54-.06-3.32-.2-1.83-.39-2.93-.52-3.32-.39v.98c0,3-1.11,6.12-3.32,9.38-2.34,3.26-5.08,5.6-8.2,7.03-4.04,1.95-9.18,2.93-15.43,2.93h-2.34c-11.85-1.3-19.08-8.66-21.68-22.07-.65-3.25-.98-9.11-.98-17.58,0-14.97.85-27.02,2.54-36.13,4.69-22.78,22-34.18,51.95-34.18ZM187.6,688.54c-1.69,0-3.19.72-4.49,2.15-1.3,1.56-1.95,3.19-1.95,4.88s.65,3.19,1.95,4.49c1.17,1.17,2.73,1.76,4.69,1.76,1.82,0,3.38-.65,4.69-1.95,1.3-1.17,1.95-2.73,1.95-4.69,0-2.73-1.43-4.75-4.3-6.05-.91-.39-1.76-.59-2.54-.59Z"/>
        <path class="cls-6" d="M153.42,743.72h-2.34c-.15,0-.29,0-.44-.02-17.11-1.88-23.13-14.79-25.17-25.28-.7-3.51-1.05-9.52-1.05-18.34,0-15.15.88-27.56,2.61-36.86,5.12-24.88,23.91-37.45,55.89-37.45h.98c31.23,0,50.54,13.83,57.4,41.11,1.66,6.49,2.46,16.33,2.46,30.08,0,9.28-.4,17.66-1.18,24.89l-.19,5.9c-.07,2.16-1.84,3.87-4,3.87h-19.73c-2.2,0-3.98-1.77-4-3.97l-.17-22.43c-.45.91-1.07,2.04-1.92,3.47-1.69,3.09-3.11,5.28-4.35,6.69-4.81,5.72-11.94,8.62-21.19,8.62-1.18,0-2.18-.04-3.01-.12-.57,2.69-1.79,5.41-3.64,8.14-.02.03-.04.06-.06.09-2.74,3.81-6.03,6.61-9.78,8.33-4.49,2.17-10.27,3.29-17.1,3.29ZM151.3,735.72h2.12c5.61,0,10.22-.85,13.69-2.53,2.53-1.16,4.75-3.08,6.67-5.72,1.72-2.55,2.6-4.93,2.6-7.08v-.98c0-1.73,1.11-3.26,2.75-3.8,1.19-.39,2.54-.33,5.3.26.35.05,1.11.13,2.59.13,6.89,0,11.83-1.9,15.1-5.8.02-.03.05-.06.07-.09.58-.65,1.63-2.1,3.39-5.31.02-.04.04-.08.07-.12,1.35-2.28,1.83-3.31,1.99-3.7.02-1.17.09-2.3.22-3.36.04-.34.13-.67.25-.98h0s.11-.49.11-1.84c0-2.69-.68-5.65-2.02-8.78-1.32-3.2-2.91-5.57-4.74-7.1-4.12-3.45-8.65-5.13-13.85-5.13-4.22,0-8,1.08-11.55,3.3-.04.03-.08.05-.12.07-3.59,2.07-6.25,4.99-8.12,8.93-2,4.61-3.26,12.27-3.75,22.75l-.39,9.35c-.04,1-.46,1.96-1.17,2.67-1.18,1.17-2.22,1.31-6.95,1.74-.04,0-.08,0-.13,0-2.52.15-5.64.02-7.47-2.29-.11-.14-.21-.28-.3-.43-1.15-1.92-2.33-5.57-2.33-18.07,0-4.43.07-7.82.2-10.37.67-12.43,1.46-20.73,2.42-25.4,1.08-4.96,3.1-8.86,6.01-11.63,5.13-5.1,14.42-7.58,28.37-7.58h4.69c7.3.14,12.04.79,14.95,2.04,8.37,3.03,14.2,9.02,17.33,17.81,1.26,3.37,2.13,7.18,2.55,11.28.41,3.95.61,11.95.61,24.44l.16,21.2h11.88l.07-2.18c0-.1.01-.2.02-.3.76-6.98,1.15-15.12,1.15-24.18,0-12.88-.75-22.34-2.22-28.11-5.93-23.61-22.17-35.08-49.64-35.08h-.98c-28.03,0-43.75,10.14-48.04,30.99-1.63,8.75-2.46,20.66-2.46,35.33,0,8.17.3,13.82.9,16.79,2.27,11.69,7.99,17.68,17.98,18.86ZM186.94,654.85h-4.61c-14.45,0-20.35,2.87-22.76,5.27-.03.03-.05.05-.08.08-1.74,1.65-2.99,4.17-3.72,7.52-.86,4.17-1.62,12.31-2.26,24.17-.13,2.37-.19,5.71-.19,9.94,0,7.7.48,11.26.84,12.83.2,0,.44,0,.73-.02.34-.03.65-.06.93-.09l.25-6.05c.55-11.69,2-20.07,4.43-25.65.02-.04.03-.07.05-.11,2.55-5.39,6.35-9.59,11.32-12.47,4.78-2.97,10.07-4.48,15.73-4.48,7.05,0,13.44,2.35,18.97,6.99,2.83,2.36,5.18,5.77,6.99,10.13.24.56.46,1.12.67,1.68-.09-2.52-.2-4.45-.34-5.79-.35-3.42-1.06-6.57-2.11-9.36-2.35-6.61-6.48-10.87-12.64-13.07-.09-.03-.19-.07-.28-.11-1.04-.46-3.97-1.26-11.93-1.41ZM187.8,705.83c-3,0-5.6-1.01-7.52-2.93-2.04-2.04-3.12-4.57-3.12-7.32s.97-5.15,2.88-7.45c.04-.04.07-.08.11-.13,3.02-3.32,7.15-4.44,11.57-2.55,4.36,1.99,6.72,5.43,6.72,9.73,0,3.04-1.1,5.66-3.2,7.59-2.03,2-4.6,3.05-7.44,3.05ZM186.13,693.32c-.97,1.19-.97,1.99-.97,2.25,0,.44.09.98.78,1.66.28.28.73.59,1.86.59.77,0,1.3-.23,1.86-.78.05-.05.1-.1.15-.14.33-.3.63-.71.63-1.72,0-.61,0-1.52-1.95-2.41-.47-.2-.78-.23-.88-.23-.24,0-.75,0-1.48.78Z"/>
      </g>
      <g>
        <path class="cls-10" d="M197.95,560.42c12.37,0,22.07,3.65,29.1,10.94,8.08,8.33,12.11,18.75,12.11,31.25,0,8.59-2.47,14.06-7.42,16.41-1.56.78-5.47,1.17-11.72,1.17-5.08,0-12.89-.32-23.44-.98-10.42-.52-16.34-.78-17.77-.78-8.59-.39-13.93-1.17-16.02-2.34-5.47-2.73-8.2-7.49-8.2-14.26,0-4.82,1.63-10.61,4.88-17.38,5.99-11.98,15.11-19.53,27.34-22.66,2.87-.91,6.58-1.37,11.13-1.37ZM211.82,586.01c-2.34-2.73-6.64-4.23-12.89-4.49h-1.37c-6.38,0-11.59,2.28-15.62,6.84-3.77,4.3-5.66,7.42-5.66,9.38,0-.52,1.11-.78,3.32-.78.26,0,4.04.26,11.33.78,6.38.52,12.24.91,17.58,1.17l9.38.39c-1.56-6.12-3.58-10.55-6.05-13.28Z"/>
        <path class="cls-6" d="M220.02,624.19c-5.17,0-13.14-.33-23.68-.98-10.3-.51-16.21-.77-17.53-.77-.06,0-.12,0-.18,0-12.06-.55-15.83-1.78-17.7-2.8-6.76-3.42-10.33-9.57-10.33-17.8,0-5.47,1.73-11.72,5.28-19.12,6.52-13.03,16.55-21.34,29.85-24.77,3.28-1.02,7.28-1.52,12.23-1.52,13.44,0,24.2,4.09,31.98,12.16,8.78,9.06,13.23,20.51,13.23,34.03,0,10.23-3.27,16.97-9.71,20.02-1.5.75-4.34,1.56-13.43,1.56ZM178.91,614.43c1.04,0,4.18.1,17.87.79,10.43.65,18.23.97,23.24.97,8.01,0,9.77-.68,9.95-.76,3.47-1.64,5.19-5.95,5.19-12.82,0-11.53-3.59-20.84-10.98-28.47-6.31-6.54-14.89-9.72-26.23-9.72-4.12,0-7.46.4-9.92,1.18-.07.02-.15.04-.22.06-11.16,2.85-19.26,9.58-24.76,20.57-2.95,6.14-4.46,11.41-4.46,15.59,0,5.24,1.9,8.64,5.99,10.68.06.03.11.06.17.09.38.21,2.86,1.31,14.15,1.83ZM186.82,561.79h0,0ZM217.88,603.29c-.06,0-.11,0-.17,0l-9.38-.39c-5.38-.26-11.34-.66-17.74-1.18-3.04-.22-10.2-.72-11.07-.77-.35,0-.63,0-.85.02-.67.5-1.5.79-2.41.79-2.21,0-4-1.83-4-4.03,0-3.07,2.05-6.77,6.66-12.01,4.82-5.44,11.09-8.2,18.63-8.2h1.37c.06,0,.11,0,.17,0,7.45.31,12.59,2.22,15.72,5.84,2.93,3.25,5.19,8.14,6.93,14.94.31,1.22.03,2.53-.77,3.51-.76.94-1.9,1.48-3.11,1.48ZM183.12,593.16c1.69.12,4.23.3,8.09.57,6.35.52,12.22.91,17.49,1.17l3.69.15c-1.05-2.79-2.23-4.93-3.53-6.36-.02-.03-.05-.05-.07-.08-1.55-1.81-4.98-2.88-9.94-3.1h-1.28c-5.23,0-9.36,1.79-12.63,5.49-.71.8-1.3,1.52-1.81,2.16Z"/>
      </g>
      <g>
        <path class="cls-10" d="M292.88,625.26c.52-.13,1.04-.2,1.56-.2,3.91,0,8.27.52,13.09,1.56,6.51,1.43,12.5,4.3,17.97,8.59,9.89,7.81,16.47,21.16,19.73,40.04.65,3.52.98,12.04.98,25.59,0,11.72-.52,17.9-1.56,18.55h-.78c-.39,0-.72.07-.98.2-.52.13-1.11.2-1.76.2-.52,0-1.5-.06-2.93-.2-1.3-.13-2.41-.2-3.32-.2l-9.96-.59v-20.12c0-15.88-1.37-27.34-4.1-34.38-4.69-11.72-12.96-17.71-24.8-17.97-8.98,0-16.21,2.54-21.68,7.62-3.26,3.12-5.6,6.97-7.03,11.52-1.43,4.69-2.48,12.24-3.12,22.66,0,.39-.07,1.11-.2,2.15-.13,1.04-.2,1.89-.2,2.54,0,11.85.39,18.1,1.17,18.75h-.2c1.69,0,4.82-2.21,9.38-6.64l2.34-2.15c-4.17-3.52-7.03-6.84-8.59-9.96-1.69-3.12-2.54-6.77-2.54-10.94,0-2.86.45-5.53,1.37-8.01,1.82-4.69,5.01-8.59,9.57-11.72,4.56-3.12,9.31-4.69,14.26-4.69,1.56,0,2.73.13,3.52.39,5.6,1.04,10.22,3.52,13.87,7.42,3.52,3.78,5.27,8.2,5.27,13.28,0,6.25-2.8,13.74-8.4,22.46-5.47,8.59-12.24,16.15-20.31,22.66-8.2,6.51-15.37,9.77-21.48,9.77-3.78,0-7.1-1.04-9.96-3.12-3.65-2.47-6.19-6.45-7.62-11.91-1.43-5.21-2.15-13.21-2.15-24.02,0-12.76.78-22.59,2.34-29.49,3.91-17.45,13.8-29.3,29.69-35.55,4.03-1.56,9.57-2.93,16.6-4.1h.98ZM289.36,675.46c-1.83,0-3.45.72-4.88,2.15-1.3,1.43-1.95,3.06-1.95,4.88,0,1.43.32,2.54.98,3.32,1.43,1.95,3.38,2.93,5.86,2.93,1.95,0,3.64-.59,5.08-1.76,1.3-1.17,1.95-2.6,1.95-4.3,0-2.73-1.24-4.82-3.71-6.25-1.04-.65-2.15-.98-3.32-.98Z"/>
        <path class="cls-6" d="M262.99,737.47c-4.6,0-8.73-1.3-12.26-3.85-4.43-3.02-7.52-7.79-9.19-14.17-1.53-5.55-2.28-13.75-2.28-25.04,0-13.18.8-23.11,2.44-30.38,4.19-18.73,15-31.65,32.12-38.39,4.35-1.68,10.04-3.1,17.41-4.32.22-.04.44-.05.66-.05h.55c.67-.13,1.33-.2,1.99-.2,4.17,0,8.85.56,13.93,1.65,7.09,1.56,13.68,4.71,19.6,9.36,10.65,8.41,17.78,22.71,21.2,42.5.69,3.75,1.03,12.36,1.03,26.27,0,18.88-1.24,20.57-3.44,21.95-.64.4-1.37.61-2.12.61h-.52c-.09.03-.17.05-.26.08-.83.21-1.75.32-2.73.32-.42,0-1.22-.02-3.29-.21-1.22-.12-2.2-.18-2.96-.18-.08,0-.16,0-.23,0l-9.96-.59c-2.11-.12-3.77-1.88-3.77-3.99v-20.12c0-15.31-1.29-26.39-3.83-32.92-4.06-10.14-10.98-15.19-21.17-15.42-7.92,0-14.12,2.14-18.87,6.55-.09.09-.18.17-.27.26,4.4-2.44,9.01-3.67,13.76-3.67,1.88,0,3.31.16,4.48.5,6.33,1.23,11.65,4.11,15.82,8.58,4.21,4.53,6.35,9.92,6.35,16.01,0,7.1-2.95,15.15-9.03,24.62-5.67,8.91-12.79,16.86-21.17,23.61-9.04,7.17-16.88,10.65-24,10.65ZM292.23,629.26c-6.58,1.11-11.79,2.4-15.49,3.83-14.69,5.78-23.6,16.47-27.23,32.69-1.49,6.59-2.25,16.22-2.25,28.62,0,10.41.67,18.13,2,22.96,1.2,4.59,3.16,7.74,6,9.67.04.03.07.05.11.08,2.18,1.59,4.67,2.36,7.61,2.36,5.17,0,11.56-2.99,19-8.9,7.67-6.19,14.22-13.49,19.43-21.67,5.16-8.04,7.77-14.87,7.77-20.31,0-4.06-1.37-7.52-4.2-10.56-3.07-3.29-6.89-5.32-11.67-6.21-.18-.03-.36-.08-.53-.14-.02,0-.58-.19-2.25-.19-4.16,0-8.08,1.3-12,3.99-3.92,2.68-6.57,5.91-8.1,9.87-.72,1.95-1.1,4.18-1.1,6.56,0,3.48.69,6.51,2.06,9.03.02.04.04.08.06.12,1.31,2.62,3.87,5.55,7.59,8.69.88.74,1.4,1.83,1.42,2.97.02,1.15-.45,2.25-1.3,3.03l-2.3,2.11c-5.01,4.86-8.33,7.17-11.08,7.64-.27.06-.56.09-.85.09h-.2c-2.02,0-3.69-1.49-3.96-3.43-.65-2.38-1.02-7.36-1.02-19.32,0-.83.07-1.83.23-3.04.15-1.24.16-1.59.16-1.65,0-.07,0-.18,0-.25.68-10.84,1.75-18.55,3.29-23.58,1.64-5.21,4.35-9.66,8.09-13.24,6.25-5.81,14.46-8.73,24.45-8.73,13.64.3,23.2,7.19,28.52,20.48,2.96,7.6,4.39,19.32,4.39,35.86v16.35l6.08.36c1,0,2.18.08,3.59.21,1.74.16,2.36.18,2.54.18.21,0,.38-.01.51-.03.25-1.93.56-6.09.56-14.92,0-16.48-.49-22.61-.91-24.86-3.08-17.84-9.22-30.48-18.27-37.63-4.95-3.89-10.46-6.53-16.35-7.83-4.51-.97-8.62-1.47-12.23-1.47-.19,0-.39.03-.6.08-.31.08-.64.12-.96.12h-.64ZM267.83,699.9c.04,2.18.1,3.9.17,5.24.72-.61,1.56-1.37,2.56-2.31-1-.99-1.91-1.96-2.72-2.93ZM289.36,692.74c-3.72,0-6.83-1.55-9.02-4.47-1.21-1.5-1.82-3.44-1.82-5.78,0-2.8,1.03-5.42,2.99-7.57.04-.05.09-.09.13-.14,2.17-2.17,4.84-3.32,7.71-3.32,1.9,0,3.71.52,5.38,1.55,3.7,2.17,5.65,5.51,5.65,9.68,0,2.82-1.13,5.34-3.27,7.27-.05.04-.1.09-.15.13-2.16,1.77-4.72,2.66-7.61,2.66ZM294.44,686.98h0,0ZM287.37,680.37c-.59.67-.85,1.33-.85,2.12,0,.61.1.83.1.84.05.07.05.05.1.12.67.92,1.44,1.29,2.63,1.29.99,0,1.77-.25,2.47-.79.47-.45.56-.82.56-1.26,0-1.08-.29-1.96-1.72-2.79-.04-.02-.07-.04-.11-.06-.41-.26-.78-.37-1.21-.37-.49,0-1.15.11-1.99.91Z"/>
      </g>
      <g>
        <path class="cls-10" d="M425.49,628h3.12c4.56.13,8.01.85,10.35,2.15,8.85,4.56,15.23,15.5,19.14,32.81,1.17,5.08,2.28,13.22,3.32,24.41,1.04,11.2,1.56,20.05,1.56,26.56,0,2.61-.13,4.69-.39,6.25l-1.17,3.71-9.18-.59c-5.73-.39-8.92-.98-9.57-1.76-.39-.91-.59-2.93-.59-6.05,0-12.76-.91-25.85-2.73-39.26-.65-5.73-2.02-11.59-4.1-17.58-2.34-6.9-5.01-10.35-8.01-10.35-2.34,0-5.54,2.02-9.57,6.05-3.78,3.78-6.25,5.79-7.42,6.05-.39.13-1.11.2-2.15.2-3.26,0-6.64-1.56-10.16-4.69-3.78-3.52-7.42-5.27-10.94-5.27-1.83,0-3.19.13-4.1.39-4.43,1.17-7.62,4.3-9.57,9.38-1.69,4.56-2.54,14-2.54,28.32,0,4.82.06,8.33.2,10.55.39,7.16.52,10.68.39,10.55h-.2c.65,0,2.21-.78,4.69-2.34,2.6-1.56,4.1-2.54,4.49-2.93l-2.15-2.34c-2.73-2.73-4.56-5.21-5.47-7.42-1.04-2.21-1.56-5.79-1.56-10.74,0-5.47.71-9.44,2.15-11.91,4.82-8.85,12.17-13.28,22.07-13.28,5.6,0,10.67,1.76,15.23,5.27,4.56,3.39,7.49,7.23,8.79,11.52.78,3,1.17,5.54,1.17,7.62,0,7.68-4.62,16.28-13.87,25.78-13.67,13.8-25.59,21.16-35.74,22.07h-1.56c-8.59,0-14.26-4.42-16.99-13.28-1.83-5.6-2.73-15.17-2.73-28.71,0-2.99.2-7.23.59-12.7.78-12.63,2.6-21.88,5.47-27.73,6.12-12.63,16.6-18.95,31.45-18.95,5.21,0,10.35,1.24,15.43,3.71l4.1,2.15,2.54-1.56c5.73-4.03,11.13-6.05,16.21-6.05ZM395.41,678.97c-2.08.13-3.71.78-4.88,1.95-1.17,1.3-1.76,2.87-1.76,4.69,0,3.39,1.69,5.47,5.08,6.25.39.26.98.39,1.76.39,1.95,0,3.52-.71,4.69-2.15,1.3-1.43,1.95-3.06,1.95-4.88,0-2.47-1.11-4.3-3.32-5.47-1.17-.52-2.34-.78-3.52-.78Z"/>
        <path class="cls-6" d="M371,735.12h-1.56c-10.36,0-17.56-5.57-20.81-16.1-1.95-5.99-2.91-15.79-2.91-29.89,0-3.08.2-7.44.6-12.98.82-13.25,2.74-22.81,5.87-29.21,6.81-14.05,18.6-21.19,35.04-21.19,5.79,0,11.57,1.38,17.18,4.11.04.02.07.04.11.05l2.09,1.09.5-.31c6.36-4.45,12.55-6.71,18.41-6.71h3.12s.08,0,.11,0c5.22.15,9.18,1.01,12.12,2.62,10.02,5.19,16.95,16.79,21.16,35.46,1.22,5.26,2.33,13.42,3.4,24.92,1.05,11.28,1.58,20.34,1.58,26.93,0,2.84-.15,5.1-.44,6.91-.03.19-.08.37-.13.55l-1.17,3.71c-.55,1.76-2.24,2.91-4.07,2.79l-9.18-.59c-8.73-.59-11.02-1.54-12.39-3.19-.25-.29-.45-.62-.6-.98-.45-1.05-.91-2.78-.91-7.63,0-12.51-.91-25.54-2.7-38.72-.63-5.49-1.94-11.12-3.92-16.8-2.38-7-4.24-7.66-4.26-7.67.01,0-1.88.06-6.71,4.89-2.47,2.47-4.27,4.09-5.66,5.16,4.21,3.55,7.05,7.63,8.42,12.14.02.05.03.1.04.15.88,3.36,1.3,6.18,1.3,8.63,0,8.85-4.91,18.19-15,28.57-14.52,14.66-27.02,22.26-38.25,23.27-.12.01-.24.02-.36.02ZM387.21,633.76c-13.3,0-22.4,5.46-27.85,16.69-2.62,5.37-4.33,14.19-5.08,26.24-.38,5.39-.58,9.56-.58,12.45,0,13.07.85,22.31,2.54,27.47,2.22,7.2,6.41,10.52,13.19,10.52h1.38c9.11-.89,20.24-7.92,33.09-20.88,8.42-8.66,12.71-16.4,12.71-22.97,0-1.71-.34-3.91-1.02-6.53-1.06-3.41-3.52-6.57-7.33-9.4-3.93-3.03-8.12-4.48-12.85-4.48-8.39,0-14.46,3.66-18.56,11.19-.02.03-.03.06-.05.09-.73,1.27-1.61,4.01-1.61,9.91s.74,8.1,1.18,9.04c.03.06.06.12.08.19.48,1.17,1.67,3.18,4.6,6.11.04.04.08.08.12.12l2.15,2.34c1.45,1.58,1.39,4.02-.12,5.53-.49.49-1.26,1.13-5.26,3.53-2.51,1.58-4.04,2.34-5.17,2.68-.49.18-1,.25-1.5.24h-.07c-2.21,0-4-1.79-4-4,0-.47.08-.92.23-1.34-.03-1.16-.13-3.65-.42-8.98-.13-2.27-.2-5.8-.2-10.76,0-14.94.91-24.66,2.79-29.71,2.45-6.36,6.58-10.34,12.3-11.85,1.22-.35,2.88-.52,5.12-.52,4.54,0,9.14,2.13,13.66,6.34,2.68,2.38,5.2,3.62,7.43,3.62.6,0,.91-.03,1.03-.04.35-.2,1.81-1.14,5.71-5.04,4.93-4.93,8.87-7.23,12.4-7.23,7.36,0,10.7,9.83,11.8,13.07,2.16,6.21,3.6,12.42,4.29,18.41,1.83,13.45,2.76,26.84,2.76,39.71,0,1.43.04,2.43.1,3.13,1.08.2,3,.46,6.33.69l6.04.39.14-.44c.2-1.32.3-3.12.3-5.33,0-6.34-.52-15.16-1.55-26.19-1.02-10.98-2.11-19.02-3.23-23.88-3.62-16.04-9.36-26.18-17.07-30.16-.04-.02-.07-.04-.11-.06-1.21-.67-3.67-1.5-8.47-1.65h-3.07c-4.21,0-8.89,1.79-13.91,5.33-.07.05-.14.09-.21.14l-2.54,1.56c-1.2.74-2.7.79-3.95.14l-4.05-2.12c-4.49-2.18-9.08-3.28-13.63-3.28ZM444.93,718.31h0ZM387.02,654.65c-2.02,0-2.81.18-3,.24-2.92.78-4.98,2.63-6.45,5.82,3.54-2.85,7.69-4.66,12.42-5.43-1.03-.42-2.02-.63-2.96-.63ZM409.09,656.59s-.07.02-.1.03c.03-.01.07-.02.1-.03ZM409.07,656.62h0,0ZM409.39,656.51s0,0,0,0c0,0,0,0,0,0ZM409.28,634.05h0,0ZM395.61,696.26c-1.24,0-2.3-.21-3.21-.63-4.85-1.33-7.62-4.95-7.62-10.01,0-2.79.96-5.34,2.78-7.36.05-.05.1-.1.15-.15,1.88-1.88,4.39-2.92,7.46-3.12.08,0,.17,0,.25,0,1.72,0,3.45.38,5.13,1.12.09.04.17.08.25.12,3.51,1.86,5.45,5.06,5.45,9,0,2.76-1.01,5.35-2.92,7.5-1.93,2.31-4.59,3.54-7.72,3.54ZM396.08,688.54s0,0,0,0c0,0,0,0,0,0ZM395.58,688.26h.03c.86,0,1.25-.26,1.59-.68.04-.05.09-.11.14-.16.63-.7.91-1.37.91-2.19,0-.94-.26-1.41-1.07-1.87-.58-.24-1.12-.36-1.65-.38-1.33.11-1.87.5-2.1.71-.46.55-.66,1.13-.66,1.93,0,1.4.3,1.96,1.98,2.35.29.07.56.16.83.29Z"/>
      </g>
      <g>
        <path class="cls-10" d="M439.55,566.08c2.34,0,3.65.59,3.91,1.76.39,1.17.85,6.51,1.37,16.02.52,9.38.78,15.95.78,19.73v8.4l-9.77.78c-1.69.26-3.71.39-6.05.39-2.08,0-3.45-.39-4.1-1.17-.39-1.04-.78-4.36-1.17-9.96,0-1.04-.06-2.8-.2-5.27-.26-2.6-.39-5.14-.39-7.62-.13-2.47-.26-4.56-.39-6.25-.39-5.86-.59-9.44-.59-10.74v-1.95c.52-1.69,2.8-2.73,6.84-3.12,6.25-.65,9.51-.98,9.77-.98Z"/>
        <path class="cls-6" d="M429.79,617.15c-3.36,0-5.7-.85-7.17-2.61-.29-.35-.52-.74-.68-1.16-.41-1.09-.87-3.2-1.42-11.09,0-.09,0-.19,0-.28,0-.67-.03-2.08-.19-4.97-.26-2.67-.4-5.29-.4-7.81-.12-2.34-.25-4.38-.38-6.05-.4-6.05-.6-9.65-.6-11.05v-1.95c0-.4.06-.8.18-1.18,1.57-5.08,8.12-5.72,10.27-5.93,9.56-1,9.82-1,10.15-1,5.6,0,7.27,2.81,7.75,4.65.29.91.76,2.99,1.51,16.9.52,9.38.79,16.09.79,19.94v8.4c0,2.08-1.6,3.82-3.68,3.99l-9.62.77c-1.86.28-3.99.42-6.52.42ZM429.19,609.14c.17,0,.37.02.6.02,2.14,0,3.98-.12,5.44-.34.1-.02.2-.03.3-.04l6.08-.49v-4.71c0-3.71-.26-10.27-.77-19.5-.47-8.69-.82-12.41-1.02-13.99-.05,0-.1,0-.15,0-.44.03-2.31.21-9.45.95-1.74.17-2.73.44-3.25.64v.46c0,.83.1,3.32.58,10.48.13,1.72.27,3.85.39,6.31,0,.07,0,.14,0,.21,0,2.32.12,4.75.37,7.22,0,.06.01.12.01.18.13,2.41.2,4.2.2,5.34.27,3.84.5,6.03.67,7.26ZM440.69,570.19h0,0Z"/>
      </g>
      <g>
        <path class="cls-10" d="M514.36,629.76c7.16,0,12.3.52,15.43,1.56,22.92,6.9,34.77,30.79,35.55,71.68,0,6.51-.33,11.07-.98,13.67-.65,2.61-2.02,5.21-4.1,7.81-2.87,3.39-6.77,5.66-11.72,6.84-4.82,1.17-13.48,2.02-25.98,2.54l-18.16.98h-.39c-.39.13-.85.2-1.37.2-5.08,0-9.25-1.1-12.5-3.32-3.52-2.21-5.93-5.92-7.23-11.13-.52-1.95-.78-6.18-.78-12.7,0-14.32.59-23.37,1.76-27.15,2.21-6.77,6.31-11.52,12.3-14.26,1.95-.91,5.01-1.37,9.18-1.37,3.77,0,6.7.39,8.79,1.17,2.6.65,5.27,2.02,8.01,4.1,2.86,2.08,4.88,4.17,6.05,6.25,1.95,3.65,2.93,7.29,2.93,10.94,0,6.9-2.61,12.83-7.81,17.77-3.52,3.39-8.86,5.08-16.02,5.08h-4.69v2.93h.39c.52.26,1.37.39,2.54.39.26,0,2.99-.2,8.2-.59,19.4-1.04,29.42-1.82,30.08-2.34.39-.26.59-2.47.59-6.64,0-9.5-1.04-19.01-3.12-28.52-2.22-9.5-5.4-16.08-9.57-19.73-3.52-3.25-8.53-4.95-15.04-5.08h-2.54c-6.64,0-12.57,1.37-17.77,4.1-1.95.91-3.45,1.95-4.49,3.12-1.17,1.3-3.39,4.17-6.64,8.59l-1.95,2.73-4.49-2.93c-1.95-1.56-4.43-3.12-7.42-4.69-3.12-1.69-4.69-3.06-4.69-4.1,0-1.3,2.67-5.34,8.01-12.11,5.99-7.29,14.97-12.24,26.95-14.84,2.86-.65,7.1-.98,12.7-.98ZM507.72,681.51c-1.56,0-3.03.65-4.39,1.95-1.37,1.3-2.05,2.87-2.05,4.69,0,2.08.62,3.74,1.86,4.98,1.24,1.24,2.76,1.86,4.59,1.86s3.42-.65,4.79-1.95c1.37-1.3,2.05-2.86,2.05-4.69,0-2.34-1.04-4.17-3.12-5.47-1.17-.91-2.41-1.37-3.71-1.37Z"/>
        <path class="cls-6" d="M502.64,739.03c-5.85,0-10.79-1.34-14.69-3.97-4.37-2.78-7.37-7.32-8.92-13.51-.38-1.41-.9-4.43-.9-13.66,0-19.8,1.11-25.65,1.94-28.33.73-2.24,1.65-4.3,2.75-6.17-.59-.07-1.17-.28-1.7-.62l-4.49-2.93c-.11-.07-.21-.15-.31-.23-1.74-1.39-4.02-2.83-6.77-4.26-3.58-1.93-6.84-4.18-6.84-7.65,0-1.89.65-4.17,8.87-14.59,6.59-8.03,16.42-13.48,29.24-16.27,3.15-.72,7.59-1.07,13.55-1.07,7.62,0,13.06.57,16.64,1.75,24.63,7.45,37.53,32.82,38.34,75.42,0,6.97-.36,11.76-1.1,14.72-.79,3.16-2.43,6.3-4.86,9.34-.02.03-.05.06-.07.09-3.41,4.04-8.07,6.78-13.85,8.15-5.11,1.24-13.86,2.11-26.73,2.64l-18.12.97s-.05,0-.08,0c-.59.13-1.23.2-1.9.2ZM505.38,669.11c-4.66,0-6.69.62-7.49.99-5,2.28-8.32,6.16-10.19,11.88-.7,2.26-1.56,8.65-1.56,25.91,0,8.05.4,10.76.65,11.66,1.07,4.27,2.86,7.12,5.49,8.78.04.03.08.05.12.08,2.56,1.74,6.01,2.63,10.25,2.63.12,0,.17,0,.17,0,.41-.14.76-.19,1.19-.19h.28l18.06-.97c12.22-.51,20.69-1.32,25.25-2.43,4.14-.98,7.26-2.77,9.57-5.49,1.69-2.13,2.81-4.23,3.31-6.24.39-1.56.86-5.04.86-12.7-.74-38.68-11.74-61.54-32.7-67.85-.04-.01-.07-.02-.11-.04-1.86-.62-5.83-1.36-14.17-1.36-5.27,0-9.25.29-11.81.88-11.06,2.41-19.38,6.94-24.75,13.48-3.91,4.96-5.7,7.6-6.52,8.96.45.31,1.1.71,2.01,1.2,3.08,1.61,5.74,3.29,7.86,4.96l1.13.74c3.23-4.39,5.4-7.18,6.64-8.56,1.36-1.54,3.28-2.9,5.69-4.03,5.74-3,12.32-4.52,19.55-4.52h2.54c7.54.15,13.48,2.21,17.72,6.1,4.83,4.25,8.36,11.38,10.79,21.79,2.15,9.8,3.23,19.69,3.23,29.42,0,6.31-.29,8.47-2.19,9.85-1.31,1.03-2.63,1.54-32.26,3.13-7.88.59-8.17.59-8.42.59-1.32,0-2.4-.13-3.31-.41-2.03-.19-3.62-1.9-3.62-3.98v-2.93c0-2.21,1.79-4,4-4h4.69c6.06,0,10.51-1.33,13.24-3.96,4.44-4.22,6.59-9.08,6.59-14.89,0-2.96-.83-6.01-2.46-9.05-.84-1.49-2.5-3.17-4.88-4.91-2.36-1.79-4.56-2.94-6.63-3.46-.15-.04-.29-.08-.43-.13-1.12-.42-3.3-.92-7.39-.92ZM560.26,724.48h0,0ZM540.22,709.33h0ZM515.35,662.45c3.05.8,6.16,2.4,9.24,4.74,3.3,2.4,5.65,4.86,7.12,7.47,2.3,4.29,3.44,8.61,3.44,12.9,0,8.01-3.05,14.96-9.06,20.67-.08.07-.15.14-.23.22,8.14-.5,12.34-.85,14.51-1.09.03-.76.06-1.8.06-3.2,0-9.16-1.02-18.47-3.03-27.66-2-8.58-4.8-14.51-8.3-17.57-.03-.02-.05-.05-.08-.07-2.76-2.55-6.93-3.9-12.4-4.01h-2.46c-5.96,0-11.31,1.23-15.91,3.64-.06.03-.11.06-.17.08-1.45.68-2.52,1.4-3.19,2.16-.45.5-1.25,1.46-2.64,3.28.74-.42,1.5-.81,2.29-1.17,2.49-1.16,6.04-1.73,10.84-1.73,4.18,0,7.45.44,9.98,1.35ZM470.62,658.34h0ZM507.72,698.99c-2.88,0-5.44-1.05-7.42-3.03-1.98-1.97-3.02-4.67-3.02-7.8,0-2.91,1.14-5.53,3.29-7.58,2.1-2,4.58-3.06,7.15-3.06,2.14,0,4.16.7,6,2.08,3.16,2.05,4.83,5.07,4.83,8.75,0,2.91-1.14,5.54-3.29,7.59-2.1,2-4.7,3.05-7.54,3.05ZM507.72,685.51c-.18,0-.74,0-1.64.85-.57.54-.81,1.06-.81,1.79,0,1.47.49,1.96.68,2.15.49.49,1,.69,1.76.69s1.4-.25,2.03-.85c.58-.55.81-1.07.81-1.79,0-.82-.2-1.42-1.25-2.08-.11-.07-.22-.15-.33-.23-.61-.47-1.01-.53-1.26-.53Z"/>
      </g>
    </g>
  </g>
</svg>