<?xml version="1.0" encoding="UTF-8"?>
<svg id="Layer_2" data-name="Layer 2" xmlns="http://www.w3.org/2000/svg" viewBox="0 0 1398.32 961">
  <defs>
    <style>
      .cls-1 {
        fill: #0751a0;
      }

      .cls-1, .cls-2, .cls-3 {
        stroke-width: 0px;
      }

      .cls-2 {
        fill: #f4eb25;
      }

      .cls-3 {
        fill: #fff;
      }
    </style>
  </defs>
  <g id="Layer_2-2" data-name="Layer 2">
    <g>
      <g>
        <path class="cls-3" d="M723.81,183.78c3.29-2.26,6.12-4.37,9.09-6.2,4.4-2.71,8.84-3.02,12.89.72,3.92,3.62,4.85,8.29,3.7,13.75-1.11,5.24-2.38,10.52-2.75,15.84-.46,6.59,2.36,9.92,8.35,10.9,2.67.44,4.32,1.65,4.41,4.74.14,4.59,2.61,5.52,6.45,4.71.88,5.28,3.84,5.86,7.95,4.3,3.84-1.46,6.83-1.03,8.36,4.2,1.19,4.05,4.14,4.79,7.71,2.77,2.43-1.38,4.73-3.05,7.17-4.42,3.68-2.06,7.64-2.61,11.23-.34,26.9,17.02,58.39-2.8,70.97-28.62,11.48-23.58,12.6-48.01,3.98-72.68-7.21-20.63-21.98-31.06-41.37-33.87-20.86-3.02-40.71.45-57.93,14.74-13.02,10.8-25.28,10.49-37.93.03-6.28-5.2-12.79-10.05-19.62-15.39-.89,28.38-1.77,56.22-2.66,84.84Z"/>
        <path class="cls-1" d="M930.68,379.35c-25.9,4.07-51.11,8.04-75.24,11.83-3.62-6.42-6.58-12.53-10.35-18.13-3.61-5.36-9.28-6.93-15.79-5.78-6.08,1.08-12.15,2.35-18.28,3.02-10.95,1.19-15.76-2.7-16.45-13.35-.3-4.58-.7-8.4-5.87-10.5-1.12-.45-.81-4.17-1.3-7.29-2.78-.69-3.52-3.98-2.79-7.72,1.01-5.11-1.19-7.93-6.09-9.23-1.48-.39-2.91-.97-4.33-1.54-3.78-1.52-4.66-4.01-2.69-7.59,3.17-5.75,6.31-11.51,9.3-17.35,2.82-5.52,3.28-11.31.85-16.97-12.59-29.42,6.01-67.39,43.66-76.88,21.07-5.31,41.98-6.94,62.69.45,30.61,10.92,51.6,46.63,43.88,75.57-2.48,9.28-6.98,18.12-11.05,26.95-6.49,14.09-10.9,28.51-5.42,43.57,3.39,9.32,8.52,18.03,12.9,27,.57,1.16,1.33,2.24,2.35,3.94Z"/>
        <path class="cls-2" d="M334.42,336.09c32.3,10.03,63.73,19.79,93.82,29.13,5.89-7.78,10.89-15.26,16.82-21.93,5.67-6.38,13.23-7.42,21.32-4.73,7.56,2.51,15.06,5.28,22.76,7.26,13.76,3.54,20.68-.69,23.66-14.55,1.28-5.96,2.55-10.91,9.58-12.72,1.52-.39,1.86-5.33,3.1-9.34,3.69-.4,5.29-4.59,5.09-9.63-.27-6.89,3.09-10.19,9.6-11.02,1.97-.25,3.91-.74,5.84-1.24,5.13-1.32,6.75-4.42,4.94-9.48-2.91-8.12-5.79-16.25-8.45-24.45-2.52-7.75-1.95-15.44,2.27-22.44,21.91-36.35,5.65-89.55-40.59-108.81-25.88-10.78-52.28-16.7-80.21-10.74-41.28,8.8-75.17,51.89-71.03,91.28,1.33,12.63,5.33,25.05,8.79,37.38,5.51,19.66,8.29,39.39-1.69,58.18-6.17,11.62-14.45,22.13-21.82,33.11-.96,1.43-2.14,2.7-3.78,4.74Z"/>
        <path class="cls-1" d="M586.59,238.12c-25.15,3.95-49.62,7.8-73.04,11.49-3.54-6.43-6.45-12.55-10.14-18.16-3.53-5.37-9.05-6.97-15.37-5.84-5.9,1.05-11.79,2.29-17.74,2.93-10.63,1.14-15.33-2.77-16.04-13.41-.31-4.58-.71-8.4-5.75-10.52-1.09-.46-.8-4.17-1.3-7.29-2.7-.7-3.44-3.99-2.74-7.73.95-5.1-1.19-7.93-5.95-9.25-1.44-.4-2.83-.98-4.21-1.56-3.68-1.54-4.55-4.03-2.65-7.6,3.05-5.73,6.08-11.47,8.96-17.29,2.72-5.5,3.13-11.29.75-16.96-12.36-29.46,5.54-67.31,42.07-76.63,20.45-5.21,40.75-6.75,60.91.73,29.79,11.05,50.34,46.83,42.97,75.72-2.36,9.26-6.7,18.08-10.61,26.88-6.25,14.05-10.46,28.44-5.07,43.52,3.33,9.33,8.36,18.05,12.65,27.03.56,1.17,1.3,2.24,2.3,3.94Z"/>
        <path class="cls-3" d="M449.52,478.93c-3.4-3.42-6.51-6.32-9.34-9.46-4.2-4.65-5.76-9.98-2.76-15.87,2.91-5.69,7.8-8.03,14.13-8.03,6.08,0,12.24.19,18.21-.73,7.39-1.14,10.28-5.41,9.71-12.95-.26-3.36.62-5.67,4-6.58,5.02-1.35,5.37-4.59,3.41-9.05,5.57-2.42,5.39-6.17,2.54-10.77-2.66-4.3-3.02-8.04,2.32-11.25,4.14-2.49,4.13-6.27.92-10.08-2.19-2.6-4.67-4.97-6.85-7.58-3.28-3.94-4.98-8.62-3.47-13.57,11.34-37.1-19.18-70.31-51.11-78.97-29.14-7.91-56.38-2.99-81.18,13.83-20.74,14.06-28.17,34.71-25.92,59.02,2.42,26.15,11.72,49.4,32.21,66.67,7.64,6.44,12.25,13.35,14,20.87,2.3,9.92-5.79,15.94-3.51,25.25,1.77,7.24,7.94,11.98,12.86,14.86,23.27-1.87,46.54-3.73,69.82-5.6Z"/>
        <path class="cls-3" d="M595.56,441.22c-3.67-3.69-7.03-6.82-10.09-10.22-4.53-5.03-6.23-10.78-2.98-17.14,3.14-6.15,8.43-8.68,15.27-8.68,6.57,0,13.23.21,19.68-.78,7.99-1.23,11.11-5.85,10.49-13.99-.28-3.63.67-6.13,4.32-7.11,5.42-1.46,5.8-4.96,3.68-9.78,6.02-2.62,5.83-6.67,2.75-11.64-2.88-4.64-3.26-8.69,2.51-12.16,4.47-2.69,4.47-6.78,1-10.89-2.37-2.81-5.05-5.37-7.4-8.19-3.55-4.26-5.38-9.31-3.75-14.67,12.25-40.08-20.73-75.96-55.22-85.31-31.49-8.54-60.92-3.23-87.71,14.94-22.41,15.19-30.43,37.5-28,63.77,2.61,28.25,12.67,53.37,34.8,72.03,16.74,14.11,20.02,30.3,11.33,49.83-4.31,9.69-8.16,19.6-12.48,30.05,34.06-6.71,67.46-13.28,101.8-20.05Z"/>
        <path class="cls-1" d="M342.65,411.27c25.15-3.95,49.62-7.8,73.04-11.49,1.4-7.21,2.29-13.93,4.07-20.4,1.71-6.19,6.47-9.41,12.83-10.28,5.94-.81,11.93-1.44,17.79-2.66,10.47-2.18,13.74-7.34,11.15-17.69-1.11-4.45-1.9-8.21,2.24-11.78.9-.77-.52-4.22-1.01-7.34,2.36-1.49,2.05-4.85.24-8.2-2.47-4.56-1.3-7.91,2.83-10.63,1.25-.82,2.39-1.8,3.53-2.78,3.02-2.59,3.09-5.23.19-8.04-4.66-4.52-9.31-9.05-13.83-13.71-4.28-4.4-6.45-9.78-5.92-15.91,2.73-31.83-25.93-62.36-63.56-60.02-17.96,1.12-45,1.59-57.75,19.39-9.39,13.1-.73,19.49-12.01,54.51-4.54,14.11-8.51,21.03-5.65,30.74,2.71,9.19,7.3,9.98,18.35,22.33,10.26,11.45,18.68,23.85,18.18,39.86-.31,9.9-2.41,19.75-3.74,29.61-.17,1.28-.55,2.54-.98,4.46Z"/>
        <path class="cls-1" d="M863.47,344.09c-7.84-3.05-14.82-5.47-21.6-8.48-10.02-4.45-16.63-11.82-16.8-23.28-.17-11.09,5.33-18.25,14.85-22.7,9.14-4.27,18.57-8.3,26.82-13.95,10.22-7,11.15-15.83,4.28-27.41-3.07-5.16-3.59-9.45.77-13.27,6.48-5.68,4.41-11.07-2.09-16.79,6.45-7.77,3.19-13.6-4.77-18.91-7.43-4.96-10.95-10.66-5.49-19.52,4.24-6.86,1.22-12.87-6.65-16.68-5.38-2.6-10.99-4.62-16.35-7.25-8.08-3.96-14.37-10.21-16.05-19.14-12.53-66.94-84.93-98.29-139.87-89.64-50.15,7.9-87.21,34.85-111.1,79-19.99,36.92-14.69,74.96,8.09,112.04,24.5,39.87,57.04,70.3,101.64,83.37,33.72,9.88,50.25,31.57,52.57,65.96,1.15,17.07,3.1,34.14,4.8,52.33,42.47-32.01,84.12-63.4,126.96-95.68Z"/>
        <path class="cls-1" d="M491.61,588.06c-29.63-18.94-58.65-37.5-87.92-56.21,3.02-4.19,6.03-7.99,8.62-12.06,4.3-6.75,3.81-12.28-2.05-17.63-4.26-3.89-9.15-7.12-13.88-10.47-11.99-8.51-12.63-19.56-1.85-29.52,1.39-1.29,2.46-3.73,2.42-5.61-.12-5.57-.37-5.56,3.98-8.85-2.66-4.52-1.64-8.14,2.99-10.68,3.62-1.99,3.31-4.56,1.14-7.41-.68-.89-1.41-1.75-2.07-2.65-4.73-6.38-3.78-10.57,3.33-13.71,7.03-3.1,14.09-6.15,21.27-8.89,5.67-2.17,9.63-5.42,12.49-11.17,13.93-27.95,41.89-42.55,72.76-36.91,32.6,5.96,58.85,22.44,74.4,52.52,19.96,38.62-.5,83.97-28.5,98.29-7.65,3.91-14.67,9.04-22.13,13.36-18.9,10.95-31.2,27.1-38.08,47.63-2.19,6.54-4.51,13.04-6.92,19.99Z"/>
        <path class="cls-3" d="M730.94,515.16c4.85-1.34,9.17-2.36,13.37-3.74,6.21-2.05,10.39-6.07,10.71-12.96.31-6.67-2.91-11.32-8.65-14.6-5.51-3.15-11.2-6.17-16.14-10.09-6.11-4.86-6.52-10.23-2.1-16.77,1.97-2.92,2.37-5.46-.22-8.04-3.85-3.83-2.49-6.94,1.59-9.97-3.8-5.08-1.7-8.39,3.27-11.08,4.64-2.52,6.9-5.73,3.72-11.4-2.46-4.4-.5-7.83,4.38-9.62,3.34-1.23,6.81-2.09,10.13-3.33,5.02-1.88,8.98-5.24,10.17-10.51,8.92-39.5,53.79-53.81,87.22-45.14,30.52,7.92,52.67,26.48,66.45,54.56,11.53,23.49,7.57,46.05-7.06,66.93-15.73,22.45-36.2,38.72-63.72,43.77-20.8,3.82-31.32,15.84-33.39,36.39-1.02,10.2-2.54,20.35-3.92,31.2-25.37-21.95-50.24-43.47-75.83-65.6Z"/>
        <path class="cls-3" d="M702.83,522.27c-4.71,2.16-8.78,4.23-13,5.93-6.25,2.52-12.21,2.13-17.03-3.08-4.67-5.04-5.22-10.85-2.88-17.24,2.25-6.14,4.72-12.29,6-18.65,1.59-7.88-1.66-12.38-9.48-14.59-3.49-.98-5.49-2.73-5.16-6.47.49-5.57-2.65-7.11-7.88-6.79-.39-6.52-4.24-7.73-9.94-6.55-5.32,1.1-9.23.07-10.5-6.5-.98-5.1-4.8-6.49-9.84-4.66-3.44,1.25-6.74,2.88-10.19,4.11-5.19,1.85-10.54,1.84-14.98-1.52-33.25-25.16-78.06-6.63-98.61,22.39-18.76,26.5-23.86,55.81-16.06,87.06,6.53,26.14,24.62,41.27,50,47.99,27.29,7.23,54.2,6.43,79.21-7.86,18.91-10.81,35.17-8.34,50.44,6.47,7.58,7.35,15.52,14.33,23.8,21.95,5.39-34.12,10.68-67.57,16.11-101.98Z"/>
        <path class="cls-2" d="M770.32,539.52c-39.09-3.62-77.13-7.15-113.54-10.52-2.86-10.96-4.89-21.21-8.27-30.99-3.24-9.36-10.88-13.84-20.75-14.56-9.22-.67-18.5-1.04-27.64-2.34-16.33-2.32-21.86-9.95-18.89-26.13.85-4.65,1.51-8.82-.15-12.58-1.46-3.31-4.33-3.5-4.45-5.32-.14-2.05,2.9-5.01,15.83-9.14-11.18.86-19.84-1.26-21.33-5.77-.47-1.42-.17-2.92,0-3.77,1.16-5.76,7.01-7.28,6.86-12.02-.03-1.04-.36-1.81-.52-2.25-.32-.85-1.28-2.86-7.41-5.59-9.83-4.38-15.7-2.95-18.06-7.21-.98-1.76-.82-3.55-.73-4.64.44-5.2,4.97-8.69,9.73-12.11,15.76-11.33,18.1-10.42,23.06-16.31,5.66-6.7,7.06-13.12,7.38-14.78.63-3.28.71-6.72.17-10.28-7.31-48.72,33.79-98.52,91.94-98.59,32.54-.04,63.47,5.36,90.77,24.18,40.34,27.8,57.49,89.08,35.52,129.46-7.05,12.95-16.87,24.48-26.06,36.16-14.66,18.63-26.42,38.54-24.08,63.12,1.45,15.21,5.65,30.15,8.66,45.21.39,1.96,1.1,3.85,1.94,6.77Z"/>
        <path class="cls-1" d="M836.89,691.82c-46.07,1.71-92.14,3.42-138.21,5.13,7.83-6.78,14.38-12.07,18.95-15.67,8.37-6.6,13.4-10.14,12.56-13.15-.61-2.19-4-3.31-8.32-4.02-5.7-.94-11.55-.98-17.35-1.22-14.69-.6-21.25-9.52-17.64-23.75.47-1.84.03-4.47-1.02-6.03-3.13-4.6-3.34-4.46-1.49-9.59-4.69-2.34-5.81-5.93-3.32-10.59,1.95-3.64.29-5.62-3.09-6.84-1.06-.38-2.13-.7-3.19-1.09-7.44-2.77-8.93-6.8-4.67-13.31,4.2-6.43,8.47-12.83,12.99-19.04,3.57-4.91,5.12-9.8,4.39-16.17-3.55-31.03,11.94-58.5,40.9-70.59,30.58-12.77,61.58-13.25,91,3.5,37.78,21.51,45.34,70.68,29.66,97.95-4.28,7.45-7.38,15.57-11.28,23.26-9.88,19.48-11.4,39.72-5.98,60.69,1.73,6.68,3.33,13.39,5.09,20.53Z"/>
        <path class="cls-2" d="M573.51,733.29c-17.83-17.6-35.66-35.19-53.49-52.79,5.6-8.06,11.21-15.17,15.74-22.9,4.34-7.4,2.99-14.92-2.08-21.76-4.74-6.39-9.71-12.66-13.98-19.35-7.64-11.96-5.74-19.88,6.57-27.08,5.29-3.1,9.63-5.86,9.19-13.12-.09-1.57,4.52-3.45,7.96-5.89-.76-3.63,2.74-6.47,7.63-7.87,6.66-1.91,8.78-6.15,7.55-12.61-.37-1.95-.5-3.95-.62-5.94-.33-5.29,2.13-7.81,7.52-7.69,8.65.21,17.31.38,25.97.33,8.18-.05,15.35-3.01,20.73-9.23,27.94-32.29,83.78-33.6,116.49,4.29,18.31,21.21,32.13,44.44,35.09,72.88,4.92,47.23-35.88,83.32-65.2,96.31-19.6,8.68-41.01,12.07-41.01,12.07-26.33,4.17-41.02-.18-52.46,11.31-5.43,5.45-7.63,11.97-15.02,13.58-6.35,1.39-12.46-1.73-16.58-4.53Z"/>
        <path class="cls-3" d="M473.83,77.13c3.76-1.6,12.38-4.62,22.63-2.37,10.6,2.33,17.28,9.05,20.12,11.91,7.86,7.9,7.23,13.1,15.61,20.63,1.03.93,3.13,2.73,4.46,5.84,1.38,3.24,1.48,6.9.56,10.9-1.46,6.37-3.15,12.78-3.62,19.26-.59,8.02,3.2,12.08,11.23,13.29,3.58.54,5.79,2.02,5.93,5.78.21,5.59,3.52,6.73,8.66,5.75,1.2,6.42,5.17,7.14,10.68,5.26,5.14-1.76,9.15-1.23,11.23,5.14,1.61,4.94,5.58,5.84,10.34,3.4,3.26-1.67,6.33-3.7,9.59-5.35,4.92-2.49,10.23-3.15,15.06-.37,36.14,20.81,78.28-3.17,95.04-34.54,15.3-28.63,16.7-58.35,5.06-88.39-9.74-25.12-29.59-37.87-55.6-41.36-27.98-3.76-54.58.39-77.61,17.7-8.59,6.46-16.94,9.62-25.24,9.64-9.55.02-13.55-6.87-25.61-9.76-9.33-2.24-17.54-1.2-22.72-.1-11.93,15.91-23.86,31.83-35.79,47.74Z"/>
        <path class="cls-2" d="M640.88,956.71c-21.72-5.3-37.67-16.35-40.4-40.56-2.38-21.14,12.3-42.3,33.31-45.77,55.62-9.2,111.33-17.93,167.08-26.32,19.31-2.91,39.09,9.96,45.31,27.87,6.63,19.09-.12,39.35-16.41,50.77-2.84,1.99-7.09,1.85-8.68,5.66-60.07,9.45-120.14,18.89-180.21,28.34ZM726.56,906.65c24.89-3.91,49.79-7.78,74.66-11.78,5.31-.86,12.34-.54,10.69-9.21-1.41-7.41-7.14-6.02-12.38-5.2-50.57,7.97-101.14,15.89-151.7,23.95-5.28.84-12.61.83-10.83,9.18,1.63,7.65,8.09,5.93,13.7,5.04,25.28-4.02,50.57-7.97,75.85-11.97Z"/>
        <path class="cls-2" d="M714.57,837.81c-37.9,5.97-75.74,12.42-113.73,17.75-35.68,5.01-61.22-26.47-48.44-58.93,4.98-12.64,14.12-21.15,27.23-24.9,5.74-1.64,11.69-2.6,17.6-3.53,71.46-11.27,142.94-22.46,214.4-33.73,11.25-1.77,22.23-2.03,32.52,3.95,16.99,9.88,25.22,26.61,22.19,45.26-2.96,18.23-16.95,32.57-36.89,35.93-38.23,6.44-76.58,12.17-114.88,18.2ZM707.66,802.45v-.04c36.69-5.77,73.39-11.55,110.09-17.31,5.46-.86,4.26-15.91-1.99-14.91-22.88,3.65-45.77,7.2-68.66,10.8-48.93,7.69-97.88,15.24-146.75,23.29-5.49.91-15.62-1.72-13.98,9.45,1.59,10.89,9.8,6.2,15.93,5.25,35.13-5.45,70.24-11.01,105.36-16.53Z"/>
        <path class="cls-2" d="M695.05,738.72c-45.63,7.16-91.25,14.36-136.88,21.5-20.53,3.21-27.81-2.31-31.32-23.19-5.27-31.31-13.75-61.6-27.34-90.48-11.7-24.86-28.34-45.1-51.01-60.66-51.97-35.68-91.27-82.12-114.55-140.83-45.9-115.76-31.29-224.42,44.41-322.98C433.46,50.32,508.17,9.51,598.24,1.55c119.54-10.56,218.49,32.73,289.39,128.95,75.26,102.13,83.37,214.04,31.34,329.85-7.37,16.4-15.97,32.43-27.52,46.36-34.92,42.14-41.84,91.6-38.42,143.83.78,11.83,2.26,23.62,3.81,35.38,2.68,20.3-2.09,27.39-22.33,30.87-19.5,3.36-39.1,6.15-58.66,9.22-26.94,4.22-53.88,8.47-80.83,12.69ZM690.01,700.2c34.33-5.4,68.66-10.81,102.99-16.19,23.7-3.71,22.91-3.63,21.03-27.21-4.87-61.22,4.43-118.59,43.19-169.3,68.47-89.58,72.8-220.33,11.93-314.85C784.92,41.87,620.84,1.18,486.43,80.07c-79.52,46.67-126.23,118.05-135.83,209.88-11.7,111.91,31.73,200.44,122.94,265.83,19.49,13.97,35.73,31.01,48.54,51.34,19.68,31.27,31.86,65.49,39.3,101.41,2.05,9.9,6.27,11.21,15.26,9.69,37.73-6.38,75.58-12.07,113.38-18.02Z"/>
      </g>
      <g>
        <path class="cls-1" d="M95.46,944.01c-24.77-.83-57.07-11.92-70.3-60.06-2.45-8.74-4.35-22.75-5.97-44.08-2.73-35.8-2.88-65.36-.45-87.84l.04-.32c4.02-31.5,17.61-56.4,40.4-74.02,21.77-16.82,52.13-26.82,90.26-29.73l2.28-.17c6.02-.46,11.96-.69,17.66-.69,32.9,0,60.74,7.75,82.75,23.02,22.19,15.4,38.54,38.46,48.58,68.55,5.22,15.43,8.97,38.85,11.46,71.55,1.66,21.8,2.23,41.57,1.7,58.79l.59,13.51-15.69,17.7-46.01,3.51-18.23-15.53-2.13-25.4c-.44.65-.87,1.26-1.31,1.83-11.59,16.06-29.58,25.13-53.47,26.95-.46.03-.9.07-1.33.09-1.39,5.27-3.63,10.6-6.71,15.96l-.23.39c-6.38,10.46-14.46,18.47-24,23.79-11.24,6.49-25.56,10.44-42.56,11.74l-5.47.42-1.86.04ZM101.75,759.24c-.6,4.79-1.21,13.93-1.21,31.33.04-.12.09-.25.13-.37l.17-.47c5.53-14.47,14.58-26.1,26.91-34.59,11.76-8.59,25.13-13.51,39.73-14.62,2.03-.15,4.07-.23,6.07-.23,15.9,0,30.78,4.85,44.23,14.41-5.69-12.43-14.12-19.81-26.49-23.2l-1.21-.38c-.32-.11-3.43-1.12-13.3-1.12-3.42,0-7.32.12-11.62.36l-10.76.82c-33.95,2.59-44.12,10.44-46.92,13.7l-.32.36c-2.7,2.97-4.52,7.69-5.42,14.01Z"/>
        <path class="cls-2" d="M169.37,664.1c59.02,0,97.41,26.65,115.21,79.96,4.73,14,8.28,36.48,10.64,67.45,1.64,21.57,2.19,40.77,1.64,57.6l.62,14.16-46.01,3.51-4.93-58.73c-2.17-28.54-4.05-47.18-5.64-55.92-1.58-8.73-4.02-16.65-7.31-23.73-7.74-17.43-20.35-28.53-37.82-33.31-3.94-1.4-10.27-2.1-19-2.1-3.79,0-8.04.13-12.74.4l-10.93.83c-29.76,2.27-49.27,8.79-58.53,19.58-5.07,5.58-8.31,13.31-9.69,23.19-1.34,10.49-1.69,29.91-1.06,58.27.13,5.8.59,13.7,1.35,23.72,1.55,20.35,3.87,32.69,6.95,37.04.89.96,2.64,1.44,5.25,1.44,1.28,0,2.77-.12,4.46-.35,6.63-1.11,10.09-1.84,10.37-2.16l-.75-21.93c-.76-25.9,1-44.97,5.26-57.21,4.33-11.33,11.28-20.25,20.87-26.79,9.25-6.81,19.65-10.66,31.19-11.54,1.61-.12,3.2-.18,4.78-.18,12.43,0,23.95,3.8,34.56,11.39,5.81,4.14,10.88,10.47,15.19,19,4.29,8.23,6.73,16.14,7.31,23.73.28,3.64.17,6.25-.32,7.81-.12,2.46-.07,5.05.13,7.78.12,1.52-1.55,5.77-4.98,12.75-3.13,6.96-5.82,11.9-8.03,14.81-8.56,11.96-22.25,18.65-41.08,20.08-2.03.15-3.78.23-5.26.23-.96,0-1.79-.03-2.52-.1-2.64-.36-4.64-.54-6-.54-.86,0-1.47.07-1.81.22l.17,2.28c.53,6.99-1.5,14.47-6.08,22.45-4.89,8.01-10.85,13.96-17.88,17.86-9.07,5.27-20.89,8.46-35.46,9.57l-5.47.42c-27.87-.93-46.03-16.8-54.48-47.62-2.1-7.47-3.9-21.08-5.4-40.82-2.66-34.92-2.83-63.16-.5-84.72,6.88-53.97,45.24-83.62,115.09-88.95l2.28-.17c5.62-.43,11.08-.64,16.36-.64M173.31,832.19c.53,0,1.07-.02,1.62-.06,4.25-.32,7.78-2.12,10.59-5.39,2.82-2.96,4.07-6.72,3.72-11.28-.49-6.38-4.19-10.83-11.1-13.36-1.85-.63-3.57-.95-5.16-.95-.29,0-.58.01-.87.03-3.95.3-7.32,2.24-10.09,5.81-2.76,3.88-3.99,7.79-3.69,11.73.3,3.95,2.08,7.33,5.35,10.13,2.59,2.22,5.8,3.33,9.63,3.33M169.38,630.1v34-34c-6.14,0-12.51.25-18.96.74l-2.28.17c-41.49,3.16-74.93,14.34-99.36,33.23-13.32,10.3-24.08,22.92-31.98,37.52-7.63,14.11-12.64,30.19-14.89,47.8l-.08.65c-2.58,23.84-2.45,53.6.4,90.96,1.71,22.43,3.79,37.48,6.54,47.32,6.01,21.84,16.22,39.18,30.35,51.53,15.09,13.19,33.85,20.25,55.76,20.98l3.72-.08,5.47-.42c19.51-1.49,36.22-6.16,49.66-13.9,12.09-6.76,22.22-16.76,30.12-29.72l.46-.78c1.67-2.9,3.14-5.81,4.42-8.73,14.4-2.31,25.8-7.03,34.77-12.72l30.55,26.02,46.01-3.51,31.38-35.39-.56-12.89c.52-17.67-.07-37.83-1.76-59.96-2.6-34.07-6.62-58.83-12.3-75.68-11.23-33.62-29.74-59.55-55-77.09-24.91-17.29-56.01-26.06-92.44-26.06h0Z"/>
      </g>
      <g>
        <path class="cls-1" d="M281,655.61c-5.11,0-11.31-.35-18.95-1.08-12.17-1.15-30.78-3.7-55.3-7.57-29.61-4.3-38.24-5.44-40.27-5.63l-.77-.09c-29.09-4.1-38.37-8-43.72-11.61-12.29-7.78-26.21-22.89-23.55-50.84,1.32-13.9,7.07-29.14,17.57-46.57l.14-.23c19.16-30.68,46.08-48.99,80-54.43,5.15-1.07,11-1.61,17.41-1.61,4.19,0,8.73.23,13.51.68,33.44,3.17,59.36,16.03,77.04,38.23,19.71,24.62,28.1,54.12,24.92,87.64-3.18,33.54-19.07,46.19-31.9,50.89-4.05,1.53-9.04,2.21-16.13,2.21ZM203.83,562.14c12.77,2.27,24.76,4.25,35.74,5.88-.4-.67-.77-1.22-1.09-1.65l-.27-.37c-1.38-1.95-6.68-4.74-17.11-6.21l-2.81-.27c-1.34-.13-2.66-.19-3.93-.19-4.58,0-8.66.81-12.41,2.5.56.09,1.88.32,1.88.32Z"/>
        <path class="cls-2" d="M213.56,492.96c3.67,0,7.64.2,11.91.61,28.81,2.73,50.58,13.37,65.35,31.9,16.96,21.19,24.05,46.33,21.29,75.44-1.9,20.01-8.86,32.2-20.91,36.56-1.97.76-5.37,1.14-10.2,1.14-4.53,0-10.31-.33-17.35-1-11.82-1.12-29.94-3.6-54.36-7.45-24.14-3.51-37.87-5.43-41.21-5.75-19.92-2.81-32.18-5.81-36.77-9-12.13-7.58-17.45-19.24-15.95-35.01,1.06-11.21,6.14-24.35,15.21-39.4,16.59-26.57,39.49-42.14,68.67-46.71,4.1-.89,8.88-1.33,14.31-1.33M166.74,575.64c.08-.86,1.45-1.3,4.1-1.3,1.06,0,2.33.07,3.81.21.61.06,9.34,1.5,26.2,4.32,14.74,2.62,28.3,4.83,40.67,6.61l21.74,2.98c-2.29-14.59-6.01-25.35-11.16-32.26-4.85-6.88-14.53-11.32-29.02-13.31l-3.18-.3c-1.88-.18-3.72-.27-5.53-.27-12.48,0-23.27,4.25-32.36,12.73-9.74,9.17-14.83,16.03-15.26,20.58M213.56,458.96h0c-7.52,0-14.23.62-20.48,1.89-19.18,3.13-36.67,10.01-52.02,20.44-15.32,10.42-28.55,24.45-39.33,41.71l-.28.46c-11.85,19.66-18.37,37.24-19.94,53.74-1.31,13.85.63,26.59,5.77,37.89,5.37,11.79,13.92,21.47,25.42,28.8,8.11,5.4,20.19,9.91,50.64,14.2l1.53.18c1.3.13,7.77.93,39.33,5.52,25.16,3.97,43.56,6.48,56.24,7.68,8.18.78,14.91,1.15,20.56,1.15,9.2,0,16.03-1.01,22.07-3.28,13.46-4.95,24.48-14.42,31.9-27.4,5.96-10.43,9.56-22.8,10.98-37.81,3.61-38.04-6-71.63-28.55-99.84h0c-20.67-25.94-50.52-40.93-88.73-44.56-5.31-.5-10.4-.76-15.12-.76h0Z"/>
      </g>
      <g>
        <path class="cls-1" d="M385.34,911.04c-7.88,0-15.51-1.65-22.67-4.91-13.21-5.65-23.74-16.36-31.3-31.85-6.4-12.76-12.08-31.84-17.37-58.33-6.15-30.79-8.92-54.5-8.46-72.48,1.1-47.56,21.15-84.24,59.6-108.99,9.68-6.16,22.54-12.23,39.38-18.61l2.7-.78.57-.11c1.69-.65,3.42-1.15,5.16-1.5,9.18-1.83,19.59-2.76,30.92-2.76,1.12,0,2.26,0,3.4.03,18.17.36,35.84,4.84,52.57,13.31,30.02,15.3,54.14,46.16,71.73,91.76,2.26,5.68,6.24,18.26,14.8,61.11,2.8,14.03,4.59,24.63,5.47,32.39,1.15,10.16,1.6,19.84-5.57,26.59l-8.33,4.3-.19.04c-2.33,1.08-4.92,1.91-7.7,2.47-1.21.24-3.25.59-8.35,1.13h-.11c-2.53.26-4.57.54-6.05.84l-.99.17-23.12,3.22-19.02-13.51-9.22-46.14c-1.04-5.19-2.07-10.03-3.1-14.55-1.78,9.81-4.93,20.45-9.46,32.02-9.21,23.78-22.34,45.99-38.98,65.96l-.08.1c-18.55,21.91-36.36,34.31-54.45,37.93-3.97.79-7.94,1.19-11.8,1.19Z"/>
        <path class="cls-2" d="M443.87,627.71c1.03,0,2.08,0,3.14.02,15.59.31,30.64,4.13,45.15,11.48,26.27,13.39,47.47,40.99,63.59,82.8,3.1,7.77,7.76,27.18,13.96,58.24,5.37,26.88,7,41.31,4.92,43.27l-1.79.36c-.9.18-1.61.48-2.15.9-1.14.54-2.45.96-3.94,1.25-1.2.24-3.47.54-6.81.89-3.05.3-5.62.66-7.71,1.07l-23.12,3.22-9.22-46.14c-7.28-36.43-15.66-62.09-25.15-76.97-13.49-20.69-30.89-31.03-52.2-31.03-4.16,0-8.47.39-12.93,1.18-20.61,4.12-36.02,13.25-46.24,27.4-6.04,8.66-9.65,18.55-10.85,29.65-1.14,11.41-.07,29.21,3.21,53.4.18.9.35,2.57.54,5.02.18,2.45.42,4.42.72,5.91,5.41,27.07,9.16,41.22,11.25,42.45-.14.04-.28.08-.42.1l.45-.09s-.02,0-.03-.01c3.9-1.14,9.91-7.61,18.04-19.42l4.39-6c-11.17-6.15-19.26-12.46-24.27-18.91-5.32-6.39-8.92-14.36-10.83-23.92-1.31-6.57-1.49-12.9-.53-18.99,2.03-11.59,7.56-22.01,16.58-31.26,9.02-9.25,19.2-15.02,30.56-17.28,2.69-.54,4.9-.8,6.65-.8.58,0,1.11.03,1.59.09.3,0,.61,0,.91,0,12.94,0,24.37,3.55,34.3,10.68,9.79,7.05,15.85,16.4,18.18,28.05,2.86,14.34-.13,32.8-8.97,55.36-8.61,22.22-20.68,42.64-36.21,61.27-15.83,18.69-30.77,29.44-44.8,32.24-2.89.58-5.71.86-8.47.86-5.52,0-10.79-1.16-15.81-3.47-9.5-4-17.14-11.95-22.93-23.84-5.67-11.28-10.98-29.32-15.93-54.12-5.84-29.27-8.56-52.17-8.13-68.72.97-41.81,18.23-73.52,51.81-95.13,8.54-5.43,20.61-11.1,36.2-17.01.29-.06,1.04-.21,2.24-.45,1.13-.53,2.3-.92,3.49-1.16,8.14-1.63,17.34-2.44,27.59-2.44M430.02,778.9c1.22,0,2.48-.13,3.78-.39,4.48-.89,8.09-3.01,10.84-6.36,2.45-3.28,3.29-6.87,2.51-10.75-1.25-6.27-5.05-10.48-11.37-12.64-1.76-.66-3.52-1-5.28-1-.93,0-1.85.09-2.78.28-4.19.84-7.59,3.23-10.22,7.16-2.33,3.89-3.08,7.92-2.24,12.09.66,3.29,1.91,5.68,3.76,7.17,3.22,2.95,6.89,4.42,11,4.42M443.87,593.71h0c-12.45,0-23.98,1.04-34.25,3.09-2.46.49-4.89,1.18-7.26,2.05l-3.86,1.11c-17.94,6.8-31.81,13.38-42.4,20.12l-.15.1c-21.56,13.87-38.24,31.48-49.59,52.32-11.21,20.58-17.2,44.33-17.81,70.61-.48,19.25,2.39,44.17,8.78,76.17,5.58,27.95,11.73,48.4,18.8,62.54,9.37,19.16,22.72,32.57,39.68,39.87,9.34,4.22,19.27,6.36,29.54,6.36,4.98,0,10.07-.51,15.13-1.52,22-4.39,42.96-18.66,64.09-43.61l.17-.2c12-14.39,22.29-29.87,30.76-46.25l.28,1.42,38.03,27.02,23.12-3.22,1.97-.33c.43-.09,1.72-.31,4.41-.58l.23-.02c4.57-.49,7.53-.89,9.88-1.36,4.23-.85,8.22-2.15,11.87-3.88l.69-.42c-1.43.68-2.9,1.23-4.4,1.66l16.38-8.45c13.96-13.15,11.91-31.19,10.81-40.88-.94-8.24-2.8-19.3-5.7-33.8-8.69-43.52-12.93-57.12-15.64-63.97-9.18-23.78-20.18-44.09-32.68-60.37-13.66-17.78-29.51-31.35-47.13-40.33l-.07-.04c-19.03-9.64-39.16-14.73-59.84-15.14h-.14c-1.23-.02-2.46-.03-3.67-.03h0Z"/>
      </g>
      <g>
        <path class="cls-1" d="M1073.35,738.63c-20.73-3.87-28.42-7.17-32.95-14.12l-2.05-4.44c-1.41-4.75-1.5-10.84-.31-21.05,3.36-28.73,4.77-58.9,4.2-89.65v-.37c.03-12.17-1.43-25.03-4.35-38.22l-.03-.12c-1.19-5.56-2.38-9.12-3.31-11.32-2.04,1.13-5.04,3.06-9.19,6.34-2.96,2.34-5.6,4.34-7.95,6.04,6.53,8.63,10.7,17.85,12.44,27.55l.11.66c1.21,8.69,1.44,16,.7,22.34-2.65,22.63-17.49,44.66-45.38,67.34l-.12.1c-38.18,30.48-70.25,45.3-98.03,45.3-.69,0-1.38,0-2.06-.03l-1.51-.11-3.63-.42c-27.31-3.19-45.27-20.64-50.58-49.13-3.07-15.4-2.66-39.16,1.25-72.64.87-7.42,2.5-17.38,4.98-30.46,5.7-31.6,13.11-54.19,22.65-69.04,18.36-28.8,45.95-44.05,79.75-44.05,4.75,0,9.7.3,14.72.88,14.62,1.71,28.76,6.88,42.03,15.38l.42.28.82.56c13.54-6.86,26.57-10.33,38.78-10.33,2.48,0,4.95.14,7.36.42l7.26.85.48.06c13.27,1.94,23.31,5.43,30.7,10.66,23.82,16.14,37.81,46.76,42.77,93.61,1.43,12.87,1.81,32.46,1.17,59.81-.63,26.73-1.88,48.16-3.7,63.71-.82,7.03-1.85,12.64-3.16,17.15l-.83,2.25-3.73,8.3-18.55,9.76-21.17-3.85Z"/>
        <path class="cls-2" d="M937.97,486.13c4.11,0,8.36.26,12.74.77,12.09,1.41,23.71,5.69,34.84,12.81l8.94,6.11,6.32-2.94c12.24-6.65,23.55-9.97,33.91-9.97,1.83,0,3.62.1,5.39.31l7.26.85c10.55,1.54,18.37,4.15,23.46,7.8,19.33,13,31.18,40.14,35.55,81.43,1.34,12.12,1.7,31.32,1.08,57.62-.62,26.3-1.82,47.01-3.59,62.13-.71,6.05-1.58,10.85-2.61,14.41l-3.73,8.3-21.17-3.85c-13.21-2.46-20.46-4.69-21.76-6.68-.66-2.22-.57-6.97.28-14.22,3.47-29.64,4.9-60.29,4.31-91.94.04-13.48-1.55-27.47-4.75-41.95-3.57-16.67-8.84-25.41-15.79-26.22-.39-.05-.79-.07-1.2-.07-5.39,0-12.95,3.85-22.67,11.53-9.8,7.75-16.09,11.77-18.89,12.05-.39.08-.89.12-1.53.12-.91,0-2.09-.08-3.52-.25-7.56-.88-15-5.43-22.32-13.65-7.82-9.19-15.81-14.27-23.98-15.22-2.46-.29-4.57-.43-6.34-.43-1.28,0-2.38.07-3.29.22-10.61,1.52-18.86,7.91-24.78,19.18-5.17,10.13-9.7,31.83-13.59,65.1-1.31,11.19-2.11,19.38-2.41,24.55-.97,15.63-1.61,23.81-1.9,24.56-.08,0-.16,0-.23,0-.1,0-.19,0-.28-.01l.45.05s.01.01.02.01c.01,0,.03-.02.04-.06,1.77-.12,5.45-1.51,11.01-4.18,6.47-2.92,10.22-4.78,11.23-5.59l-4.35-6.03c-5.61-7.1-9.18-13.33-10.69-18.73-1.82-5.42-2.06-13.88-.71-25.38,1.49-12.7,4.22-21.73,8.23-27.09,11.93-16.9,27.48-25.35,46.64-25.35,2.68,0,5.42.16,8.24.49,13,1.52,24.32,6.98,33.96,16.39,9.66,9.11,15.43,18.82,17.29,29.16,1,7.17,1.22,13.18.65,18.01-2.09,17.85-15.16,36.56-39.22,56.13-34.72,27.72-63.86,41.58-87.43,41.58-.54,0-1.07,0-1.6-.02l-3.63-.42c-19.96-2.33-31.92-14.15-35.87-35.47-2.72-13.5-2.23-35.98,1.45-67.44.81-6.95,2.42-16.74,4.81-29.33,5.25-29.12,11.99-50.11,20.24-62.94,15.4-24.16,37.22-36.24,65.45-36.24M955.24,634.49c3.67,0,6.83-1.28,9.48-3.84,3.41-2.97,5.37-6.57,5.86-10.81.67-5.74-1.41-10.28-6.23-13.61-2.58-1.52-5.23-2.45-7.96-2.77-.48-.03-.95-.04-1.41-.04-4.23,0-7.72,1.08-10.46,3.25-3.08,2.71-4.86,6.18-5.36,10.41-.92,7.87,2.44,13.16,10.1,15.9.84.72,2.16,1.17,3.98,1.39.68.08,1.35.12,2,.12M937.97,452.13c-39.88,0-72.42,17.95-94.09,51.91-10.75,16.75-18.94,41.32-25.03,75.08-2.55,13.44-4.23,23.77-5.15,31.57-4.17,35.69-4.51,60.44-1.06,77.83,6.73,35.84,30.52,58.73,65.3,62.8l3.63.42,3.03.22c.84.02,1.68.03,2.52.03,31.79,0,67.33-16.03,108.64-49.01l.24-.19c10.76-8.75,19.81-17.52,27.2-26.35-.57,6.94-1.25,13.81-2.05,20.6-1.5,12.84-1.25,20.65.9,27.87l4.1,8.87c9.16,14.06,24.68,17.94,44,21.54l.14.03,21.17,3.85,37.11-19.52,3.73-8.3,1.65-4.51c1.56-5.42,2.78-11.93,3.71-19.89,1.9-16.29,3.15-37.64,3.81-65.27.66-28.06.24-48.36-1.27-62.08-2.58-24.31-7.42-44.36-14.81-61.28-8.45-19.36-20.29-34.31-35.18-44.45-9.6-6.76-22.01-11.17-37.91-13.5l-.97-.13-7.26-.85c-3.06-.36-6.21-.54-9.34-.54-12.15,0-24.77,2.72-37.66,8.1-13.48-7.5-27.71-12.16-42.41-13.88-5.67-.66-11.29-1-16.69-1h0Z"/>
      </g>
      <g>
        <path class="cls-1" d="M1029.2,412.6c-.75.02-1.51.03-2.3.03-4.15,0-8.67-.29-13.82-.89-10.05-1.18-17.27-5.01-21.46-11.41l-2.28-5.23c-.81-3.26-1.45-7.88-.5-28.34l.1-1.18c.17-1.45.46-4.54.87-11.02.12-6.37.53-12.63,1.21-18.63.34-5.34.59-9.97.74-13.77v-.18c.95-18.96,1.4-24.06,1.66-26.24l.53-4.54,1.33-4.89c4.56-10.32,14.97-15.55,30.96-15.55.52,0,1.05,0,1.6.02,22.9.29,23.45.36,24.64.5,18.37,2.15,22.45,13.78,23.36,18.98.58,2.89,1.17,7.76-.94,41.68-1.36,22.39-2.55,37.76-3.63,46.96l-2.28,19.51-17.51,15.01-22.31-.82Z"/>
        <path class="cls-2" d="M1026.26,287.76c.43,0,.87,0,1.32.01,14.7.19,22.35.31,22.95.38,5.44.64,8.31,2.35,8.6,5.14.59,2.83.2,15.36-1.17,37.58-1.33,21.92-2.52,37.27-3.54,46.04l-2.28,19.51-22.9-.84c-.75.03-1.53.04-2.33.04-3.47,0-7.42-.26-11.84-.78-4.84-.57-7.91-1.84-9.21-3.84-.62-2.52-.63-10.34-.02-23.46.28-2.42.61-6.52.98-12.3.1-6.12.49-12.05,1.16-17.8.37-5.78.64-10.66.79-14.63.68-13.72,1.2-22.09,1.56-25.11l.53-4.54c1.59-3.61,6.73-5.42,15.41-5.42M1026.26,253.76h0c-8.28,0-15.36,1.07-21.64,3.28-11.44,4.02-20.27,11.98-24.87,22.4l-2.67,9.78-.53,4.54c-.33,2.8-.79,8.24-1.74,27.37l-.02.36c-.14,3.55-.37,7.9-.69,12.93-.7,6.27-1.13,12.79-1.27,19.41-.41,6.41-.67,8.95-.77,9.77l-.19,2.36c-.97,20.81-.44,27.52.98,33.22l4.56,10.46c4.87,7.43,14.66,16.75,33.71,18.98,5.81.68,10.97,1.01,15.79,1.01.74,0,1.48,0,2.2-.02l21.79.8,35.01-30.03,2.28-19.51c1.11-9.53,2.33-25.21,3.71-47.92,2.02-32.59,1.72-40.07.77-45.31-1.8-11.19-8.43-20.9-18.44-26.89-5.66-3.39-12.12-5.47-19.74-6.36-2.22-.26-2.62-.31-26.35-.61-.63-.01-1.26-.02-1.87-.02h0Z"/>
      </g>
      <g>
        <path class="cls-1" d="M1297.77,770.94c-11.56,0-26.54-.68-44.53-2.03l-41.97-2.63c-.66.05-1.33.07-2,.07-1.11,0-2.27-.07-3.43-.2-15.09-1.76-27.56-6.79-37.07-14.95-10.9-8.89-17.52-21.86-19.7-38.57-.61-4.32-.96-12.15,1.59-33.98,5.44-46.5,9.7-60.5,12.8-67.5l.11-.23c1.29-2.8,2.7-5.47,4.21-8.01l-7.57-6.31-1.21-1.11c-3.32-3.36-7.84-6.99-13.44-10.8l-.21-.14c-6-4.22-18.49-12.99-16.89-26.69.84-7.19,4.9-14.09,26.74-35.99l.24-.24c18.62-17.94,44.43-28.65,76.71-31.83,2.79-.3,5.95-.45,9.38-.45,6.69,0,14.57.54,24.08,1.65,18.72,2.19,31.58,5.11,40.42,9.2,58.51,25.49,83.09,90.54,73.06,193.33l-.03.32c-1.97,16.89-4.19,28.18-6.96,35.53-3.09,8.16-8.33,15.93-15.6,23.11l-.34.33c-10.24,9.58-23.24,15.35-38.67,17.16-5.26.64-11.7.96-19.7.96ZM1287.43,687.11c3.35.15,6.32.26,8.92.34.02-.17.04-.34.06-.51.63-5.37,1.1-10.79,1.43-16.23-2.67,5.89-6.14,11.36-10.4,16.4ZM1282.41,592.01c4.47,4.14,8.12,8.24,11.02,12.36-2.79-10.6-6.27-16.41-9.13-19.57l-.31-.35c-4.44-5.19-12.11-8.58-22.79-10.07l-5.72-.67c-2.12-.25-4.23-.42-6.29-.52,4.14,1.07,7.78,2.37,10.97,3.92,7.66,3.06,15.15,8.06,22.26,14.9Z"/>
        <path class="cls-2" d="M1241.52,506.34c5.96,0,13.33.51,22.1,1.54,16.63,1.94,28.44,4.55,35.42,7.82,51.36,22.26,72.4,80.98,63.11,176.18-1.77,15.13-3.77,25.63-5.98,31.5-2.22,5.88-6.11,11.55-11.65,17.04-7.58,7.09-17.27,11.32-29.08,12.7-4.53.56-10.42.83-17.68.83-11.2,0-25.65-.66-43.36-1.99l-42.46-2.67c-.3-.04-.61-.07-.91-.11-.55.11-1.14.17-1.77.17-.46,0-.95-.03-1.46-.09-11.8-1.38-21.18-5.08-28.14-11.11-7.57-6.1-12.16-15.37-13.76-27.83-.68-4.68-.14-14.58,1.63-29.7,3.89-33.27,7.71-54.13,11.46-62.59,6.98-15.12,17.8-25.06,32.46-29.78,2.79-.92,6.42-1.39,10.89-1.39,3.18,0,6.78.23,10.81.71,8.77,1.03,15.47,2.73,20.1,5.11,5.87,2.22,11.7,6.13,17.49,11.7,6.08,5.62,10.21,11.01,12.37,16.16,3.55,9,4.82,17.74,3.83,26.2-1.88,16.04-9.54,29.09-22.98,39.17-7.09,5.39-16.48,8.09-28.16,8.09-3.29,0-6.77-.21-10.42-.64l-10.89-1.27-.21,1.81c-.28,2.42-.48,4.08-.58,4.99l.91.11c1.13.75,3.07,1.28,5.79,1.6.6.07,7.01.36,19.22.87,33.27,2.09,54.79,3.14,64.54,3.14,3.54,0,5.53-.14,5.97-.41.98-.5,2.03-5.58,3.17-15.27,2.58-22.08,2.74-44.44.49-67.09-2.57-22.68-8.19-38.82-16.87-48.43-7.28-8.51-18.47-13.81-33.56-15.88l-5.9-.69c-4.13-.48-8.17-.72-12.11-.72-10.79,0-20.89,1.81-30.3,5.42-4.79,1.59-8.55,3.6-11.28,6.04-3.08,2.71-9,8.76-17.76,18.16l-5.28,5.82-9.64-8.03c-4.11-4.16-9.44-8.46-15.97-12.91-6.8-4.78-10.06-8.38-9.78-10.8.35-3.02,7.65-11.68,21.89-25.96,15.89-15.31,38.11-24.36,66.65-27.16,2.22-.24,4.77-.36,7.65-.36M1232.45,657.74c3.47,0,6.7-1.12,9.67-3.35,3.53-2.65,5.54-6.09,6.04-10.33.64-5.44-1.29-9.96-5.77-13.55-2.48-2.43-5.23-3.83-8.25-4.18-.5-.06-1-.09-1.5-.09-3.12,0-6.2,1.15-9.24,3.43-3.53,2.66-5.54,6.1-6.04,10.33-.57,4.84.42,8.87,2.96,12.07,2.53,3.21,5.92,5.06,10.16,5.56.67.08,1.32.12,1.97.12M1241.53,472.34v34-34h0c-4.06,0-7.7.17-11.11.53-36.15,3.57-65.35,15.85-86.78,36.5l-.48.47c-23.31,23.37-30.1,33.26-31.59,46.02-.91,7.82.22,19.6,10.79,31.28,3.36,3.72,7.68,7.41,13.21,11.29l.42.29c5.62,3.82,8.9,6.69,10.7,8.49-3.57,9.23-7.84,26.06-12.91,69.45-2.74,23.44-2.39,32.32-1.55,38.25,3.42,26.05,15.71,41.14,25.63,49.3,12.1,10.32,27.58,16.65,46.01,18.8,1.81.21,3.63.32,5.4.32.66,0,1.31-.01,1.96-.04l40.85,2.56c18.62,1.39,33.56,2.07,45.7,2.07,8.67,0,15.77-.35,21.71-1.07,19.1-2.25,35.34-9.52,48.27-21.63l.68-.65c9.01-8.91,15.59-18.73,19.54-29.17,3.33-8.83,5.79-21.03,7.95-39.59l.07-.65c5.19-53.15,1.71-95.74-10.64-130.21-6.72-18.76-16.18-35.04-28.12-48.4-12.21-13.66-27.1-24.39-44.26-31.89-10.51-4.82-24.96-8.18-45.4-10.57-10.17-1.19-18.7-1.77-26.05-1.77h0Z"/>
      </g>
    </g>
  </g>
</svg>