<?xml version="1.0" encoding="UTF-8"?>
<svg id="Layer_2" data-name="Layer 2" xmlns="http://www.w3.org/2000/svg" viewBox="0 0 299.75 87.68">
  <defs>
    <style>
      .cls-1 {
        fill: #fff;
        stroke-width: 0px;
      }
    </style>
  </defs>
  <g id="Layer_1-2" data-name="Layer 1">
    <g id="Layer_1-2" data-name="Layer 1-2">
      <path class="cls-1" d="M168.89,46.08v17.36c0,3.66.01,7.32-.01,10.98,0,.55.15.71.69.69.88-.05,1.77-.07,2.65,0,.78.07.92-.21.92-.94-.02-18.74-.02-37.47-.02-56.21,0-.13-.01-.26,0-.39.05-.41-.13-.54-.54-.53-.96.02-1.93.06-2.88-.01-.73-.05-.83.22-.83.87.02,9.39.01,18.79.01,28.18h0ZM177.53,50.06c0,8.04,0,16.09-.01,24.13,0,.68.12.98.88.91.83-.07,1.67-.07,2.49,0,.75.06.95-.16.95-.92-.02-16.06-.02-32.12-.02-48.18,0-.1-.01-.21,0-.31.07-.46-.16-.58-.58-.56-.93.02-1.87.05-2.8,0-.71-.04-.92.16-.91.89.03,8.02.02,16.03.02,24.05h0ZM244.07,59.64c-.06-.03-.12-.05-.18-.08,0-.85-.02-1.7,0-2.55.01-.43-.11-.61-.56-.59-.96.03-1.92.02-2.88,0-.44-.01-.58.13-.58.58.01,5.84.01,11.68,0,17.52,0,.45.14.59.58.57,1.01-.03,2.03-.04,3.04,0,.57.02.69-.19.68-.71-.02-2.67.08-5.35-.04-8.02-.07-1.59.17-2.9,1.55-3.84.21-.14.38-.36.53-.57,1.08-1.55,2.53-2.11,4.41-1.87,1.08.14,2.21,1.13,2.21,2.22,0,4,.02,7.99-.02,11.99,0,.66.2.84.83.8.91-.05,1.82-.05,2.73,0,.59.03.8-.12.8-.76-.03-4.44-.02-8.88,0-13.31,0-.42-.1-.73-.41-1.03-1.06-1.03-2.11-2.08-3.14-3.14-.29-.3-.6-.44-1.03-.44-1.59.02-3.17.02-4.76,0-.43,0-.73.15-1.02.45-.9.93-1.82,1.85-2.73,2.77h0ZM137.97,40.5c.06.04.13.08.19.12,0,.85.03,1.69-.01,2.54-.03.53.16.66.66.64.88-.04,1.77-.04,2.65,0,.54.02.72-.14.71-.69-.03-2.13-.01-4.26-.01-6.38,0-3.61-.01-7.21.01-10.82,0-.62-.17-.82-.79-.79-.91.05-1.82.04-2.73,0-.59-.03-.81.11-.8.76.04,2.33.02,4.67.02,7.01,0,1.09.27,2.3-.12,3.23-.39.93-1.52,1.53-2.18,2.38-1.05,1.35-2.32,1.88-4.03,1.68-1.18-.14-2.29-1.11-2.29-2.29,0-4.02,0-8.04.01-12.07,0-.54-.14-.73-.69-.7-.96.04-1.92.05-2.88,0-.61-.03-.74.2-.73.76.02,4.52.02,9.03,0,13.55,0,.42.12.73.43,1.03.99.96,1.96,1.93,2.92,2.92.29.3.6.43,1.02.43,1.56-.02,3.12-.04,4.68,0,.58.02.97-.17,1.35-.58.85-.93,1.74-1.82,2.62-2.72h0ZM115.57,59.88c0-1.12-.02-1.97,0-2.83.01-.43-.13-.6-.57-.58-.93.03-1.87.03-2.81,0-.44-.01-.58.13-.58.58.01,5.84.01,11.67,0,17.51,0,.48.2.55.6.54.99-.02,1.98-.04,2.96,0,.55.02.7-.15.69-.69-.03-2.46.14-4.94-.06-7.39-.18-2.16.56-3.64,2.09-5.13,1.33-1.29,2.59-2.05,4.46-1.8,1.05.14,2.2,1.16,2.2,2.23,0,3.97.01,7.94-.01,11.91,0,.64.09.94.83.88.9-.07,1.82-.05,2.73,0,.53.02.71-.11.71-.68-.02-4.51-.02-9.03,0-13.54,0-.37-.1-.63-.36-.89-1.06-1.03-2.11-2.08-3.14-3.14-.28-.28-.56-.4-.96-.39-1.56.02-3.12.02-4.68,0-.51,0-.88.13-1.23.5-.88.94-1.81,1.84-2.87,2.92h0ZM261.38,65.79c0,1.64.02,3.27,0,4.91,0,.5.12.87.49,1.23.96.92,1.87,1.87,2.79,2.83.26.27.54.35.9.35,2.96-.01,5.93,0,8.89,0,.33,0,.59-.06.83-.31.98-1.01,1.98-1.99,2.97-2.98.23-.24.46-.47.44-.87-.03-.73-.03-1.45,0-2.18.02-.42-.15-.54-.55-.53-.86.02-1.72,0-2.57,0-.8,0-1.2.39-1.21,1.18,0,.87-1.18,2.04-2.05,2.05-1.53,0-3.07,0-4.6,0-.76,0-2-1.2-2-1.93,0-2.49,0-4.98,0-7.47,0-.73,1.2-1.93,1.93-1.93,1.61-.01,3.22,0,4.84,0,.21,0,.41,0,.57.17.7.7,1.63,1.26,1.33,2.51-.1.39.1.55.52.54,1.09-.02,2.18-.02,3.27,0,.41,0,.55-.14.53-.54-.02-.7-.02-1.4,0-2.1.01-.34-.11-.58-.35-.82-1.01-1.01-2.02-2.02-3.02-3.04-.27-.29-.56-.4-.96-.4-2.89.01-5.77.01-8.66,0-.42,0-.74.1-1.04.41-.93.98-1.87,1.95-2.84,2.88-.36.34-.45.7-.45,1.17.02,1.64,0,3.27,0,4.91h0ZM186.65,34.46c0,1.69.01,3.37,0,5.06,0,.42.11.73.42,1.02.95.92,1.89,1.85,2.81,2.81.32.33.65.44,1.09.44,2.05-.02,4.12-.16,6.15.03,2.24.21,3.82-.52,5.31-2.2,1.07-1.2,1.75-2.29,1.5-3.87-.01-.08,0-.16,0-.23.04-.42-.11-.61-.57-.6-1.06.03-2.13.03-3.19,0-.47-.01-.59.18-.55.59.02.21,0,.42,0,.62-.01.78-1.23,2.01-2.01,2.02-1.58,0-3.17,0-4.75,0-.71,0-1.97-1.28-1.97-1.99,0-2.46,0-4.93,0-7.39,0-.71,1.25-1.95,1.98-1.96,1.58,0,3.17,0,4.75,0,.23,0,.46-.04.66.15.7.7,1.64,1.25,1.35,2.49-.1.43.12.59.56.57,1.06-.02,2.13-.02,3.19,0,.4,0,.56-.13.55-.54-.02-.73-.02-1.45,0-2.18,0-.32-.16-.53-.36-.74-.97-.98-1.94-1.95-2.89-2.95-.33-.34-.67-.5-1.16-.5-2.88.02-5.77.02-8.65,0-.43,0-.73.14-1.02.44-.92.95-1.85,1.9-2.8,2.82-.31.3-.42.61-.42,1.03.02,1.69,0,3.37,0,5.06h0ZM134.75,65.8c0,1.69,0,3.37,0,5.06,0,.36.06.64.34.9,1.03.99,2.03,2.01,3.04,3.02.19.19.38.32.67.32,1.82,0,3.64-.02,5.45,0,.45,0,.5-.21.5-.57-.02-.83-.03-1.66,0-2.49.02-.45-.15-.57-.58-.56-1.06.03-2.13.01-3.19,0-.72,0-1.89-1.13-1.89-1.85,0-2.98,0-5.97-.01-8.95,0-.5.17-.61.63-.6,1.45.02,2.91-.02,4.36.02.56.01.72-.17.69-.7-.04-.78-.05-1.56,0-2.33.03-.55-.2-.65-.68-.64-1.38.02-2.76-.04-4.13.03-.75.04-.9-.24-.88-.92.05-1.45,0-2.9.03-4.36.01-.55-.1-.79-.72-.76-.93.05-1.87.05-2.8,0-.62-.04-.73.2-.72.76.03,1.48-.02,2.96.03,4.44.02.63-.13.89-.81.84-.7-.06-1.4,0-2.1-.02-.4-.01-.55.12-.54.54.02.88.02,1.76,0,2.65,0,.38.14.5.5.49.73-.02,1.46.02,2.18-.02.52-.03.66.15.65.66-.03,1.69-.01,3.37-.01,5.06h0ZM106.37,62.02c0-4.1-.02-8.2.02-12.3,0-.72-.21-.87-.87-.83-.96.06-1.92.04-2.88,0-.53-.02-.65.16-.65.66.02,2.44.01,4.88.01,7.32,0,5.79.02,11.57-.02,17.36,0,.74.22.92.91.88.91-.06,1.82-.06,2.73,0,.64.04.76-.2.76-.79-.02-4.1-.01-8.2-.01-12.3h0ZM191.48,65.76c0-2.88-.01-5.76.01-8.64,0-.54-.15-.72-.69-.7-1.01.04-2.03.02-3.04,0-.4,0-.61.06-.61.54.01,5.86.01,11.72,0,17.59,0,.41.13.54.53.54,1.04-.02,2.08-.04,3.12,0,.55.02.7-.16.69-.7-.02-2.88-.01-5.76-.01-8.64h0ZM238.3,39.02h.05v-1.4c0-1.34,0-1.36-1.32-1.32-.24,0-.71-.29-.73.24,0,.31-.35.9.42.9.15,0,.18.16.18.29-.02,1.22.03,2.44-.08,3.65-.07.87-.81,1.35-1.64,1.28-.86-.07-1.4-.64-1.43-1.53-.02-.62,0-1.24,0-1.87-.02-1.14-.46-2.08-1.48-2.64-1.31-.72-2.68-.72-4.03-.09-.94.44-1.41,1.25-1.56,2.26-.03.19-.05.39.11.5.55.38.46.93.46,1.47s-.03,1.09,0,1.63c.09,1.13,1.33,1.77,2.32,1.27.32-.16.25-.41.27-.65.03-.28-.11-.36-.37-.35-.59.02-.74-.34-.73-.86.01-.6,0-1.19,0-1.79,0-.33-.02-.64-.3-.84-.4-.29-.28-.62-.1-.95.41-.76,1.4-1.13,2.36-.91.95.22,1.49.85,1.51,1.8.02.67,0,1.35,0,2.02.02,1.39.91,2.39,2.29,2.6,1.82.28,3.28-.43,3.7-1.79.05-.15.07-.3.07-.46,0-.83,0-1.66,0-2.48h0ZM251.71,39.09v-1.4c0-1.44,0-1.45-1.48-1.4-.19,0-.55-.17-.53.22.01.31-.27.75.24.91.21.07.32.14.31.36-.01,1.22.03,2.44-.05,3.65-.05.8-.79,1.29-1.61,1.24-.83-.05-1.41-.61-1.45-1.43-.02-.65.01-1.3,0-1.95-.04-1.23-.52-2.21-1.67-2.76-1.24-.59-2.52-.58-3.76-.03-.97.43-1.49,1.24-1.64,2.3-.03.23-.02.43.16.56.44.33.43.78.42,1.25-.02.54-.02,1.09,0,1.63.03,1.2,1.14,1.91,2.25,1.47.35-.14.34-.38.36-.68.02-.35-.19-.36-.44-.36-.5,0-.67-.3-.66-.76.01-.34.01-.67,0-1.01-.02-.68.18-1.41-.5-1.94-.2-.16-.05-.37.04-.56.37-.83,1.29-1.28,2.26-1.1,1.03.19,1.64.85,1.67,1.83.02.67,0,1.35,0,2.02.02,1.39.91,2.41,2.28,2.61,1.81.27,3.22-.39,3.69-1.72.09-.25.1-.51.1-.76,0-.73,0-1.45,0-2.18h0ZM225,37.27c0-1.25-.02-2.49,0-3.73.01-.58,0-.94-.79-.92-.74.02-.75.32-.74.88.02,2.46.01,4.93,0,7.39,0,1.1-.67,1.78-1.71,1.78s-1.74-.67-1.76-1.74c-.02-1.06,0-2.13,0-3.19,0-1.49,0-1.49-1.53-1.45-.22,0-.6-.16-.57.28.02.3-.28.77.33.85.37.05.24.35.24.55.01,1.04,0,2.07.01,3.11.02,1.19.66,2.09,1.78,2.48.93.32,1.88.34,2.82.05,1.23-.39,1.88-1.25,1.89-2.53.01-1.27,0-2.54,0-3.81h0ZM291.12,36.36c-1.16-.32-1.91.04-2.37,1.08-.22.49-.65.89-.87,1.38-.37.83-1.08.66-1.66.55-.54-.1-.14-.69-.24-1.06-.04-.17,0-.36,0-.54,0-1.51,0-1.51-1.5-1.47-.22,0-.6-.17-.59.26.01.3-.29.78.31.87.32.05.27.26.27.46,0,1.37,0,2.75,0,4.13,0,.17.07.42-.18.44-.69.05-.4.58-.39.88.02.53.48.24.73.26.46.05.93.02,1.4,0,.2,0,.54.12.49-.27-.04-.29.27-.72-.24-.85-.23-.06-.28-.15-.31-.36-.22-1.41-.08-1.58,1.33-1.58h.55c1.07,0,1.61.54,1.61,1.62,0,1.49,0,1.5,1.52,1.44.18,0,.48.13.52-.16.05-.29.15-.81-.06-.88-.81-.23-.44-.84-.46-1.26-.05-1.54-.23-1.79-1.79-1.98.64-.99,1.27-1.96,1.92-2.96h0ZM277.24,42.8c.49.38.98.7,1.57.84,1.85.43,3.63.14,3.44-2.49-.08-1.11-.01-2.23-.01-3.35,0-1.07-.54-1.57-1.62-1.51-.18.01-.47-.1-.47.23,0,.29-.17.78.13.84.63.12.44.53.45.87.02,1.06,0,2.13,0,3.19,0,.35-.05.68-.33.92-.57.48-1.24.42-1.83.12-.59-.3-1.34-.51-1.33-1.42.02-1.06,0-2.13,0-3.19,0-1.12-.55-1.64-1.65-1.56-.16.01-.42-.08-.44.18-.02.3-.15.81.08.86.76.16.47.69.48,1.08.03,1.14.01,2.28,0,3.43,0,.29.1.62-.4.66-.24.02-.29,1.03-.07,1.06.49.06.99.07,1.48.02.4-.04.23-.51.49-.79h0ZM263.07,36.13c-1.47,0-2.44.62-2.63,1.67-.23,1.3.27,2,1.86,2.58.6.22,1.22.43,1.8.71.71.35.74,1.05.12,1.47-.89.6-2.49.1-2.82-.93-.14-.45-.45-.21-.68-.25-.3-.06-.3.16-.32.39-.05.53.1.94.55,1.27,1.06.77,2.24.92,3.47.63,1.06-.25,1.65-.99,1.69-1.96.05-1.04-.39-1.64-1.51-2.06-.68-.25-1.37-.47-2.04-.74-.68-.27-.91-.85-.53-1.35.4-.53.98-.54,1.55-.38.52.15,1.19.18,1.23.93.03.6.45.35.73.39.41.06.35-.24.37-.5.03-.39-.08-.69-.36-.97-.69-.68-1.52-.96-2.47-.91h0ZM186.64,51.42c0,1.47,1.03,2.6,2.38,2.6,1.85,0,2.98-.9,2.98-2.38,0-1.76-.93-2.87-2.41-2.87-1.96,0-2.94.89-2.94,2.65h0ZM179.62,22.67c1.61,0,2.71-.94,2.71-2.31,0-1.78-.91-2.9-2.36-2.9-1.91,0-3,.88-3,2.43,0,1.82.91,2.78,2.65,2.78h0ZM270.19,36.13c-1.05,0-1.82.28-2.55.76-.55.36-.26.66-.06,1.02.32.58.52.03.69-.09,1.3-.87,2.87-.73,3.62.35.74,1.07.63,2.95-.23,3.83-.86.88-2.2.87-3.48,0-.17-.11-.35-.51-.57-.04-.15.32-.54.57-.05.98,1.22.99,3.43,1.15,4.75.28,1.33-.87,1.9-2.86,1.35-4.68-.47-1.55-1.72-2.43-3.47-2.43h0ZM253.52,38.24c.39-.33.78-.68,1.28-.85,1.34-.47,2.2.14,2.21,1.56,0,1.04,0,2.08,0,3.12,0,.21.09.45-.31.47-.58.03-.25.51-.3.78-.07.39.27.28.47.29.57.01,1.14.01,1.72,0,.18,0,.48.11.44-.24-.03-.28.2-.74-.18-.8-.52-.08-.37-.4-.38-.67-.01-1.17.02-2.34-.01-3.5-.03-1.24-.65-2.02-1.78-2.21-.99-.17-1.97-.05-2.85.48-.95.57-.97.65-.3,1.59h0ZM234.79,47.19c1.09,0,2.4-.44,3.14-.96.42-.29.2-.52.06-.83-.2-.43-.4-.23-.65-.07-.71.47-1.49.7-2.35.65-.73-.04-1.23-.3-1.28-1.14-.04-.78-.67-.31-1.02-.4-.35-.1-.48.1-.49.47-.06,1.44.89,2.29,2.58,2.29h0ZM248.26,47.19c1.09-.02,2.07-.36,3-.92.44-.26.34-.49.16-.86-.24-.48-.45-.21-.69-.06-.65.41-1.35.64-2.12.63-.99,0-1.25-.21-1.45-1.19-.13-.68-.66-.27-1-.36-.32-.08-.5.04-.52.44-.08,1.46.88,2.33,2.63,2.31ZM221.53,34.85c.36,0,.73-.02,1.08,0,.48.04.74-.01.74-.63,0-.59-.28-.6-.7-.58-.52.02-1.03-.01-1.55.01-.49.02-.71-.17-.7-.67,0-.2.14-.47-.14-.62-.59-.31-1.19.07-1.19.74,0,1.48.26,1.74,1.77,1.74h.7Z"/>
      <path class="cls-1" d="M44.11,87.68c-.82-1.1-1.91-1.94-2.89-2.87-6.76-6.37-13.53-12.73-20.3-19.09-6.81-6.4-13.61-12.79-20.42-19.19-.11-.11-.25-.18-.49-.36,2.2-.81,4.25-1.56,6.36-2.33-2.09-1.97-4.14-3.9-6.27-5.91,2.14-.78,4.16-1.52,6.27-2.29-2.11-1.98-4.14-3.9-6.27-5.91,9.57-3.48,19.08-6.94,28.67-10.43-1.51-1.42-2.94-2.77-4.45-4.19,2.11-.77,4.13-1.51,6.27-2.29-2.1-1.98-4.15-3.91-6.28-5.92,1.74-.63,3.38-1.22,5.02-1.82,4.57-1.66,9.14-3.31,13.7-4.99.46-.17.73-.11,1.08.22,3.68,3.48,7.37,6.93,11.06,10.4.09.09.17.19.34.37-2.08.76-4.1,1.5-6.24,2.28,2.12,2,4.16,3.93,6.27,5.91-2.1.77-4.15,1.52-6.27,2.29,1.06,1.01,2.08,1.96,3.09,2.92.31.29.59.05.86-.04,3.77-1.36,7.54-2.72,11.3-4.11.48-.18.78-.12,1.15.22,6.93,6.54,13.87,13.06,20.81,19.59.42.39.83.78,1.35,1.26-2.1.77-4.13,1.51-6.28,2.3,2.11,1.99,4.16,3.92,6.27,5.91-2.13.78-4.18,1.52-6.28,2.29,2.08,1.96,4.13,3.89,6.28,5.92-9.59,3.49-19.08,6.94-28.67,10.42,1.36,1.29,2.65,2.56,4,3.77.47.42.28.52-.15.67-1.73.62-3.45,1.25-5.18,1.88-.14.05-.32.05-.4.26,2.02,1.9,4.05,3.82,6.18,5.82-1.37.5-2.64.96-3.92,1.43-4.87,1.77-9.75,3.54-14.62,5.32-.16.06-.43.02-.49.28h-.47,0ZM48.69,27.53c3.61,3.4,7.16,6.73,10.73,10.08-.12.05-.18.09-.25.12-6.15,2.24-12.31,4.47-18.45,6.73-.46.17-.68-.04-.94-.29-1.95-1.83-3.89-3.67-5.83-5.5-1.81-1.7-3.61-3.4-5.47-5.15,5.85-2.13,11.62-4.23,17.49-6.36-3.09-2.9-6.09-5.69-9.06-8.51-.49-.47-.85-.57-1.52-.33-9.44,3.47-18.9,6.89-28.35,10.33-1.33.48-2.66.96-4.09,1.48,1.4,1.3,2.68,2.5,3.97,3.71,8.9,8.37,17.8,16.74,26.7,25.1,3.65,3.43,7.3,6.84,10.94,10.28.34.32.6.34,1,.2,4.26-1.56,8.53-3.1,12.79-4.65.78-.28,1.55-.59,2.4-.91-3.62-3.4-7.15-6.72-10.71-10.07.19-.09.32-.16.47-.21,2.71-.99,5.42-1.97,8.13-2.96,8.54-3.11,17.09-6.22,25.64-9.31.56-.2.74-.3.2-.78-1.26-1.12-2.48-2.29-3.71-3.44-5.29-4.97-10.59-9.94-15.87-14.93-.32-.3-.55-.34-.94-.19-2,.75-4.01,1.46-6.02,2.19-3.04,1.11-6.08,2.22-9.23,3.38h0ZM2.93,46.53c1.67,1.56,3.23,3.01,4.78,4.47,7.15,6.72,14.29,13.44,21.44,20.16,5.08,4.78,10.17,9.57,15.24,14.36.37.35.69.49,1.22.29,3.72-1.38,7.46-2.72,11.19-4.08,1.28-.47,2.56-.95,3.93-1.46-1.64-1.55-3.21-2.99-4.73-4.47-.36-.35-.64-.37-1.07-.21-3.32,1.23-6.66,2.43-9.98,3.66-.46.17-.78.16-1.17-.2-7.85-7.41-15.71-14.8-23.57-22.19-4.1-3.86-8.2-7.71-12.31-11.57-.22-.2-.36-.45-.78-.29-1.34.52-2.69.99-4.19,1.54h0ZM3,38.37c.27.22.42.33.55.45,7.24,6.8,14.49,13.59,21.73,20.39,6.41,6.02,12.82,12.03,19.21,18.07.39.37.67.4,1.14.22,3.24-1.2,6.49-2.37,9.74-3.55,1.73-.63,3.46-1.26,5.26-1.92-1.58-1.47-3.09-2.85-4.55-4.29-.44-.44-.8-.5-1.36-.29-3.25,1.21-6.52,2.37-9.77,3.58-.47.17-.79.17-1.16-.22-.74-.76-1.54-1.47-2.32-2.19-7.62-7.16-15.25-14.32-22.87-21.48-3.57-3.36-7.15-6.72-10.72-10.08-.18-.17-.32-.37-.66-.24-1.35.52-2.71,1-4.22,1.55h0ZM52.65,10.7c-.15-.17-.21-.25-.29-.32-3.02-2.83-6.06-5.66-9.06-8.51-.35-.33-.62-.24-.95-.12-3.14,1.14-6.28,2.28-9.42,3.43-1.89.69-3.78,1.39-5.78,2.12.63.59,1.18,1.09,1.72,1.6,2.45,2.31,4.91,4.61,7.35,6.95.47.45.87.56,1.5.31,1.79-.71,3.61-1.34,5.42-2,3.14-1.14,6.28-2.29,9.5-3.46h0ZM84.84,49.21c-1.64-1.55-3.21-2.99-4.73-4.47-.35-.34-.61-.33-1.02-.18-4.41,1.62-8.83,3.22-13.25,4.83-4.3,1.56-8.59,3.13-12.88,4.69,0,.21.14.3.25.4,1.4,1.32,2.81,2.61,4.18,3.95.43.42.81.47,1.37.27,5.88-2.16,11.76-4.29,17.65-6.43,2.76-1,5.52-2.01,8.42-3.07h0ZM59.13,60.04c1.54,1.45,2.96,2.8,4.45,4.2-2.14.78-4.17,1.52-6.18,2.26.37.75.87.66,1.47.44,7.27-2.65,14.54-5.29,21.81-7.94,1.4-.51,2.79-1.03,4.27-1.58-1.55-1.47-3.04-2.83-4.47-4.25-.49-.49-.89-.6-1.56-.35-3.64,1.36-7.29,2.67-10.95,4-2.91,1.06-5.82,2.11-8.84,3.21h0ZM45.56,35.44c-.48-.57-.93-1.18-1.45-1.72-.54-.56-1.24-.98-1.69-1.6-1.11-1.54-2.32-1.62-4-.86-2.26,1.02-4.66,1.75-7.1,2.64,1.68,1.58,3.29,3.08,4.88,4.59.29.28.55.15.85.04,1.48-.54,2.96-1.08,4.43-1.61,1.42-.52,2.85-1.03,4.08-1.48ZM52.55,18.88c-1.68-1.58-3.28-3.08-4.87-4.6-.23-.22-.42-.21-.69-.11-2.81,1.04-5.63,2.07-8.45,3.08-.46.16-.39.29-.11.55.93.87,1.85,1.74,2.78,2.61.66.61,1.26,1.57,2.02,1.73.76.15,1.68-.5,2.53-.8,2.23-.8,4.45-1.61,6.79-2.45h0ZM56.6,37.26c-1.1-1.03-2.12-1.99-3.13-2.94-.14-.13-.27-.17-.48-.1-1.36.51-2.73,1-4.18,1.52,1.03.97,1.99,1.84,2.91,2.75.3.3.56.35.96.2,1.25-.48,2.52-.92,3.93-1.43h0ZM27.28,15.52c1.09,1.03,2.13,1.99,3.16,2.97.17.16.34.1.51.04,1.34-.49,2.69-.98,4.13-1.5-1.08-1.02-2.09-1.94-3.07-2.9-.21-.2-.39-.19-.62-.11-1.33.49-2.66.97-4.09,1.5h0ZM50.28,39.53c-1.06-.99-2.03-1.9-2.99-2.8-.19-.17-.32-.34-.66-.2-1.34.52-2.7.99-4.12,1.5,1.03.97,2.01,1.89,2.99,2.82.17.16.31.33.6.22,1.35-.51,2.71-1,4.17-1.54h0ZM44.36,31.55c1.08,1.02,2.08,1.96,3.07,2.9.15.14.31.19.49.12,1.36-.49,2.72-.99,4.18-1.52-1.09-1.03-2.09-1.97-3.08-2.91-.24-.23-.48-.12-.72-.03-1.28.47-2.56.94-3.95,1.44h0ZM50.79,25.34c-1.06-1.01-2.07-1.97-3.07-2.93-.15-.14-.32-.18-.5-.12-.93.34-1.87.69-2.87,1.06,1.08,1.02,2.08,1.95,3.07,2.9.17.16.3.22.54.12.91-.35,1.84-.67,2.84-1.03h0ZM37.61,39.81c1.09,1.03,2.1,1.99,3.1,2.95.15.14.3.16.49.09.92-.34,1.85-.68,2.86-1.04-1.07-1.01-2.05-1.91-3.01-2.85-.28-.28-.54-.21-.84-.09-.82.31-1.64.6-2.6.95h0ZM42.53,29.82c.37.25.44.8,1.01.59,1.36-.5,2.73-.99,4.17-1.51-.4-.27-.52-.8-1.13-.57-1.31.51-2.65.98-4.05,1.49h0Z"/>
      <path class="cls-1" d="M299.66,36.41s.06-.08.09-.12v6.07s-.07-.09-.11-.13c0-1.94.01-3.88.02-5.82h0Z"/>
      <path class="cls-1" d="M299.64,32.15c.04-.07.07-.15.11-.22v2.96c-.04-.06-.08-.12-.12-.18,0-.85,0-1.7,0-2.55h0Z"/>
      <path class="cls-1" d="M299.75,47.81s-.08-.1-.12-.15c0-.82,0-1.65,0-2.47.04-.06.08-.12.12-.18v2.8h0Z"/>
      <path class="cls-1" d="M209.26,72.48c-.93.84-1.72,1.54-2.48,2.27-.27.26-.54.35-.9.34-2-.01-4-.01-6,0-.37,0-.64-.11-.89-.37-.98-1.01-1.96-2-2.96-2.99-.24-.24-.34-.48-.34-.82,0-3.4.01-6.8,0-10.2,0-.4.13-.68.41-.96,1-.98,2-1.97,2.98-2.97.26-.27.54-.36.9-.36,2.05.01,4.11.01,6.16,0,.4,0,.69.12.95.42.69.77,1.39,1.53,2.09,2.3.1-.06.2-.11.3-.17,0-.63.03-1.26-.01-1.88-.04-.53.18-.67.67-.66.91.03,1.82.03,2.73,0,.51-.02.67.13.66.65-.03,1.97-.01,3.94-.01,5.92,0,5.27,0,10.54,0,15.81,0,.5-.13.87-.5,1.22-1,.94-1.97,1.92-2.94,2.9-.27.28-.55.41-.95.4-2.94-.02-5.87-.01-8.81,0-.35,0-.64-.05-.9-.33-.85-.88-1.72-1.73-2.58-2.6-.26-.27-.48-2.38-.29-2.69.1-.16.27-.13.42-.13,1.09,0,2.18.02,3.27,0,.43,0,.51.18.52.56.03,1.05.64,1.61,1.71,1.61,1.59,0,3.17,0,4.76,0,.78,0,2.05-1.21,2.06-1.97.01-1.69,0-3.37,0-5.28h0ZM209.26,65.94c0-1.08,0-1.8,0-2.53,0-.27-.05-.48-.25-.69-1.6-1.73-3.58-2.6-5.92-2.6-.36,0-.73,0-1.09,0-.73.02-2.06,1.36-2.07,2.09,0,2.39,0,4.77,0,7.16,0,.26,0,.49.21.71.8.88,1.6,1.71,2.96,1.38.22-.05.47-.04.7,0,1.44.22,2.5-.28,3.55-1.35,1.29-1.31,2.51-2.49,1.92-4.18h0Z"/>
      <path class="cls-1" d="M101.82,30.69c0-4.12.01-8.25-.01-12.37,0-.57.12-.74.72-.74,4.91.03,9.82.02,14.73,0,.39,0,.68.1.96.38,1.01,1.05,2.03,2.08,3.07,3.09.27.26.35.53.35.89-.01,2.65-.01,5.29,0,7.94,0,.37-.12.63-.38.88-1.02,1-2.03,2.01-3.01,3.04-.31.33-.64.45-1.09.45-3.32-.02-6.65.01-9.97-.03-.75,0-1.02.12-1,.95.06,2.62,0,5.24.04,7.86,0,.57-.13.78-.73.74-.98-.05-1.98-.05-2.96,0-.59.03-.73-.16-.73-.74.02-4.12.01-8.25.01-12.37h0ZM111.16,21.31c-1.4,0-2.81.03-4.21-.01-.58-.02-.76.13-.75.73.03,2.6.03,5.19,0,7.79,0,.57.14.75.73.74,2.78-.03,5.56-.01,8.34-.02.85,0,2.07-1.2,2.08-2.04.01-1.71,0-3.43,0-5.14,0-.85-1.22-2.05-2.07-2.05-1.38,0-2.76,0-4.13,0h0Z"/>
      <path class="cls-1" d="M151.26,27.99c.92-.88,1.71-1.61,2.47-2.38.33-.34.67-.5,1.16-.49,1.79.03,3.59.02,5.38,0,.48,0,.83.12,1.17.47.92.96,1.85,1.89,2.81,2.81.32.31.46.63.46,1.08-.02,3.35-.02,6.69,0,10.04,0,.39-.1.68-.39.96-.99.96-1.96,1.93-2.92,2.92-.28.28-.56.39-.96.39-3.04-.01-6.08-.01-9.12,0-.4,0-.68-.13-.95-.41-1-1.02-2.01-2.03-3.03-3.03-.28-.28-.39-.57-.39-.96,0-7.21.01-14.43,0-21.64,0-.6.19-.76.76-.74.96.04,1.92.04,2.88,0,.55-.02.7.16.69.7-.02,3.35-.01,6.69-.01,10.27h0ZM160.47,34.47c0-.99-.05-1.97.02-2.96.05-.79-.2-1.34-.76-1.9-.6-.6-1.19-.9-2.04-.81-.75.07-1.51.03-2.26,0-.34,0-.58.1-.82.34-.98,1-1.97,1.99-2.98,2.97-.26.25-.37.52-.37.88.02,1.66,0,3.32,0,4.98,0,.88,1.33,2.17,2.23,2.18,1.48,0,2.96-.04,4.44.02.69.02,1.13-.24,1.63-.67.7-.62,1.01-1.29.92-2.23-.08-.93-.02-1.87-.02-2.8h0Z"/>
      <path class="cls-1" d="M168.89,46.08c0-9.39,0-18.79-.01-28.18,0-.65.11-.93.83-.87.96.07,1.92.03,2.88.01.4,0,.59.12.54.53-.02.13,0,.26,0,.39,0,18.74,0,37.47.02,56.21,0,.73-.15,1.01-.92.94-.88-.07-1.77-.05-2.65,0-.54.03-.7-.13-.69-.69.02-3.66.01-7.32.01-10.98v-17.36h0Z"/>
      <path class="cls-1" d="M228.92,67.22c-2.03,0-4.05.01-6.08,0-.47,0-.66.12-.62.61.03.36.07.74,0,1.09-.25,1.18.51,1.8,1.24,2.47.2.18.42.17.66.17,1.79,0,3.58,0,5.38,0,.75,0,1.85-1.03,1.82-1.79-.02-.63.24-.74.78-.71.99.04,1.97.02,2.96,0,.37,0,.54.09.57.52.1,1.19-.05,2.21-1.11,3.01-.8.61-1.46,1.4-2.16,2.13-.27.29-.56.39-.96.39-3.09-.01-6.18-.01-9.27,0-.4,0-.68-.13-.95-.41-.92-.95-1.86-1.89-2.81-2.81-.32-.31-.46-.65-.46-1.1.01-3.32,0-6.64,0-9.96,0-.35.05-.64.32-.91,1.01-1,2.01-2.02,3-3.05.29-.31.61-.43,1.03-.42,2.99.01,5.97.01,8.96,0,.38,0,.69.08.98.37,1,1.02,2.02,2.02,3.05,3.01.26.25.38.52.37.88-.02,1.94-.03,3.89,0,5.84,0,.56-.18.7-.71.7-2-.02-4-.01-6,0h0ZM226.79,64.03c1.32,0,2.65,0,3.97,0,.27,0,.61.09.61-.37,0-.65.04-1.3-.02-1.94-.05-.58-1.48-1.73-2.07-1.73-1.69,0-3.37,0-5.06,0-.23,0-.47-.05-.66.15-.73.72-1.61,1.35-1.34,2.59.04.17.03.37,0,.54-.08.59.1.81.75.79,1.27-.05,2.54-.02,3.81-.02h0Z"/>
      <path class="cls-1" d="M158.26,67.22c-2,0-4,.02-6-.01-.51,0-.71.15-.66.66.03.31.06.63,0,.93-.26,1.19.49,1.86,1.25,2.55.22.2.47.19.73.19,1.77,0,3.53,0,5.3,0,.78,0,1.88-1.06,1.87-1.83,0-.5.13-.69.65-.67,1.01.04,2.03.03,3.04,0,.45-.01.62.15.56.59,0,.05,0,.1,0,.16.23,1.24-.23,2.17-1.2,2.96-.86.7-1.49,1.84-2.45,2.23s-2.2.12-3.31.12c-2.1,0-4.21-.01-6.31.01-.5,0-.88-.12-1.23-.49-.9-.97-1.84-1.9-2.78-2.83-.27-.26-.35-.53-.35-.89.01-3.4.01-6.8,0-10.2,0-.37.11-.63.37-.88,1-.99,1.98-1.99,2.95-2.99.25-.26.52-.38.89-.38,3.07,0,6.13,0,9.2,0,.31,0,.54.09.76.31,1.06,1.07,2.13,2.13,3.21,3.18.23.22.28.47.28.76,0,1.97-.02,3.94.01,5.92.01.56-.23.63-.69.63-2.03-.02-4.05,0-6.08,0h0ZM156.17,64.03h2.65c1.32,0,1.97-.67,1.94-2,0-.05,0-.1,0-.16-.05-.67-1.32-1.89-1.99-1.89-1.71,0-3.42,0-5.14,0-.2,0-.43-.05-.59.12-.72.74-1.72,1.32-1.44,2.62.05.22.03.47,0,.7-.05.47.12.63.61.62,1.32-.03,2.65,0,3.97,0h0Z"/>
      <path class="cls-1" d="M292.95,67.18c-2,0-4,.02-6-.01-.52,0-.78.11-.71.68.04.31.06.64,0,.93-.27,1.19.49,1.87,1.24,2.55.19.18.41.2.64.2,1.82,0,3.64,0,5.46,0,.69,0,1.83-1.13,1.79-1.83-.03-.58.2-.69.72-.67.96.04,1.92.03,2.88,0,.45-.01.71.09.63.59,0,.02,0,.05,0,.08.19,1.25-.17,2.23-1.21,3.04-.87.68-1.49,1.82-2.45,2.22-.93.39-2.15.11-3.24.11-2.16,0-4.31,0-6.47,0-.42,0-.72-.1-1.02-.42-.93-.98-1.89-1.93-2.86-2.87-.29-.28-.39-.56-.39-.96.01-3.35.01-6.69,0-10.04,0-.42.1-.73.41-1.03.99-.96,1.95-1.94,2.91-2.93.29-.3.59-.44,1.02-.44,2.99.02,5.98.01,8.96,0,.39,0,.69.09.97.38.98,1,1.98,1.98,2.99,2.96.28.27.41.55.4.95-.02,1.92-.03,3.84,0,5.76.01.61-.2.73-.76.72-1.97-.03-3.95-.01-5.92-.01h0ZM290.78,64.03h2.65c1.34,0,1.99-.68,1.96-2.05-.02-.76-1.27-2-2.03-2-1.5,0-3.01,0-4.51,0s-2.6,1.03-2.6,2.62c0,.29.02.57,0,.85-.04.44.13.59.57.58,1.32-.02,2.65,0,3.97,0h0Z"/>
      <path class="cls-1" d="M177.53,50.06c0-8.02.01-16.03-.02-24.05,0-.73.21-.94.91-.89.93.06,1.87.03,2.8,0,.42-.01.65.1.58.56-.01.1,0,.21,0,.31,0,16.06,0,32.12.02,48.18,0,.76-.2.99-.95.92-.83-.07-1.67-.07-2.49,0-.76.07-.88-.24-.88-.91.02-8.04.01-16.09.01-24.13h0Z"/>
      <path class="cls-1" d="M244.07,59.64c.91-.92,1.83-1.83,2.73-2.77.29-.3.58-.46,1.02-.45,1.59.02,3.17.02,4.76,0,.43,0,.73.13,1.03.44,1.03,1.06,2.08,2.11,3.14,3.14.31.3.41.61.41,1.03-.01,4.44-.02,8.88,0,13.31,0,.64-.21.79-.8.76-.91-.04-1.82-.05-2.73,0-.63.04-.84-.14-.83-.8.03-4,.02-7.99.02-11.99,0-1.09-1.13-2.08-2.21-2.22-1.87-.24-3.33.32-4.41,1.87-.15.21-.32.43-.53.57-1.38.94-1.62,2.26-1.55,3.84.12,2.67.02,5.35.04,8.02,0,.52-.11.74-.68.71-1.01-.04-2.03-.03-3.04,0-.44.01-.58-.13-.58-.57.01-5.84.01-11.68,0-17.52,0-.44.14-.59.58-.58.96.02,1.92.03,2.88,0,.46-.01.58.17.56.59-.03.85,0,1.7,0,2.55.06.03.12.05.18.08h0Z"/>
      <path class="cls-1" d="M137.97,40.5c-.87.91-1.77,1.8-2.62,2.72-.38.41-.77.6-1.35.58-1.56-.04-3.12-.03-4.68,0-.42,0-.73-.12-1.02-.43-.96-.99-1.93-1.96-2.92-2.92-.3-.29-.43-.6-.43-1.03.01-4.52.02-9.03,0-13.55,0-.56.12-.79.73-.76.96.05,1.92.04,2.88,0,.55-.02.7.17.69.7-.02,4.02-.01,8.04-.01,12.07,0,1.19,1.11,2.15,2.29,2.29,1.71.2,2.98-.34,4.03-1.68.66-.85,1.79-1.45,2.18-2.38.39-.93.12-2.14.12-3.23,0-2.33.03-4.67-.02-7.01-.01-.65.21-.79.8-.76.91.04,1.82.05,2.73,0,.62-.03.79.17.79.79-.03,3.61-.01,7.21-.01,10.82,0,2.13-.02,4.26.01,6.38,0,.55-.17.71-.71.69-.88-.04-1.77-.04-2.65,0-.5.02-.69-.12-.66-.64.04-.84.01-1.69.01-2.54-.06-.04-.13-.08-.19-.12h0Z"/>
      <path class="cls-1" d="M115.57,59.88c1.07-1.08,1.99-1.98,2.87-2.92.35-.37.72-.51,1.23-.5,1.56.03,3.12.02,4.68,0,.39,0,.68.11.96.39,1.03,1.06,2.08,2.1,3.14,3.14.26.26.36.52.36.89-.01,4.51-.02,9.03,0,13.54,0,.56-.18.7-.71.68-.91-.04-1.82-.07-2.73,0-.74.06-.83-.24-.83-.88.03-3.97.01-7.94.01-11.91,0-1.07-1.15-2.09-2.2-2.23-1.87-.25-3.13.51-4.46,1.8-1.53,1.49-2.27,2.97-2.09,5.13.2,2.45.03,4.93.06,7.39,0,.54-.14.72-.69.69-.98-.04-1.97-.03-2.96,0-.41,0-.61-.07-.6-.54.01-5.84.01-11.67,0-17.51,0-.44.14-.59.58-.58.93.02,1.87.03,2.81,0,.45-.01.59.15.57.58-.03.86,0,1.71,0,2.83h0Z"/>
      <path class="cls-1" d="M261.38,65.79c0-1.64.01-3.27,0-4.91,0-.47.09-.82.45-1.17.98-.93,1.91-1.91,2.84-2.88.3-.31.62-.41,1.04-.41,2.89.01,5.77.01,8.66,0,.39,0,.68.11.96.4.99,1.03,2,2.04,3.02,3.04.24.24.36.48.35.82-.02.7-.02,1.4,0,2.1.01.4-.12.55-.53.54-1.09-.02-2.18-.02-3.27,0-.41,0-.61-.16-.52-.54.31-1.24-.63-1.8-1.33-2.51-.17-.17-.37-.17-.57-.17-1.61,0-3.22,0-4.84,0-.73,0-1.93,1.2-1.93,1.93,0,2.49,0,4.98,0,7.47,0,.73,1.25,1.93,2,1.93,1.53,0,3.07,0,4.6,0,.87,0,2.04-1.18,2.05-2.05,0-.78.41-1.18,1.21-1.18.86,0,1.72.01,2.57,0,.39,0,.56.11.55.53-.03.73-.03,1.45,0,2.18.02.39-.21.63-.44.87-.99,1-1.99,1.98-2.97,2.98-.24.25-.51.31-.83.31-2.96,0-5.93,0-8.89,0-.36,0-.64-.08-.9-.35-.92-.96-1.83-1.91-2.79-2.83-.37-.36-.5-.73-.49-1.23.03-1.63,0-3.27,0-4.91h0Z"/>
      <path class="cls-1" d="M186.65,34.46c0-1.69.01-3.37,0-5.06,0-.42.11-.73.42-1.03.95-.92,1.88-1.87,2.8-2.82.29-.3.59-.44,1.02-.44,2.88.02,5.77.02,8.65,0,.49,0,.83.16,1.16.5.95,1,1.92,1.97,2.89,2.95.21.21.37.42.36.74-.01.73-.02,1.45,0,2.18.01.41-.16.54-.55.54-1.06-.02-2.13-.02-3.19,0-.44.01-.66-.14-.56-.57.29-1.24-.65-1.79-1.35-2.49-.2-.2-.43-.15-.66-.15-1.58,0-3.17,0-4.75,0-.73,0-1.98,1.24-1.98,1.96,0,2.46,0,4.93,0,7.39,0,.71,1.26,1.99,1.97,1.99,1.58.01,3.17,0,4.75,0,.78,0,2-1.24,2.01-2.02,0-.21.02-.42,0-.62-.04-.42.08-.61.55-.59,1.06.03,2.13.03,3.19,0,.46-.01.61.18.57.6,0,.08-.01.16,0,.23.25,1.59-.43,2.68-1.5,3.87-1.5,1.68-3.07,2.41-5.31,2.2-2.03-.19-4.1-.05-6.15-.03-.45,0-.78-.11-1.09-.44-.92-.96-1.86-1.89-2.81-2.81-.31-.29-.42-.6-.42-1.02.02-1.69,0-3.37,0-5.06h0Z"/>
      <path class="cls-1" d="M134.75,65.8c0-1.69-.02-3.37.01-5.06,0-.5-.13-.69-.65-.66-.73.04-1.45,0-2.18.02-.36,0-.51-.11-.5-.49.02-.88.02-1.76,0-2.65-.01-.41.14-.55.54-.54.7.02,1.41-.04,2.1.02.68.06.83-.21.81-.84-.04-1.48,0-2.96-.03-4.44-.01-.55.1-.79.72-.76.93.05,1.87.05,2.8,0,.62-.04.73.2.72.76-.04,1.45.02,2.91-.03,4.36-.02.68.13.95.88.92,1.37-.07,2.75,0,4.13-.03.48,0,.71.09.68.64-.05.78-.04,1.56,0,2.33.03.54-.14.72-.69.7-1.45-.04-2.91,0-4.36-.02-.46,0-.63.11-.63.6.02,2.98,0,5.97.01,8.95,0,.71,1.17,1.84,1.89,1.85,1.06,0,2.13.02,3.19,0,.43-.01.6.11.58.56-.03.83-.02,1.66,0,2.49,0,.36-.05.58-.5.57-1.82-.02-3.64-.01-5.45,0-.29,0-.48-.12-.67-.32-1.01-1.01-2.01-2.03-3.04-3.02-.27-.26-.34-.54-.34-.9.01-1.69,0-3.37,0-5.06h0Z"/>
      <path class="cls-1" d="M106.37,62.02c0,4.1-.01,8.2.01,12.3,0,.59-.12.83-.76.79-.91-.06-1.82-.06-2.73,0-.69.04-.92-.14-.91-.88.03-5.79.02-11.57.02-17.36,0-2.44.01-4.88-.01-7.32,0-.5.12-.68.65-.66.96.04,1.92.05,2.88,0,.66-.04.88.12.87.83-.04,4.1-.02,8.2-.02,12.3h0Z"/>
      <path class="cls-1" d="M191.48,65.76c0,2.88-.01,5.76.01,8.64,0,.54-.14.72-.69.7-1.04-.04-2.08-.03-3.12,0-.41,0-.54-.13-.53-.54.01-5.86.01-11.72,0-17.59,0-.48.21-.55.61-.54,1.01.02,2.03.03,3.04,0,.55-.02.7.16.69.7-.02,2.88-.01,5.76-.01,8.64h0Z"/>
      <path class="cls-1" d="M238.3,39.02c0,.83,0,1.66,0,2.48,0,.15-.03.31-.07.46-.42,1.36-1.88,2.07-3.7,1.79-1.38-.21-2.27-1.21-2.29-2.6-.01-.67,0-1.35,0-2.02-.02-.95-.56-1.57-1.51-1.8-.96-.23-1.95.15-2.36.91-.18.33-.31.66.1.95.28.2.31.51.3.84-.02.6,0,1.19,0,1.79-.01.52.14.88.73.86.26,0,.39.07.37.35-.02.25.05.49-.27.65-1,.51-2.24-.14-2.32-1.27-.04-.54-.01-1.09,0-1.63,0-.54.09-1.09-.46-1.47-.16-.11-.14-.31-.11-.5.15-1.01.62-1.83,1.56-2.26,1.35-.63,2.72-.63,4.03.09,1.02.56,1.45,1.5,1.48,2.64.01.62-.01,1.25,0,1.87.02.89.56,1.46,1.43,1.53.84.07,1.57-.42,1.64-1.28.1-1.21.06-2.43.08-3.65,0-.14-.02-.29-.18-.29-.77,0-.43-.59-.42-.9.02-.53.49-.23.73-.24,1.32-.04,1.32-.02,1.32,1.32v1.4h-.05,0Z"/>
      <path class="cls-1" d="M251.71,39.09c0,.73,0,1.45,0,2.18,0,.26-.01.51-.1.76-.47,1.32-1.88,1.98-3.69,1.72-1.37-.2-2.27-1.22-2.28-2.61,0-.67.01-1.35,0-2.02-.03-.98-.64-1.64-1.67-1.83-.97-.18-1.89.28-2.26,1.1-.09.19-.24.41-.04.56.68.52.47,1.26.5,1.94.01.34.01.67,0,1.01-.01.46.16.76.66.76.26,0,.46,0,.44.36-.01.3,0,.54-.36.68-1.11.44-2.22-.26-2.25-1.47-.02-.54-.02-1.09,0-1.63.02-.47.02-.93-.42-1.25-.18-.13-.19-.34-.16-.56.15-1.06.66-1.87,1.64-2.3,1.24-.55,2.52-.56,3.76.03,1.15.55,1.63,1.54,1.67,2.76.02.65-.02,1.3,0,1.95.03.82.61,1.38,1.45,1.43.82.05,1.55-.44,1.61-1.24.08-1.21.04-2.43.05-3.65,0-.22-.11-.29-.31-.36-.51-.16-.23-.6-.24-.91-.02-.38.34-.21.53-.22,1.47-.05,1.48-.04,1.48,1.4v1.4h0Z"/>
      <path class="cls-1" d="M225,37.27c0,1.27,0,2.54,0,3.81-.01,1.28-.66,2.14-1.89,2.53-.94.29-1.9.27-2.82-.05-1.12-.39-1.76-1.29-1.78-2.48-.02-1.04,0-2.07-.01-3.11,0-.2.13-.5-.24-.55-.61-.08-.31-.56-.33-.85-.04-.44.35-.28.57-.28,1.53-.05,1.53-.04,1.53,1.45,0,1.06-.02,2.13,0,3.19.02,1.07.72,1.74,1.76,1.74s1.71-.69,1.71-1.78c0-2.46.02-4.93,0-7.39,0-.56,0-.86.74-.88.8-.02.8.34.79.92-.03,1.24,0,2.49,0,3.73h0Z"/>
      <path class="cls-1" d="M291.12,36.36c-.65,1.01-1.28,1.97-1.92,2.96,1.57.19,1.75.44,1.79,1.98.01.42-.36,1.03.46,1.26.21.06.1.58.06.88-.05.3-.34.15-.52.16-1.52.05-1.52.05-1.52-1.44,0-1.08-.54-1.62-1.61-1.62h-.55c-1.41,0-1.55.18-1.33,1.58.03.2.08.3.31.36.5.13.2.56.24.85.05.39-.29.27-.49.27-.47.01-.94.04-1.4,0-.25-.03-.71.26-.73-.26,0-.3-.3-.83.39-.88.25-.02.18-.27.18-.44,0-1.37,0-2.75,0-4.13,0-.2.05-.41-.27-.46-.6-.09-.29-.57-.31-.87-.02-.43.37-.25.59-.26,1.5-.04,1.5-.04,1.5,1.47,0,.18-.04.37,0,.54.09.36-.3.95.24,1.06.57.11,1.29.28,1.66-.55.22-.49.65-.89.87-1.38.46-1.03,1.2-1.39,2.37-1.08h0Z"/>
      <path class="cls-1" d="M277.24,42.8c-.27.27-.09.75-.49.79-.49.05-.99.04-1.48-.02-.22-.03-.17-1.04.07-1.06.51-.04.4-.37.4-.66,0-1.14.02-2.28,0-3.43-.01-.39.27-.93-.48-1.08-.24-.05-.1-.57-.08-.86.02-.26.27-.17.44-.18,1.1-.07,1.65.45,1.65,1.56,0,1.06.01,2.13,0,3.19-.01.91.74,1.12,1.33,1.42.59.3,1.26.36,1.83-.12.28-.23.33-.56.33-.92-.01-1.06,0-2.13,0-3.19,0-.34.19-.75-.45-.87-.3-.06-.13-.55-.13-.84,0-.33.29-.22.47-.23,1.08-.06,1.62.44,1.62,1.51,0,1.12-.06,2.24.01,3.35.18,2.63-1.59,2.92-3.44,2.49-.59-.14-1.09-.46-1.57-.84h0Z"/>
      <path class="cls-1" d="M299.66,36.41c0,1.94-.01,3.88-.02,5.82-.31,1.32-1.48,1.89-3.15,1.49-.4-.09-.78-.28-1.15-.46-.38-.19-.66-.77-.98.17-.16.46-1.04.2-1.57.13-.37-.05-.12-.52-.18-.8-.01-.07.03-.21.06-.21.9-.12.49-.82.51-1.27.06-.93.05-1.87,0-2.8-.02-.41.31-.99-.49-1.15-.22-.05-.1-.57-.07-.87.03-.25.28-.16.45-.17,1.05-.07,1.57.43,1.57,1.47s.02,2.13,0,3.19c-.02.9.69,1.15,1.29,1.47.62.33,1.29.42,1.9-.06.26-.2.35-.5.36-.83,0-1.22,0-2.44,0-3.66,0-.17.06-.41-.2-.43-.76-.05-.41-.63-.39-.93.02-.41.45-.21.69-.21.45.01.93-.15,1.36.11h0Z"/>
      <path class="cls-1" d="M263.07,36.13c.95-.04,1.78.23,2.47.91.28.28.39.58.36.97-.02.26.04.56-.37.5-.28-.04-.69.21-.73-.39-.04-.74-.71-.78-1.23-.93-.58-.16-1.15-.15-1.55.38-.37.49-.14,1.08.53,1.35.67.27,1.36.49,2.04.74,1.13.42,1.57,1.02,1.51,2.06-.05.97-.64,1.71-1.69,1.96-1.23.29-2.41.14-3.47-.63-.45-.33-.6-.74-.55-1.27.02-.22.02-.45.32-.39.23.05.54-.2.68.25.33,1.03,1.93,1.53,2.82.93.62-.42.59-1.13-.12-1.47-.58-.28-1.19-.49-1.8-.71-1.59-.59-2.09-1.28-1.86-2.58.19-1.06,1.16-1.67,2.63-1.67h0Z"/>
      <path class="cls-1" d="M186.64,51.42c0-1.76.99-2.65,2.94-2.65,1.48,0,2.41,1.11,2.41,2.87,0,1.48-1.13,2.38-2.98,2.38-1.35,0-2.38-1.12-2.38-2.6Z"/>
      <path class="cls-1" d="M179.62,22.67c-1.73,0-2.65-.96-2.65-2.78,0-1.55,1.09-2.43,3-2.43,1.45,0,2.36,1.12,2.36,2.9,0,1.38-1.1,2.31-2.71,2.31h0Z"/>
      <path class="cls-1" d="M270.19,36.13c1.75,0,3,.87,3.47,2.43.55,1.82-.03,3.81-1.35,4.68-1.33.87-3.53.71-4.75-.28-.49-.4-.11-.66.05-.98.22-.48.41-.07.57.04,1.28.87,2.63.87,3.48,0,.86-.87.97-2.76.23-3.83-.75-1.08-2.32-1.22-3.62-.35-.17.12-.37.66-.69.09-.2-.37-.49-.66.06-1.02.73-.48,1.51-.76,2.55-.76h0Z"/>
      <path class="cls-1" d="M253.52,38.24c-.67-.94-.65-1.01.3-1.59.89-.54,1.86-.65,2.85-.48,1.13.19,1.75.97,1.78,2.21.03,1.17,0,2.34.01,3.5,0,.27-.15.59.38.67.39.06.15.52.18.8.04.35-.26.24-.44.24-.57.01-1.14.01-1.72,0-.2,0-.54.11-.47-.29.05-.27-.28-.75.3-.78.4-.02.31-.26.31-.47,0-1.04,0-2.08,0-3.12,0-1.42-.87-2.02-2.21-1.56-.5.17-.88.52-1.28.85h0Z"/>
      <path class="cls-1" d="M299.63,45.19c0,.82,0,1.65,0,2.47-.57,1.17-2.63,1.42-3.43.42-.29-.37-.2-.79-.19-1.19,0-.45-.11-.79-.62-.79-.57,0-.32-.4-.36-.65-.06-.36.16-.4.47-.42,1.2-.05,1.64.35,1.65,1.57,0,.15-.02.31,0,.46.07.39.35.58.71.55.33-.02.6-.2.62-.57.02-.39,0-.77,0-1.16,0-.96.13-1.05,1.13-.7h0Z"/>
      <path class="cls-1" d="M234.79,47.19c-1.69,0-2.64-.85-2.58-2.29.02-.37.14-.56.49-.47.35.1.98-.37,1.02.4.04.84.55,1.1,1.28,1.14.86.05,1.64-.18,2.35-.65.24-.16.45-.36.65.07.14.3.36.53-.06.83-.74.52-2.05.96-3.14.96h0Z"/>
      <path class="cls-1" d="M248.26,47.19c-1.75.02-2.71-.85-2.63-2.31.02-.4.2-.53.52-.44.34.09.87-.32,1,.36.2.99.46,1.19,1.45,1.19.78,0,1.47-.23,2.12-.63.24-.15.46-.42.69.06.19.37.28.6-.16.86-.93.56-1.91.9-3,.92Z"/>
      <path class="cls-1" d="M221.53,34.85h-.7c-1.5,0-1.77-.26-1.77-1.74,0-.67.6-1.05,1.19-.74.28.15.15.42.14.62-.01.51.21.7.7.67.52-.02,1.03.01,1.55-.01.42-.02.7-.02.7.58,0,.62-.27.67-.74.63-.36-.03-.72,0-1.08,0h0Z"/>
      <path class="cls-1" d="M299.64,32.15c0,.85,0,1.7,0,2.55-1.1.38-1.29.26-1.29-.84v-.85c0-1.13.08-1.18,1.3-.87h0Z"/>
      <path class="cls-1" d="M48.69,27.53c3.15-1.15,6.19-2.27,9.23-3.38,2.01-.73,4.02-1.45,6.02-2.19.39-.15.62-.1.94.19,5.28,4.99,10.57,9.96,15.87,14.93,1.23,1.15,2.45,2.32,3.71,3.44.54.48.36.57-.2.78-8.55,3.09-17.09,6.21-25.64,9.31-2.71.99-5.42,1.97-8.13,2.96-.14.05-.28.13-.47.21,3.56,3.35,7.09,6.67,10.71,10.07-.85.32-1.62.62-2.4.91-4.26,1.55-8.53,3.09-12.79,4.65-.4.15-.66.12-1-.2-3.63-3.44-7.29-6.86-10.94-10.28-8.9-8.37-17.8-16.74-26.7-25.1-1.28-1.2-2.57-2.4-3.97-3.71,1.43-.52,2.76-.99,4.09-1.48,9.45-3.43,18.91-6.86,28.35-10.33.68-.25,1.03-.15,1.52.33,2.96,2.83,5.96,5.61,9.06,8.51-5.87,2.14-11.64,4.23-17.49,6.36,1.86,1.75,3.66,3.45,5.47,5.15,1.94,1.83,3.89,3.67,5.83,5.5.26.25.48.45.94.29,6.14-2.26,12.3-4.49,18.45-6.73.07-.02.13-.06.25-.12-3.57-3.35-7.11-6.68-10.73-10.08h0Z"/>
      <path class="cls-1" d="M2.93,46.53c1.5-.54,2.86-1.01,4.19-1.54.41-.16.56.09.78.29,4.1,3.86,8.21,7.71,12.31,11.57,7.86,7.39,15.73,14.78,23.57,22.19.39.37.71.37,1.17.2,3.32-1.23,6.66-2.43,9.98-3.66.43-.16.71-.14,1.07.21,1.52,1.48,3.08,2.92,4.73,4.47-1.37.51-2.65.99-3.93,1.46-3.73,1.36-7.47,2.7-11.19,4.08-.53.2-.85.06-1.22-.29-5.07-4.79-10.16-9.58-15.24-14.36-7.14-6.72-14.29-13.44-21.44-20.16-1.55-1.45-3.1-2.9-4.78-4.47h0Z"/>
      <path class="cls-1" d="M3,38.37c1.51-.55,2.87-1.03,4.22-1.55.34-.13.47.07.66.24,3.57,3.36,7.14,6.72,10.72,10.08,7.62,7.16,15.25,14.32,22.87,21.48.78.73,1.58,1.43,2.32,2.19.37.39.69.39,1.16.22,3.25-1.2,6.52-2.37,9.77-3.58.56-.21.91-.14,1.36.29,1.46,1.44,2.97,2.81,4.55,4.29-1.8.66-3.53,1.29-5.26,1.92-3.25,1.18-6.5,2.35-9.74,3.55-.46.17-.75.14-1.14-.22-6.39-6.04-12.8-12.05-19.21-18.07-7.24-6.8-14.49-13.6-21.73-20.39-.13-.12-.28-.23-.55-.45h0Z"/>
      <path class="cls-1" d="M52.65,10.7c-3.22,1.17-6.36,2.31-9.5,3.46-1.81.66-3.63,1.29-5.42,2-.63.25-1.03.14-1.5-.31-2.43-2.33-4.89-4.63-7.35-6.95-.54-.51-1.09-1.02-1.72-1.6,1.99-.73,3.88-1.43,5.78-2.12,3.14-1.15,6.28-2.29,9.42-3.43.33-.12.6-.21.95.12,3,2.86,6.04,5.68,9.06,8.51.07.07.14.15.29.32h0Z"/>
      <path class="cls-1" d="M84.84,49.21c-2.9,1.06-5.66,2.06-8.42,3.07-5.88,2.14-11.77,4.27-17.65,6.43-.56.2-.93.16-1.37-.27-1.37-1.34-2.79-2.64-4.18-3.95-.11-.1-.25-.2-.25-.4,4.29-1.56,8.59-3.13,12.88-4.69,4.42-1.61,8.84-3.21,13.25-4.83.4-.15.67-.16,1.02.18,1.52,1.48,3.08,2.92,4.73,4.47h0Z"/>
      <path class="cls-1" d="M59.13,60.04c3.02-1.1,5.93-2.15,8.84-3.21,3.65-1.33,7.31-2.64,10.95-4,.66-.25,1.07-.13,1.56.35,1.43,1.42,2.92,2.78,4.47,4.25-1.48.55-2.87,1.07-4.27,1.58-7.27,2.64-14.54,5.28-21.81,7.94-.6.22-1.1.31-1.47-.44,2.02-.74,4.04-1.48,6.18-2.26-1.49-1.4-2.91-2.75-4.45-4.2h0Z"/>
      <path class="cls-1" d="M45.56,35.44c-1.23.45-2.66.96-4.08,1.48-1.48.54-2.96,1.07-4.43,1.61-.29.11-.55.24-.85-.04-1.59-1.51-3.2-3.01-4.88-4.59,2.44-.89,4.84-1.62,7.1-2.64,1.68-.76,2.9-.67,4,.86.44.62,1.15,1.04,1.69,1.6.52.54.97,1.14,1.45,1.72h0Z"/>
      <path class="cls-1" d="M52.55,18.88c-2.33.84-4.56,1.65-6.79,2.45-.85.31-1.77.96-2.53.8-.76-.16-1.36-1.12-2.02-1.73-.93-.86-1.85-1.74-2.78-2.61-.28-.26-.35-.39.11-.55,2.82-1.01,5.64-2.04,8.45-3.08.27-.1.46-.1.69.11,1.59,1.51,3.19,3.02,4.87,4.6h0Z"/>
      <path class="cls-1" d="M56.6,37.26c-1.41.51-2.68.95-3.93,1.43-.4.15-.66.1-.96-.2-.92-.91-1.87-1.78-2.91-2.75,1.45-.53,2.82-1.01,4.18-1.52.21-.08.34-.04.48.1,1.01.95,2.03,1.91,3.13,2.94h0Z"/>
      <path class="cls-1" d="M27.28,15.52c1.44-.52,2.77-1.01,4.09-1.5.23-.09.41-.1.62.11.98.95,1.99,1.88,3.07,2.9-1.44.53-2.78,1.02-4.13,1.5-.17.06-.34.12-.51-.04-1.03-.97-2.06-1.94-3.16-2.97h0Z"/>
      <path class="cls-1" d="M50.28,39.53c-1.46.54-2.82,1.03-4.17,1.54-.29.11-.43-.06-.6-.22-.98-.92-1.96-1.84-2.99-2.82,1.41-.51,2.77-.98,4.12-1.5.34-.13.47.03.66.2.96.9,1.93,1.8,2.99,2.8h0Z"/>
      <path class="cls-1" d="M44.36,31.55c1.39-.51,2.67-.98,3.95-1.44.24-.09.48-.2.72.03.99.95,1.99,1.88,3.08,2.91-1.46.53-2.82,1.03-4.18,1.52-.19.07-.34.02-.49-.12-.99-.95-1.99-1.88-3.07-2.9h0Z"/>
      <path class="cls-1" d="M50.79,25.34c-1,.36-1.92.68-2.84,1.03-.24.09-.37.04-.54-.12-.99-.94-1.99-1.88-3.07-2.9,1.01-.37,1.94-.72,2.87-1.06.18-.07.35-.02.5.12,1,.96,2.01,1.92,3.07,2.93h0Z"/>
      <path class="cls-1" d="M37.61,39.81c.96-.35,1.79-.64,2.6-.95.3-.11.56-.18.84.09.96.93,1.94,1.84,3.01,2.85-1.01.37-1.94.7-2.86,1.04-.2.07-.34.05-.49-.09-1.01-.96-2.01-1.91-3.1-2.95h0Z"/>
      <path class="cls-1" d="M42.53,29.82c1.4-.51,2.74-.98,4.05-1.49.61-.24.73.29,1.13.57-1.44.52-2.81,1.01-4.17,1.51-.58.21-.65-.34-1.01-.59h0Z"/>
    </g>
  </g>
</svg>