<?xml version="1.0" encoding="UTF-8"?>
<svg id="Layer_2" data-name="Layer 2" xmlns="http://www.w3.org/2000/svg" viewBox="0 0 562.69 561.8">
  <defs>
    <style>
      .cls-1 {
        fill: #2f7dbd;
      }

      .cls-1, .cls-2, .cls-3, .cls-4 {
        stroke-width: 0px;
      }

      .cls-2 {
        fill: #111010;
      }

      .cls-3 {
        fill: #fff;
      }

      .cls-4 {
        fill: #f7b01a;
      }
    </style>
  </defs>
  <g id="Layer_1-2" data-name="Layer 1">
    <g>
      <path class="cls-2" d="M282.63,561.8c-5.23-7.08-12.22-12.41-18.54-18.38-43.31-40.83-86.72-81.55-130.1-122.31-43.61-40.98-87.21-81.97-130.83-122.93-.72-.68-1.61-1.18-3.16-2.3,14.12-5.17,27.21-9.97,40.74-14.93-13.37-12.6-26.51-24.98-40.17-37.85,13.69-5.01,26.65-9.75,40.17-14.69-13.49-12.71-26.53-25-40.2-37.87,61.32-22.3,122.23-44.46,183.7-66.81-9.68-9.13-18.85-17.77-28.5-26.87,13.49-4.93,26.47-9.68,40.18-14.69-13.48-12.71-26.59-25.07-40.21-37.92,11.16-4.04,21.66-7.84,32.17-11.66,29.27-10.63,58.55-21.22,87.76-32,2.96-1.09,4.66-.69,6.9,1.43,23.56,22.27,47.24,44.42,70.88,66.61.6.56,1.12,1.2,2.19,2.35-13.33,4.88-26.27,9.61-39.99,14.63,13.56,12.79,26.67,25.16,40.15,37.87-13.48,4.93-26.58,9.72-40.16,14.69,6.81,6.44,13.33,12.57,19.81,18.74,1.97,1.88,3.79.34,5.53-.28,24.16-8.71,48.31-17.42,72.39-26.33,3.08-1.14,5-.8,7.36,1.43,44.4,41.88,88.87,83.69,133.33,125.5,2.66,2.5,5.33,4.98,8.66,8.09-13.47,4.93-26.47,9.69-40.22,14.72,13.51,12.73,26.64,25.1,40.2,37.87-13.66,4.99-26.78,9.77-40.22,14.68,13.34,12.56,26.49,24.95,40.24,37.9-61.46,22.34-122.28,44.46-183.67,66.77,8.73,8.29,17,16.4,25.61,24.15,2.98,2.69,1.81,3.31-.96,4.3-11.07,3.97-22.12,8.02-33.17,12.03-.91.33-2.02.29-2.59,1.68,12.95,12.2,25.97,24.47,39.58,37.29-8.75,3.19-16.92,6.18-25.1,9.15-31.22,11.34-62.45,22.67-93.65,34.09-1.05.39-2.75.1-3.11,1.82h-3v.03ZM311.97,176.37c23.16,21.77,45.87,43.11,68.72,64.6-.76.35-1.18.58-1.62.74-39.42,14.35-78.85,28.65-118.22,43.13-2.95,1.08-4.34-.24-6.03-1.83-12.47-11.74-24.92-23.5-37.38-35.24-11.57-10.9-23.15-21.79-35.05-33,37.48-13.63,74.45-27.09,112.05-40.76-19.82-18.58-39.04-36.44-58.02-54.54-3.16-3.01-5.43-3.68-9.77-2.09-60.5,22.23-121.1,44.17-181.68,66.17-8.51,3.09-17.04,6.15-26.2,9.46,8.94,8.35,17.2,16.03,25.42,23.75,57.04,53.61,114.06,107.23,171.1,160.83,23.36,21.96,46.8,43.84,70.07,65.89,2.17,2.06,3.84,2.19,6.4,1.26,27.31-9.98,54.65-19.87,81.97-29.8,5-1.82,9.95-3.75,15.39-5.81-23.19-21.8-45.81-43.07-68.62-64.52,1.2-.55,2.07-1.03,2.99-1.36,17.37-6.33,34.75-12.64,52.12-18.96,54.75-19.91,109.48-39.86,164.26-59.68,3.58-1.29,4.71-1.91,1.27-4.97-8.07-7.18-15.86-14.67-23.74-22.06-33.92-31.86-67.84-63.7-101.67-95.65-2.02-1.91-3.54-2.16-6.03-1.23-12.82,4.78-25.72,9.37-38.57,14.06-19.49,7.11-38.97,14.24-59.16,21.63v-.02ZM18.79,298.11c10.73,10.02,20.71,19.29,30.63,28.61,45.79,43.04,91.58,86.09,137.36,129.16,32.58,30.65,65.14,61.3,97.66,92.01,2.38,2.25,4.43,3.12,7.82,1.86,23.85-8.84,47.78-17.44,71.68-26.15,8.23-3,16.43-6.09,25.21-9.35-10.54-9.92-20.56-19.14-30.3-28.64-2.29-2.23-4.1-2.35-6.87-1.32-21.29,7.88-42.65,15.58-63.94,23.45-2.92,1.08-4.97,1.05-7.47-1.3-50.29-47.45-100.68-94.8-151.05-142.17-26.28-24.71-52.57-49.42-78.86-74.13-1.38-1.3-2.32-2.91-4.97-1.87-8.56,3.36-17.26,6.36-26.87,9.84h-.03ZM19.2,245.87c1.73,1.41,2.68,2.09,3.52,2.88,46.42,43.55,92.84,87.1,139.25,130.67,41.07,38.55,82.16,77.09,123.11,115.76,2.49,2.35,4.31,2.54,7.28,1.44,20.76-7.67,41.58-15.16,62.38-22.73,11.08-4.03,22.15-8.1,33.69-12.32-10.1-9.45-19.82-18.26-29.15-27.47-2.84-2.8-5.11-3.21-8.69-1.88-20.83,7.74-41.76,15.21-62.59,22.93-3.01,1.11-5.07,1.07-7.46-1.4-4.74-4.89-9.87-9.39-14.84-14.05-48.85-45.87-97.69-91.73-146.53-137.6-22.9-21.51-45.79-43.05-68.68-64.57-1.18-1.11-2.06-2.38-4.22-1.55-8.65,3.31-17.39,6.39-27.06,9.91v-.02ZM337.34,68.57c-.97-1.08-1.37-1.6-1.85-2.05-19.37-18.16-38.8-36.26-58.04-54.55-2.23-2.12-3.96-1.55-6.1-.77-20.12,7.32-40.25,14.63-60.36,21.97-12.12,4.42-24.22,8.88-37.01,13.57,4.04,3.76,7.56,6.99,11.03,10.27,15.72,14.81,31.48,29.57,47.07,44.5,3.01,2.89,5.59,3.58,9.62,1.99,11.48-4.53,23.16-8.56,34.76-12.79,20.14-7.33,40.27-14.66,60.87-22.15h.01ZM543.6,315.34c-10.54-9.91-20.54-19.13-30.28-28.63-2.22-2.17-3.94-2.09-6.51-1.15-28.28,10.37-56.59,20.64-84.89,30.94-27.54,10.02-55.07,20.06-82.55,30.07.03,1.34.92,1.92,1.62,2.58,8.94,8.44,18.01,16.75,26.8,25.34,2.78,2.71,5.19,3.02,8.77,1.7,37.65-13.83,75.37-27.49,113.06-41.2,17.68-6.43,35.37-12.88,53.97-19.65h.01ZM378.84,384.71c9.85,9.3,18.99,17.92,28.53,26.92-13.72,5.02-26.69,9.77-39.62,14.51,2.38,4.81,5.57,4.23,9.42,2.83,46.55-17.01,93.14-33.91,139.72-50.85,8.96-3.26,17.88-6.61,27.38-10.12-9.95-9.39-19.5-18.11-28.67-27.21-3.14-3.11-5.72-3.87-9.97-2.27-23.31,8.73-46.74,17.13-70.13,25.64-18.66,6.78-37.32,13.55-56.65,20.57v-.02ZM291.89,227.09c-3.06-3.66-5.96-7.53-9.29-10.99-3.44-3.58-7.96-6.29-10.81-10.24-7.1-9.84-14.87-10.41-25.65-5.54-14.5,6.55-29.85,11.2-45.5,16.9,10.77,10.12,21.05,19.73,31.25,29.42,1.89,1.79,3.54.93,5.42.25,9.46-3.47,18.94-6.89,28.41-10.32,9.13-3.31,18.26-6.62,26.17-9.48ZM336.73,120.95c-10.75-10.13-21.02-19.75-31.19-29.45-1.45-1.38-2.67-1.36-4.41-.72-18.03,6.64-36.06,13.29-54.16,19.74-2.94,1.05-2.48,1.89-.71,3.54,5.96,5.55,11.87,11.15,17.83,16.7,4.24,3.94,8.08,10.09,12.96,11.09,4.84.99,10.77-3.19,16.2-5.15,14.28-5.15,28.54-10.33,43.48-15.73v-.02ZM362.63,238.74c-7.06-6.62-13.57-12.72-20.07-18.84-.92-.86-1.74-1.11-3.09-.61-8.71,3.26-17.48,6.38-26.78,9.74,6.61,6.22,12.72,11.81,18.63,17.61,1.94,1.91,3.58,2.26,6.14,1.27,8.02-3.1,16.15-5.92,25.18-9.18h-.01ZM174.79,99.43c7,6.57,13.62,12.78,20.22,19.01,1.06,1,2.16.65,3.24.26,8.61-3.11,17.21-6.26,26.44-9.63-6.94-6.51-13.38-12.46-19.7-18.55-1.34-1.29-2.49-1.22-3.98-.68-8.5,3.12-17.02,6.22-26.22,9.58h0ZM322.19,253.31c-6.81-6.37-12.98-12.15-19.15-17.93-1.2-1.12-2.06-2.15-4.22-1.31-8.59,3.35-17.32,6.36-26.37,9.63,6.62,6.22,12.9,12.13,19.18,18.04,1.09,1.02,1.99,2.11,3.85,1.41,8.65-3.26,17.35-6.4,26.7-9.84h0ZM284.2,202.16c6.94,6.55,13.34,12.55,19.69,18.61.97.92,1.96,1.2,3.15.77,8.72-3.16,17.43-6.34,26.8-9.75-7-6.61-13.39-12.61-19.72-18.67-1.55-1.48-3.07-.77-4.6-.22-8.22,2.98-16.42,6-25.31,9.25h0ZM325.43,162.35c-6.8-6.47-13.27-12.6-19.7-18.76-.96-.92-2.03-1.18-3.19-.76-5.99,2.17-11.95,4.4-18.42,6.8,6.92,6.52,13.32,12.51,19.67,18.55,1.07,1.02,1.92,1.38,3.46.79,5.85-2.26,11.78-4.31,18.18-6.62h0ZM240.98,255.08c6.99,6.63,13.44,12.75,19.88,18.89.95.91,1.9,1.04,3.15.58,5.92-2.21,11.87-4.34,18.34-6.69-6.83-6.44-13.13-12.27-19.28-18.25-1.81-1.77-3.45-1.33-5.4-.59-5.25,1.97-10.53,3.84-16.69,6.07h0ZM272.5,191.09c2.35,1.58,2.81,5.12,6.49,3.77,8.73-3.2,17.49-6.35,26.71-9.69-2.57-1.75-3.34-5.15-7.24-3.63-8.42,3.29-16.97,6.26-25.97,9.54h.01Z"/>
      <path class="cls-3" d="M311.97,176.37c20.19-7.38,39.67-14.52,59.16-21.63,12.86-4.69,25.75-9.27,38.57-14.06,2.49-.93,4-.67,6.03,1.23,33.83,31.95,67.75,63.8,101.67,95.65,7.87,7.4,15.67,14.88,23.74,22.06,3.44,3.06,2.31,3.68-1.27,4.97-54.78,19.82-109.52,39.76-164.26,59.68-17.37,6.32-34.75,12.63-52.12,18.96-.92.34-1.79.81-2.99,1.36,22.81,21.44,45.43,42.71,68.62,64.52-5.44,2.06-10.39,3.99-15.39,5.81-27.32,9.94-54.67,19.82-81.97,29.8-2.56.94-4.23.8-6.4-1.26-23.27-22.05-46.71-43.94-70.07-65.89-57.04-53.6-114.06-107.23-171.1-160.83-8.22-7.72-16.48-15.4-25.42-23.75,9.16-3.31,17.68-6.37,26.2-9.46,60.58-22,121.18-43.94,181.68-66.17,4.34-1.59,6.61-.93,9.77,2.09,18.98,18.11,38.19,35.96,58.02,54.54-37.6,13.68-74.58,27.13-112.05,40.76,11.9,11.2,23.48,22.09,35.05,33,12.46,11.74,24.92,23.5,37.38,35.24,1.69,1.59,3.09,2.91,6.03,1.83,39.37-14.48,78.81-28.78,118.22-43.13.44-.16.85-.39,1.62-.74-22.85-21.48-45.56-42.83-68.72-64.6v.02Z"/>
      <path class="cls-4" d="M18.79,298.11c9.61-3.48,18.31-6.48,26.87-9.84,2.64-1.04,3.59.57,4.97,1.87,26.29,24.71,52.58,49.41,78.86,74.13,50.37,47.37,100.76,94.72,151.05,142.17,2.5,2.36,4.55,2.38,7.47,1.3,21.29-7.87,42.65-15.57,63.94-23.45,2.77-1.02,4.58-.91,6.87,1.32,9.75,9.5,19.76,18.72,30.3,28.64-8.77,3.26-16.97,6.35-25.21,9.35-23.9,8.71-47.84,17.31-71.68,26.15-3.39,1.26-5.43.39-7.82-1.86-32.51-30.71-65.08-61.37-97.66-92.01-45.77-43.06-91.56-86.11-137.36-129.16-9.92-9.32-19.89-18.59-30.63-28.61h.03Z"/>
      <path class="cls-1" d="M19.2,245.87c9.67-3.52,18.41-6.6,27.06-9.91,2.16-.83,3.04.44,4.22,1.55,22.89,21.53,45.78,43.06,68.68,64.57,48.84,45.87,97.69,91.74,146.53,137.6,4.97,4.67,10.1,9.17,14.84,14.05,2.39,2.47,4.45,2.52,7.46,1.4,20.84-7.72,41.76-15.19,62.59-22.93,3.58-1.33,5.86-.92,8.69,1.88,9.33,9.21,19.06,18.02,29.15,27.47-11.55,4.22-22.61,8.29-33.69,12.32-20.8,7.57-41.62,15.06-62.38,22.73-2.97,1.1-4.79.91-7.28-1.44-40.95-38.68-82.04-77.21-123.11-115.76-46.41-43.57-92.83-87.12-139.25-130.67-.85-.79-1.8-1.48-3.52-2.88v.02Z"/>
      <path class="cls-3" d="M337.34,68.57c-20.6,7.49-40.73,14.82-60.87,22.15-11.6,4.22-23.28,8.26-34.76,12.79-4.03,1.59-6.61.9-9.62-1.99-15.59-14.94-31.36-29.69-47.07-44.5-3.48-3.28-6.99-6.51-11.03-10.27,12.78-4.69,24.89-9.15,37.01-13.57,20.11-7.34,40.24-14.66,60.36-21.97,2.14-.78,3.87-1.35,6.1.77,19.24,18.3,38.67,36.39,58.04,54.55.47.44.87.96,1.85,2.05h-.01Z"/>
      <path class="cls-1" d="M543.6,315.34c-18.61,6.77-36.29,13.22-53.97,19.65-37.7,13.71-75.41,27.37-113.06,41.2-3.58,1.31-5.99,1.01-8.77-1.7-8.8-8.59-17.86-16.9-26.8-25.34-.7-.66-1.6-1.25-1.62-2.58,27.48-10.01,55.01-20.04,82.55-30.07,28.3-10.3,56.61-20.57,84.89-30.94,2.57-.94,4.29-1.02,6.51,1.15,9.73,9.5,19.74,18.72,30.28,28.63h-.01Z"/>
      <path class="cls-4" d="M378.84,384.71c19.34-7.02,38-13.78,56.65-20.57,23.39-8.5,46.82-16.91,70.13-25.64,4.25-1.59,6.84-.84,9.97,2.27,9.17,9.1,18.72,17.83,28.67,27.21-9.5,3.51-18.42,6.86-27.38,10.12-46.58,16.94-93.17,33.84-139.72,50.85-3.85,1.41-7.04,1.99-9.42-2.83,12.92-4.73,25.9-9.48,39.62-14.51-9.54-9-18.67-17.62-28.53-26.92v.02Z"/>
      <path class="cls-1" d="M291.89,227.09c-7.9,2.86-17.04,6.17-26.17,9.48-9.47,3.43-18.95,6.85-28.41,10.32-1.88.69-3.53,1.54-5.42-.25-10.2-9.7-20.49-19.31-31.25-29.42,15.65-5.7,31-10.35,45.5-16.9,10.78-4.87,18.55-4.3,25.65,5.54,2.85,3.95,7.38,6.66,10.81,10.24,3.32,3.47,6.22,7.33,9.29,10.99h0Z"/>
      <path class="cls-1" d="M336.73,120.95c-14.94,5.41-29.2,10.58-43.48,15.73-5.43,1.96-11.36,6.14-16.2,5.15-4.88-1-8.71-7.15-12.96-11.09-5.97-5.54-11.87-11.15-17.83-16.7-1.77-1.65-2.23-2.49.71-3.54,18.1-6.45,36.13-13.09,54.16-19.74,1.73-.64,2.96-.66,4.41.72,10.18,9.7,20.44,19.32,31.19,29.45v.02Z"/>
      <path class="cls-1" d="M362.63,238.74c-9.02,3.26-17.16,6.08-25.18,9.18-2.56.99-4.2.64-6.14-1.27-5.91-5.8-12.01-11.39-18.63-17.61,9.31-3.37,18.07-6.49,26.78-9.74,1.34-.5,2.17-.25,3.09.61,6.5,6.11,13.01,12.21,20.07,18.84h.01Z"/>
      <path class="cls-1" d="M174.79,99.43c9.21-3.36,17.72-6.46,26.22-9.58,1.49-.55,2.64-.61,3.98.68,6.31,6.09,12.76,12.04,19.7,18.55-9.23,3.37-17.83,6.52-26.44,9.63-1.07.39-2.18.74-3.24-.26-6.6-6.23-13.22-12.44-20.22-19.01h0Z"/>
      <path class="cls-3" d="M322.19,253.31c-9.36,3.43-18.05,6.58-26.7,9.84-1.86.7-2.77-.39-3.85-1.41-6.28-5.91-12.56-11.81-19.18-18.04,9.05-3.27,17.77-6.28,26.37-9.63,2.16-.84,3.02.19,4.22,1.31,6.17,5.78,12.34,11.56,19.15,17.93h0Z"/>
      <path class="cls-3" d="M284.2,202.16c8.89-3.25,17.09-6.27,25.31-9.25,1.53-.56,3.05-1.27,4.6.22,6.33,6.06,12.72,12.05,19.72,18.67-9.36,3.41-18.08,6.59-26.8,9.75-1.19.43-2.18.15-3.15-.77-6.35-6.06-12.75-12.06-19.69-18.61h0Z"/>
      <path class="cls-4" d="M325.43,162.35c-6.39,2.31-12.32,4.36-18.18,6.62-1.54.6-2.4.23-3.46-.79-6.35-6.04-12.75-12.04-19.67-18.55,6.47-2.39,12.44-4.62,18.42-6.8,1.16-.42,2.23-.15,3.19.76,6.43,6.16,12.89,12.29,19.7,18.76h0Z"/>
      <path class="cls-4" d="M240.98,255.08c6.16-2.23,11.44-4.1,16.69-6.07,1.95-.73,3.59-1.17,5.4.59,6.15,5.98,12.45,11.81,19.28,18.25-6.47,2.35-12.42,4.48-18.34,6.69-1.25.47-2.2.33-3.15-.58-6.44-6.14-12.9-12.26-19.88-18.89h0Z"/>
      <path class="cls-4" d="M272.5,191.09c9-3.28,17.55-6.25,25.97-9.54,3.9-1.52,4.67,1.88,7.24,3.63-9.23,3.34-17.98,6.48-26.71,9.69-3.69,1.35-4.14-2.19-6.49-3.77h-.01Z"/>
    </g>
  </g>
</svg>