<?xml version="1.0" encoding="UTF-8"?>
<svg id="Layer_2" data-name="Layer 2" xmlns="http://www.w3.org/2000/svg" viewBox="0 0 644.34 956.71">
  <defs>
    <style>
      .cls-1 {
        fill: #0751a0;
      }

      .cls-1, .cls-2, .cls-3 {
        stroke-width: 0px;
      }

      .cls-2 {
        fill: #f4eb25;
      }

      .cls-3 {
        fill: #fff;
      }
    </style>
  </defs>
  <g id="Layer_2-2" data-name="Layer 2">
    <g>
      <path class="cls-3" d="M415.95,183.78c3.29-2.26,6.12-4.37,9.09-6.2,4.4-2.71,8.84-3.02,12.89.72,3.92,3.62,4.85,8.29,3.7,13.75-1.11,5.24-2.38,10.52-2.75,15.84-.46,6.59,2.36,9.92,8.35,10.9,2.67.44,4.32,1.65,4.41,4.74.14,4.59,2.61,5.52,6.45,4.71.88,5.28,3.84,5.86,7.95,4.3,3.84-1.46,6.83-1.03,8.36,4.2,1.19,4.05,4.14,4.79,7.71,2.77,2.43-1.38,4.73-3.05,7.17-4.42,3.68-2.06,7.64-2.61,11.23-.34,26.9,17.02,58.39-2.8,70.97-28.62,11.48-23.58,12.6-48.01,3.98-72.68-7.21-20.63-21.98-31.06-41.37-33.87-20.86-3.02-40.71.45-57.93,14.74-13.02,10.8-25.28,10.49-37.93.03-6.28-5.2-12.79-10.05-19.62-15.39-.89,28.38-1.77,56.22-2.66,84.84Z"/>
      <path class="cls-1" d="M622.82,379.35c-25.9,4.07-51.11,8.04-75.24,11.83-3.62-6.42-6.58-12.53-10.35-18.13-3.61-5.36-9.28-6.93-15.79-5.78-6.08,1.08-12.15,2.35-18.28,3.02-10.95,1.19-15.76-2.7-16.45-13.35-.3-4.58-.7-8.4-5.87-10.5-1.12-.45-.81-4.17-1.3-7.29-2.78-.69-3.52-3.98-2.79-7.72,1.01-5.11-1.19-7.93-6.09-9.23-1.48-.39-2.91-.97-4.33-1.54-3.78-1.52-4.66-4.01-2.69-7.59,3.17-5.75,6.31-11.51,9.3-17.35,2.82-5.52,3.28-11.31.85-16.97-12.59-29.42,6.01-67.39,43.66-76.88,21.07-5.31,41.98-6.94,62.69.45,30.61,10.92,51.6,46.63,43.88,75.57-2.48,9.28-6.98,18.12-11.05,26.95-6.49,14.09-10.9,28.51-5.42,43.57,3.39,9.32,8.52,18.03,12.9,27,.57,1.16,1.33,2.24,2.35,3.94Z"/>
      <path class="cls-2" d="M26.57,336.09c32.3,10.03,63.73,19.79,93.82,29.13,5.89-7.78,10.89-15.26,16.82-21.93,5.67-6.38,13.23-7.42,21.32-4.73,7.56,2.51,15.06,5.28,22.76,7.26,13.76,3.54,20.68-.69,23.66-14.55,1.28-5.96,2.55-10.91,9.58-12.72,1.52-.39,1.86-5.33,3.1-9.34,3.69-.4,5.29-4.59,5.09-9.63-.27-6.89,3.09-10.19,9.6-11.02,1.97-.25,3.91-.74,5.84-1.24,5.13-1.32,6.75-4.42,4.94-9.48-2.91-8.12-5.79-16.25-8.45-24.45-2.52-7.75-1.95-15.44,2.27-22.44,21.91-36.35,5.65-89.55-40.59-108.81-25.88-10.78-52.28-16.7-80.21-10.74-41.28,8.8-75.17,51.89-71.03,91.28,1.33,12.63,5.33,25.05,8.79,37.38,5.51,19.66,8.29,39.39-1.69,58.18-6.17,11.62-14.45,22.13-21.82,33.11-.96,1.43-2.14,2.7-3.78,4.74Z"/>
      <path class="cls-1" d="M278.73,238.12c-25.15,3.95-49.62,7.8-73.04,11.49-3.54-6.43-6.45-12.55-10.14-18.16-3.53-5.37-9.05-6.97-15.37-5.84-5.9,1.05-11.79,2.29-17.74,2.93-10.63,1.14-15.33-2.77-16.04-13.41-.31-4.58-.71-8.4-5.75-10.52-1.09-.46-.8-4.17-1.3-7.29-2.7-.7-3.44-3.99-2.74-7.73.95-5.1-1.19-7.93-5.95-9.25-1.44-.4-2.83-.98-4.21-1.56-3.68-1.54-4.55-4.03-2.65-7.6,3.05-5.73,6.08-11.47,8.96-17.29,2.72-5.5,3.13-11.29.75-16.96-12.36-29.46,5.54-67.31,42.07-76.63,20.45-5.21,40.75-6.75,60.91.73,29.79,11.05,50.34,46.83,42.97,75.72-2.36,9.26-6.7,18.08-10.61,26.88-6.25,14.05-10.46,28.44-5.07,43.52,3.33,9.33,8.36,18.05,12.65,27.03.56,1.17,1.3,2.24,2.3,3.94Z"/>
      <path class="cls-3" d="M141.67,478.93c-3.4-3.42-6.51-6.32-9.34-9.46-4.2-4.65-5.76-9.98-2.76-15.87,2.91-5.69,7.8-8.03,14.13-8.03,6.08,0,12.24.19,18.21-.73,7.39-1.14,10.28-5.41,9.71-12.95-.26-3.36.62-5.67,4-6.58,5.02-1.35,5.37-4.59,3.41-9.05,5.57-2.42,5.39-6.17,2.54-10.77-2.66-4.3-3.02-8.04,2.32-11.25,4.14-2.49,4.13-6.27.92-10.08-2.19-2.6-4.67-4.97-6.85-7.58-3.28-3.94-4.98-8.62-3.47-13.57,11.34-37.1-19.18-70.31-51.11-78.97-29.14-7.91-56.38-2.99-81.18,13.83-20.74,14.06-28.17,34.71-25.92,59.02,2.42,26.15,11.72,49.4,32.21,66.67,7.64,6.44,12.25,13.35,14,20.87,2.3,9.92-5.79,15.94-3.51,25.25,1.77,7.24,7.94,11.98,12.86,14.86,23.27-1.87,46.54-3.73,69.82-5.6Z"/>
      <path class="cls-3" d="M287.71,441.22c-3.67-3.69-7.03-6.82-10.09-10.22-4.53-5.03-6.23-10.78-2.98-17.14,3.14-6.15,8.43-8.68,15.27-8.68,6.57,0,13.23.21,19.68-.78,7.99-1.23,11.11-5.85,10.49-13.99-.28-3.63.67-6.13,4.32-7.11,5.42-1.46,5.8-4.96,3.68-9.78,6.02-2.62,5.83-6.67,2.75-11.64-2.88-4.64-3.26-8.69,2.51-12.16,4.47-2.69,4.47-6.78,1-10.89-2.37-2.81-5.05-5.37-7.4-8.19-3.55-4.26-5.38-9.31-3.75-14.67,12.25-40.08-20.73-75.96-55.22-85.31-31.49-8.54-60.92-3.23-87.71,14.94-22.41,15.19-30.43,37.5-28,63.77,2.61,28.25,12.67,53.37,34.8,72.03,16.74,14.11,20.02,30.3,11.33,49.83-4.31,9.69-8.16,19.6-12.48,30.05,34.06-6.71,67.46-13.28,101.8-20.05Z"/>
      <path class="cls-1" d="M34.79,411.27c25.15-3.95,49.62-7.8,73.04-11.49,1.4-7.21,2.29-13.93,4.07-20.4,1.71-6.19,6.47-9.41,12.83-10.28,5.94-.81,11.93-1.44,17.79-2.66,10.47-2.18,13.74-7.34,11.15-17.69-1.11-4.45-1.9-8.21,2.24-11.78.9-.77-.52-4.22-1.01-7.34,2.36-1.49,2.05-4.85.24-8.2-2.47-4.56-1.3-7.91,2.83-10.63,1.25-.82,2.39-1.8,3.53-2.78,3.02-2.59,3.09-5.23.19-8.04-4.66-4.52-9.31-9.05-13.83-13.71-4.28-4.4-6.45-9.78-5.92-15.91,2.73-31.83-25.93-62.36-63.56-60.02-17.96,1.12-45,1.59-57.75,19.39-9.39,13.1-.73,19.49-12.01,54.51-4.54,14.11-8.51,21.03-5.65,30.74,2.71,9.19,7.3,9.98,18.35,22.33,10.26,11.45,18.68,23.85,18.18,39.86-.31,9.9-2.41,19.75-3.74,29.61-.17,1.28-.55,2.54-.98,4.46Z"/>
      <path class="cls-1" d="M555.62,344.09c-7.84-3.05-14.82-5.47-21.6-8.48-10.02-4.45-16.63-11.82-16.8-23.28-.17-11.09,5.33-18.25,14.85-22.7,9.14-4.27,18.57-8.3,26.82-13.95,10.22-7,11.15-15.83,4.28-27.41-3.07-5.16-3.59-9.45.77-13.27,6.48-5.68,4.41-11.07-2.09-16.79,6.45-7.77,3.19-13.6-4.77-18.91-7.43-4.96-10.95-10.66-5.49-19.52,4.24-6.86,1.22-12.87-6.65-16.68-5.38-2.6-10.99-4.62-16.35-7.25-8.08-3.96-14.37-10.21-16.05-19.14-12.53-66.94-84.93-98.29-139.87-89.64-50.15,7.9-87.21,34.85-111.1,79-19.99,36.92-14.69,74.96,8.09,112.04,24.5,39.87,57.04,70.3,101.64,83.37,33.72,9.88,50.25,31.57,52.57,65.96,1.15,17.07,3.1,34.14,4.8,52.33,42.47-32.01,84.12-63.4,126.96-95.68Z"/>
      <path class="cls-1" d="M183.75,588.06c-29.63-18.94-58.65-37.5-87.92-56.21,3.02-4.19,6.03-7.99,8.62-12.06,4.3-6.75,3.81-12.28-2.05-17.63-4.26-3.89-9.15-7.12-13.88-10.47-11.99-8.51-12.63-19.56-1.85-29.52,1.39-1.29,2.46-3.73,2.42-5.61-.12-5.57-.37-5.56,3.98-8.85-2.66-4.52-1.64-8.14,2.99-10.68,3.62-1.99,3.31-4.56,1.14-7.41-.68-.89-1.41-1.75-2.07-2.65-4.73-6.38-3.78-10.57,3.33-13.71,7.03-3.1,14.09-6.15,21.27-8.89,5.67-2.17,9.63-5.42,12.49-11.17,13.93-27.95,41.89-42.55,72.76-36.91,32.6,5.96,58.85,22.44,74.4,52.52,19.96,38.62-.5,83.97-28.5,98.29-7.65,3.91-14.67,9.04-22.13,13.36-18.9,10.95-31.2,27.1-38.08,47.63-2.19,6.54-4.51,13.04-6.92,19.99Z"/>
      <path class="cls-3" d="M423.09,515.16c4.85-1.34,9.17-2.36,13.37-3.74,6.21-2.05,10.39-6.07,10.71-12.96.31-6.67-2.91-11.32-8.65-14.6-5.51-3.15-11.2-6.17-16.14-10.09-6.11-4.86-6.52-10.23-2.1-16.77,1.97-2.92,2.37-5.46-.22-8.04-3.85-3.83-2.49-6.94,1.59-9.97-3.8-5.08-1.7-8.39,3.27-11.08,4.64-2.52,6.9-5.73,3.72-11.4-2.46-4.4-.5-7.83,4.38-9.62,3.34-1.23,6.81-2.09,10.13-3.33,5.02-1.88,8.98-5.24,10.17-10.51,8.92-39.5,53.79-53.81,87.22-45.14,30.52,7.92,52.67,26.48,66.45,54.56,11.53,23.49,7.57,46.05-7.06,66.93-15.73,22.45-36.2,38.72-63.72,43.77-20.8,3.82-31.32,15.84-33.39,36.39-1.02,10.2-2.54,20.35-3.92,31.2-25.37-21.95-50.24-43.47-75.83-65.6Z"/>
      <path class="cls-3" d="M394.97,522.27c-4.71,2.16-8.78,4.23-13,5.93-6.25,2.52-12.21,2.13-17.03-3.08-4.67-5.04-5.22-10.85-2.88-17.24,2.25-6.14,4.72-12.29,6-18.65,1.59-7.88-1.66-12.38-9.48-14.59-3.49-.98-5.49-2.73-5.16-6.47.49-5.57-2.65-7.11-7.88-6.79-.39-6.52-4.24-7.73-9.94-6.55-5.32,1.1-9.23.07-10.5-6.5-.98-5.1-4.8-6.49-9.84-4.66-3.44,1.25-6.74,2.88-10.19,4.11-5.19,1.85-10.54,1.84-14.98-1.52-33.25-25.16-78.06-6.63-98.61,22.39-18.76,26.5-23.86,55.81-16.06,87.06,6.53,26.14,24.62,41.27,50,47.99,27.29,7.23,54.2,6.43,79.21-7.86,18.91-10.81,35.17-8.34,50.44,6.47,7.58,7.35,15.52,14.33,23.8,21.95,5.39-34.12,10.68-67.57,16.11-101.98Z"/>
      <path class="cls-2" d="M462.47,539.52c-39.09-3.62-77.13-7.15-113.54-10.52-2.86-10.96-4.89-21.21-8.27-30.99-3.24-9.36-10.88-13.84-20.75-14.56-9.22-.67-18.5-1.04-27.64-2.34-16.33-2.32-21.86-9.95-18.89-26.13.85-4.65,1.51-8.82-.15-12.58-1.46-3.31-4.33-3.5-4.45-5.32-.14-2.05,2.9-5.01,15.83-9.14-11.18.86-19.84-1.26-21.33-5.77-.47-1.42-.17-2.92,0-3.77,1.16-5.76,7.01-7.28,6.86-12.02-.03-1.04-.36-1.81-.52-2.25-.32-.85-1.28-2.86-7.41-5.59-9.83-4.38-15.7-2.95-18.06-7.21-.98-1.76-.82-3.55-.73-4.64.44-5.2,4.97-8.69,9.73-12.11,15.76-11.33,18.1-10.42,23.06-16.31,5.66-6.7,7.06-13.12,7.38-14.78.63-3.28.71-6.72.17-10.28-7.31-48.72,33.79-98.52,91.94-98.59,32.54-.04,63.47,5.36,90.77,24.18,40.34,27.8,57.49,89.08,35.52,129.46-7.05,12.95-16.87,24.48-26.06,36.16-14.66,18.63-26.42,38.54-24.08,63.12,1.45,15.21,5.65,30.15,8.66,45.21.39,1.96,1.1,3.85,1.94,6.77Z"/>
      <path class="cls-1" d="M529.04,691.82c-46.07,1.71-92.14,3.42-138.21,5.13,7.83-6.78,14.38-12.07,18.95-15.67,8.37-6.6,13.4-10.14,12.56-13.15-.61-2.19-4-3.31-8.32-4.02-5.7-.94-11.55-.98-17.35-1.22-14.69-.6-21.25-9.52-17.64-23.75.47-1.84.03-4.47-1.02-6.03-3.13-4.6-3.34-4.46-1.49-9.59-4.69-2.34-5.81-5.93-3.32-10.59,1.95-3.64.29-5.62-3.09-6.84-1.06-.38-2.13-.7-3.19-1.09-7.44-2.77-8.93-6.8-4.67-13.31,4.2-6.43,8.47-12.83,12.99-19.04,3.57-4.91,5.12-9.8,4.39-16.17-3.55-31.03,11.94-58.5,40.9-70.59,30.58-12.77,61.58-13.25,91,3.5,37.78,21.51,45.34,70.68,29.66,97.95-4.28,7.45-7.38,15.57-11.28,23.26-9.88,19.48-11.4,39.72-5.98,60.69,1.73,6.68,3.33,13.39,5.09,20.53Z"/>
      <path class="cls-2" d="M265.66,733.29c-17.83-17.6-35.66-35.19-53.49-52.79,5.6-8.06,11.21-15.17,15.74-22.9,4.34-7.4,2.99-14.92-2.08-21.76-4.74-6.39-9.71-12.66-13.98-19.35-7.64-11.96-5.74-19.88,6.57-27.08,5.29-3.1,9.63-5.86,9.19-13.12-.09-1.57,4.52-3.45,7.96-5.89-.76-3.63,2.74-6.47,7.63-7.87,6.66-1.91,8.78-6.15,7.55-12.61-.37-1.95-.5-3.95-.62-5.94-.33-5.29,2.13-7.81,7.52-7.69,8.65.21,17.31.38,25.97.33,8.18-.05,15.35-3.01,20.73-9.23,27.94-32.29,83.78-33.6,116.49,4.29,18.31,21.21,32.13,44.44,35.09,72.88,4.92,47.23-35.88,83.32-65.2,96.31-19.6,8.68-41.01,12.07-41.01,12.07-26.33,4.17-41.02-.18-52.46,11.31-5.43,5.45-7.63,11.97-15.02,13.58-6.35,1.39-12.46-1.73-16.58-4.53Z"/>
      <path class="cls-3" d="M165.98,77.13c3.76-1.6,12.38-4.62,22.63-2.37,10.6,2.33,17.28,9.05,20.12,11.91,7.86,7.9,7.23,13.1,15.61,20.63,1.03.93,3.13,2.73,4.46,5.84,1.38,3.24,1.48,6.9.56,10.9-1.46,6.37-3.15,12.78-3.62,19.26-.59,8.02,3.2,12.08,11.23,13.29,3.58.54,5.79,2.02,5.93,5.78.21,5.59,3.52,6.73,8.66,5.75,1.2,6.42,5.17,7.14,10.68,5.26,5.14-1.76,9.15-1.23,11.23,5.14,1.61,4.94,5.58,5.84,10.34,3.4,3.26-1.67,6.33-3.7,9.59-5.35,4.92-2.49,10.23-3.15,15.06-.37,36.14,20.81,78.28-3.17,95.04-34.54,15.3-28.63,16.7-58.35,5.06-88.39-9.74-25.12-29.59-37.87-55.6-41.36-27.98-3.76-54.58.39-77.61,17.7-8.59,6.46-16.94,9.62-25.24,9.64-9.55.02-13.55-6.87-25.61-9.76-9.33-2.24-17.54-1.2-22.72-.1-11.93,15.91-23.86,31.83-35.79,47.74Z"/>
      <path class="cls-2" d="M333.03,956.71c-21.72-5.3-37.67-16.35-40.4-40.56-2.38-21.14,12.3-42.3,33.31-45.77,55.62-9.2,111.33-17.93,167.08-26.32,19.31-2.91,39.09,9.96,45.31,27.87,6.63,19.09-.12,39.35-16.41,50.77-2.84,1.99-7.09,1.85-8.68,5.66-60.07,9.45-120.14,18.89-180.21,28.34ZM418.7,906.65c24.89-3.91,49.79-7.78,74.66-11.78,5.31-.86,12.34-.54,10.69-9.21-1.41-7.41-7.14-6.02-12.38-5.2-50.57,7.97-101.14,15.89-151.7,23.95-5.28.84-12.61.83-10.83,9.18,1.63,7.65,8.09,5.93,13.7,5.04,25.28-4.02,50.57-7.97,75.85-11.97Z"/>
      <path class="cls-2" d="M406.71,837.81c-37.9,5.97-75.74,12.42-113.73,17.75-35.68,5.01-61.22-26.47-48.44-58.93,4.98-12.64,14.12-21.15,27.23-24.9,5.74-1.64,11.69-2.6,17.6-3.53,71.46-11.27,142.94-22.46,214.4-33.73,11.25-1.77,22.23-2.03,32.52,3.95,16.99,9.88,25.22,26.61,22.19,45.26-2.96,18.23-16.95,32.57-36.89,35.93-38.23,6.44-76.58,12.17-114.88,18.2ZM399.81,802.45v-.04c36.69-5.77,73.39-11.55,110.09-17.31,5.46-.86,4.26-15.91-1.99-14.91-22.88,3.65-45.77,7.2-68.66,10.8-48.93,7.69-97.88,15.24-146.75,23.29-5.49.91-15.62-1.72-13.98,9.45,1.59,10.89,9.8,6.2,15.93,5.25,35.13-5.45,70.24-11.01,105.36-16.53Z"/>
      <path class="cls-2" d="M387.19,738.72c-45.63,7.16-91.25,14.36-136.88,21.5-20.53,3.21-27.81-2.31-31.32-23.19-5.27-31.31-13.75-61.6-27.34-90.48-11.7-24.86-28.34-45.1-51.01-60.66-51.97-35.68-91.27-82.12-114.55-140.83C-19.82,329.28-5.2,220.63,70.5,122.07,125.6,50.32,200.32,9.51,290.39,1.55c119.54-10.56,218.49,32.73,289.39,128.95,75.26,102.13,83.37,214.04,31.34,329.85-7.37,16.4-15.97,32.43-27.52,46.36-34.92,42.14-41.84,91.6-38.42,143.83.78,11.83,2.26,23.62,3.81,35.38,2.68,20.3-2.09,27.39-22.33,30.87-19.5,3.36-39.1,6.15-58.66,9.22-26.94,4.22-53.88,8.47-80.83,12.69ZM382.16,700.2c34.33-5.4,68.66-10.81,102.99-16.19,23.7-3.71,22.91-3.63,21.03-27.21-4.87-61.22,4.43-118.59,43.19-169.3,68.47-89.58,72.8-220.33,11.93-314.85C477.07,41.87,312.99,1.18,178.58,80.07c-79.52,46.67-126.23,118.05-135.83,209.88-11.7,111.91,31.73,200.44,122.94,265.83,19.49,13.97,35.73,31.01,48.54,51.34,19.68,31.27,31.86,65.49,39.3,101.41,2.05,9.9,6.27,11.21,15.26,9.69,37.73-6.38,75.58-12.07,113.38-18.02Z"/>
    </g>
  </g>
</svg>